<?xml version="1.0" encoding="UTF-8"?>
<!DOCTYPE svg PUBLIC "-//W3C//DTD SVG 1.1//EN" "http://www.w3.org/Graphics/SVG/1.1/DTD/svg11.dtd">
<svg xmlns="http://www.w3.org/2000/svg" version="1.1" width="200px" height="200px" style="shape-rendering:geometricPrecision; text-rendering:geometricPrecision; image-rendering:optimizeQuality; fill-rule:evenodd; clip-rule:evenodd" xmlns:xlink="http://www.w3.org/1999/xlink">
<rect x="0" y="0" width="200" height="200" fill="#3f51b5"/>
<g><path fill="#222222" stroke="#222222" stroke-width="0.5" d="M 12.03,0 c 58.64,0 117.29,0 175.93,0 c 6.78,3.17 8.2,4.52 12.04,11.04 c 0,59.31 0,118.62 0,177.93 c -1.08,0.26 -0.97,2.2 -1.64,2.98 c -2.11,3.41 -5.03,5.81 -8.77,7.22 c -0.34,0.18 -0.55,0.46 -0.62,0.83 c -59.31,0 -118.63,0 -177.94,0 c -0.08,-0.37 -0.28,-0.64 -0.63,-0.83 c -2.38,-0.81 -4.45,-2.12 -6.18,-3.95 c -1.74,-1.92 -3.14,-4 -4.22,-6.25 c 0,-59.31 0,-118.62 0,-177.94 c 1.29,-2.44 2.88,-4.72 4.77,-6.83 c 1.81,-1.97 4.03,-3.15 6.66,-3.56 c 0.3,-0.12 0.5,-0.33 0.6,-0.64 Z M 52.97,138.66 c 0.07,0.89 0.56,1.33 1.47,1.35 c 31.44,-0.31 65.47,0.71 96.55,-0.57 c 12.02,1.05 25.34,0.32 37.52,0.55 c 0.58,0.05 1.03,-0.15 1.35,-0.62 c 0.2,-40.58 0.18,-81.16 -0.05,-121.74 c -2.59,-8.71 -9.94,-7.63 -17.33,-7.6 c -51.29,-0.07 -102.58,-0.04 -153.87,0.12 c -3.65,-0.18 -8.64,4.81 -8.46,8.46 c -0.19,40.25 -0.19,80.51 -0.01,120.76 c 0.32,0.47 0.77,0.67 1.35,0.62 c 5.83,-0.56 38.86,1.22 41.48,-1.33 Z M 31.15,152 c 0.32,2.53 -0.62,15.63 0.55,16.82 c 1.42,0.65 2.2,0.24 2.35,-1.23 c -0.04,-6.02 -0.07,-12.03 -0.1,-18.05 c -2.1,-1.83 -3.21,0.42 -2.8,2.46 Z M 66.15,152 c 0.31,2.21 -0.61,16.1 0.56,16.82 c 1.34,0.52 2.1,0.09 2.27,-1.31 c -0.02,-5.67 -0.02,-11.35 0,-17.02 c -0.17,-1.4 -0.93,-1.83 -2.27,-1.31 c -0.56,0.84 -0.74,1.78 -0.56,2.82 Z M 85.96,154.03 c -0.27,1.47 0.64,1.93 1.53,2.81 c 0.73,3.82 -2.25,14.11 4.89,12.01 c 1.58,-1.03 -0.65,-1.99 -1.44,-2.28 c -1.69,-0.86 -0.68,-8.14 -0.76,-9.91 c 0.61,-0.5 1.32,-0.8 2.13,-0.89 c 0.46,-0.23 0.62,-0.59 0.48,-1.08 c -0.87,-0.46 -1.74,-0.91 -2.62,-1.34 c -0.47,-1.02 0.39,-3.43 -0.74,-3.93 c -1.51,0.76 -2.16,2.01 -1.95,3.75 c -0.36,0.53 -0.87,0.82 -1.52,0.86 Z M 94.16,150.93 c 1.14,2.66 4.55,0.36 2.28,-1.92 c -1.6,-0.33 -2.36,0.32 -2.28,1.92 Z M 130.04,150.97 c 1.14,2.56 4.49,0.24 2.3,-1.85 c -1.62,-0.43 -2.39,0.18 -2.3,1.85 Z M 37.27,165.01 c 2,6.75 14.39,4.89 11.11,-2.91 c -2.12,-1.44 -4.44,-2.44 -6.96,-3 c -1.12,-0.36 -1.39,-1.03 -0.82,-2.03 c 1.91,-1.44 3.68,-1.29 5.31,0.46 c 1.27,0.8 2.01,0.49 2.24,-0.94 c -1.8,-4.95 -14.05,-3.07 -9.44,4.28 c 2.33,1.02 4.68,2 7.03,2.93 c 1.34,2.87 -2.5,3.87 -4.47,2.52 c -1.12,-1.02 -1.6,-3.01 -3.56,-2.08 c -0.32,0.16 -0.47,0.42 -0.44,0.77 Z M 50.52,162 c -0.13,8.54 11.32,10.06 13.33,1.48 c 2.33,-11.32 -13.53,-13.82 -13.33,-1.48 Z M 71.14,164.98 c 1.01,5.05 5.35,4.5 9.27,3.17 c 0.99,0.44 2.02,0.72 3.1,0.83 c 0.51,-0.33 0.7,-0.81 0.58,-1.42 c -0.01,-3.54 -0.16,-7.08 -0.45,-10.61 c -1.54,-4.45 -10.25,-4.11 -11.53,0.58 c 0.07,1.4 0.77,1.79 2.08,1.18 c 0.62,-0.98 1.39,-1.79 2.32,-2.44 c 3.16,-1.26 6.71,2.7 3.03,3.91 c -3.61,0.97 -7.33,0.25 -8.4,4.8 Z M 94.12,167 c -0.39,1.84 1.56,2.85 2.82,1.51 c 0.02,-1.65 1.74,-18.62 -2.72,-13.82 c -0.05,4.1 -0.08,8.21 -0.1,12.31 Z M 99.53,162.01 c -0.21,8.9 12.39,10.04 13.43,0.5 c 1.33,-10.62 -13.71,-12.38 -13.43,-0.5 Z M 115.03,157 c -0.04,3.79 0.01,7.58 0.13,11.36 c 0.89,0.89 1.79,0.89 2.68,0 c 0.07,-3.26 0.17,-6.53 0.29,-9.79 c 1.11,-2.99 5.33,-3.42 5.84,-0.08 c 0.02,3.29 0.09,6.58 0.19,9.87 c 1.03,1.19 2.79,0.97 2.82,-0.85 c -0.07,-6.11 1.71,-16.64 -8.48,-12.95 c -2.61,-0.84 -3.89,-0.87 -3.47,2.44 Z M 130.03,157 c 0.33,1.8 -0.67,11.17 0.63,11.88 c 4.35,1.64 1.45,-11.13 2.32,-13.39 c -0.36,-2.74 -3.6,-1.89 -2.95,1.51 Z M 135.1,165.03 c 0.99,4.8 6.78,5.01 10.22,2.74 c 5.29,-6.19 -2.67,-7.28 -6.68,-8.9 c -2.07,-2.42 2.83,-4 5.06,-1.25 c 1.3,0.71 2.05,0.36 2.22,-1.04 c -2.78,-6.16 -15.53,-0.91 -8.87,4.73 c 2.26,0.75 4.45,1.6 6.57,2.57 c 0.97,2.86 -2,3.28 -4.09,2.64 c -0.87,-0.64 -1.62,-1.42 -2.25,-2.32 c -1.02,-0.37 -1.74,-0.09 -2.18,0.83 Z M 149.15,157 c 0.01,3.49 0.01,6.99 0,10.49 c -0.21,1.6 1.88,2.19 2.83,1.01 c 0.46,-3.25 -1.26,-9.84 1.95,-11.91 c 1.74,-0.86 2.89,-0.38 3.46,1.43 c 0.08,3.51 0.21,7 0.39,10.49 c 0.82,0.63 1.63,0.6 2.43,-0.07 c 0.18,-3.13 0.32,-6.26 0.41,-9.41 c 0.35,-3.53 4.89,-3.99 5.29,-0.62 c 0.08,3.32 0.17,6.64 0.25,9.95 c 0.88,0.87 1.74,0.85 2.58,-0.05 c 0.12,-3.26 0.13,-6.52 0.05,-9.79 c -0.51,-6.36 -5.32,-4.29 -9.22,-3.41 c -2.22,-1.67 -4.61,-1.17 -7.05,-0.48 c -2.65,-1.36 -3.78,-0.57 -3.37,2.37 Z M 53.08,162.05 c -0.15,-4.34 4.05,-8.63 7.29,-4.06 c 3.38,7.89 -5.1,13.34 -7.29,4.06 Z M 102.08,160.95 c 1.64,-8.42 10.12,-5.08 7.57,3.39 c -2.57,5.35 -7.75,1.61 -7.57,-3.39 Z M 74.07,165.05 c 0.4,-2.4 6,-2.46 6.76,-2.34 c 0.75,3.81 -4.91,5.99 -6.76,2.34 Z"/></g>
<g><path fill="#f7f7f7" d="M 0,0 c 4.01,0 8.02,0 12.03,0 c -0.1,0.31 -0.3,0.52 -0.6,0.64 c -2.63,0.41 -4.85,1.59 -6.66,3.56 c -1.89,2.11 -3.48,4.39 -4.77,6.83 c 0,-3.67 0,-7.35 0,-11.03 Z M 187.96,0 c 4.01,0 8.03,0 12.04,0 c 0,3.68 0,7.36 0,11.04 c -3.84,-6.52 -5.26,-7.87 -12.04,-11.04 Z M 31.15,152 c -0.41,-2.04 0.7,-4.29 2.8,-2.46 c 0.03,6.02 0.06,12.03 0.1,18.05 c -0.15,1.47 -0.93,1.88 -2.35,1.23 c -1.17,-1.19 -0.23,-14.29 -0.55,-16.82 Z M 66.15,152 c -0.18,-1.04 0,-1.98 0.56,-2.82 c 1.34,-0.52 2.1,-0.09 2.27,1.31 c -0.02,5.67 -0.02,11.35 0,17.02 c -0.17,1.4 -0.93,1.83 -2.27,1.31 c -1.17,-0.72 -0.25,-14.61 -0.56,-16.82 Z M 85.96,154.03 c 0.65,-0.04 1.16,-0.33 1.52,-0.86 c -0.21,-1.74 0.44,-2.99 1.95,-3.75 c 1.13,0.5 0.27,2.91 0.74,3.93 c 0.88,0.43 1.75,0.88 2.62,1.34 c 0.14,0.49 -0.02,0.85 -0.48,1.08 c -0.81,0.09 -1.52,0.39 -2.13,0.89 c 0.08,1.77 -0.93,9.05 0.76,9.91 c 0.79,0.29 3.02,1.25 1.44,2.28 c -7.14,2.1 -4.16,-8.19 -4.89,-12.01 c -0.89,-0.88 -1.8,-1.34 -1.53,-2.81 Z M 94.16,150.93 c -0.08,-1.6 0.68,-2.25 2.28,-1.92 c 2.27,2.28 -1.14,4.58 -2.28,1.92 Z M 130.04,150.97 c -0.09,-1.67 0.68,-2.28 2.3,-1.85 c 2.19,2.09 -1.16,4.41 -2.3,1.85 Z M 37.27,165.01 c -0.03,-0.35 0.12,-0.61 0.44,-0.77 c 1.96,-0.93 2.44,1.06 3.56,2.08 c 1.97,1.35 5.81,0.35 4.47,-2.52 c -2.35,-0.93 -4.7,-1.91 -7.03,-2.93 c -4.61,-7.35 7.64,-9.23 9.44,-4.28 c -0.23,1.43 -0.97,1.74 -2.24,0.94 c -1.63,-1.75 -3.4,-1.9 -5.31,-0.46 c -0.57,1 -0.3,1.67 0.82,2.03 c 2.52,0.56 4.84,1.56 6.96,3 c 3.28,7.8 -9.11,9.66 -11.11,2.91 Z M 50.52,162 c -0.2,-12.34 15.66,-9.84 13.33,1.48 c -2.01,8.58 -13.46,7.06 -13.33,-1.48 Z M 71.14,164.98 c 1.07,-4.55 4.79,-3.83 8.4,-4.8 c 3.68,-1.21 0.13,-5.17 -3.03,-3.91 c -0.93,0.65 -1.7,1.46 -2.32,2.44 c -1.31,0.61 -2.01,0.22 -2.08,-1.18 c 1.28,-4.69 9.99,-5.03 11.53,-0.58 c 0.29,3.53 0.44,7.07 0.45,10.61 c 0.12,0.61 -0.07,1.09 -0.58,1.42 c -1.08,-0.11 -2.11,-0.39 -3.1,-0.83 c -3.92,1.33 -8.26,1.88 -9.27,-3.17 Z M 94.12,167 c 0.02,-4.1 0.05,-8.21 0.1,-12.31 c 4.46,-4.8 2.74,12.17 2.72,13.82 c -1.26,1.34 -3.21,0.33 -2.82,-1.51 Z M 99.53,162.01 c -0.28,-11.88 14.76,-10.12 13.43,0.5 c -1.04,9.54 -13.64,8.4 -13.43,-0.5 Z M 115.03,157 c -0.42,-3.31 0.86,-3.28 3.47,-2.44 c 10.19,-3.69 8.41,6.84 8.48,12.95 c -0.03,1.82 -1.79,2.04 -2.82,0.85 c -0.1,-3.29 -0.17,-6.58 -0.19,-9.87 c -0.51,-3.34 -4.73,-2.91 -5.84,0.08 c -0.12,3.26 -0.22,6.53 -0.29,9.79 c -0.89,0.89 -1.79,0.89 -2.68,0 c -0.12,-3.78 -0.17,-7.57 -0.13,-11.36 Z M 130.03,157 c -0.65,-3.4 2.59,-4.25 2.95,-1.51 c -0.87,2.26 2.03,15.03 -2.32,13.39 c -1.3,-0.71 -0.3,-10.08 -0.63,-11.88 Z M 135.1,165.03 c 0.44,-0.92 1.16,-1.2 2.18,-0.83 c 0.63,0.9 1.38,1.68 2.25,2.32 c 2.09,0.64 5.06,0.22 4.09,-2.64 c -2.12,-0.97 -4.31,-1.82 -6.57,-2.57 c -6.66,-5.64 6.09,-10.89 8.87,-4.73 c -0.17,1.4 -0.92,1.75 -2.22,1.04 c -2.23,-2.75 -7.13,-1.17 -5.06,1.25 c 4.01,1.62 11.97,2.71 6.68,8.9 c -3.44,2.27 -9.23,2.06 -10.22,-2.74 Z M 149.15,157 c -0.41,-2.94 0.72,-3.73 3.37,-2.37 c 2.44,-0.69 4.83,-1.19 7.05,0.48 c 3.9,-0.88 8.71,-2.95 9.22,3.41 c 0.08,3.27 0.07,6.53 -0.05,9.79 c -0.84,0.9 -1.7,0.92 -2.58,0.05 c -0.08,-3.31 -0.17,-6.63 -0.25,-9.95 c -0.4,-3.37 -4.94,-2.91 -5.29,0.62 c -0.09,3.15 -0.23,6.28 -0.41,9.41 c -0.8,0.67 -1.61,0.7 -2.43,0.07 c -0.18,-3.49 -0.31,-6.98 -0.39,-10.49 c -0.57,-1.81 -1.72,-2.29 -3.46,-1.43 c -3.21,2.07 -1.49,8.66 -1.95,11.91 c -0.95,1.18 -3.04,0.59 -2.83,-1.01 c 0.01,-3.5 0.01,-7 0,-10.49 Z M 53.08,162.05 c 2.19,9.28 10.67,3.83 7.29,-4.06 c -3.24,-4.57 -7.44,-0.28 -7.29,4.06 Z M 102.08,160.95 c -0.18,5 5,8.74 7.57,3.39 c 2.55,-8.47 -5.93,-11.81 -7.57,-3.39 Z M 74.07,165.05 c 1.85,3.65 7.51,1.47 6.76,-2.34 c -0.76,-0.12 -6.36,-0.06 -6.76,2.34 Z M 0,188.97 c 1.08,2.25 2.48,4.33 4.22,6.25 c 1.73,1.83 3.8,3.14 6.18,3.95 c 0.35,0.19 0.55,0.46 0.63,0.83 c -3.68,0 -7.35,0 -11.03,0 c 0,-3.68 0,-7.36 0,-11.03 Z M 200,188.97 c 0,3.68 0,7.35 0,11.03 c -3.68,0 -7.35,0 -11.03,0 c 0.07,-0.37 0.28,-0.65 0.62,-0.83 c 3.74,-1.41 6.66,-3.81 8.77,-7.22 c 0.67,-0.78 0.56,-2.72 1.64,-2.98 Z"/></g>
<g><path fill="#3f51b5" stroke="#3f51b5" stroke-width="0.5" d="M 150.99,139.44 c -25.99,-25 -62.84,-27.2 -91.8,-5.66 c -2.01,1.72 -4.08,3.34 -6.22,4.88 c -2.62,2.55 -35.65,0.77 -41.48,1.33 c -0.58,0.05 -1.03,-0.15 -1.35,-0.62 c -0.18,-40.25 -0.18,-80.51 0.01,-120.76 c -0.18,-3.65 4.81,-8.64 8.46,-8.46 c 51.29,-0.16 102.58,-0.19 153.87,-0.12 c 7.39,-0.03 14.74,-1.11 17.33,7.6 c 0.23,40.58 0.25,81.16 0.05,121.74 c -0.32,0.47 -0.77,0.67 -1.35,0.62 c -12.18,-0.23 -25.5,0.5 -37.52,-0.55 Z M 44,67 c 0.1,3.24 -0.2,8.7 4.36,8.71 c 6.23,-4.23 7.69,-9.21 16.28,-11.54 c 0.76,-0.28 1.43,-0.16 2.02,0.34 c -5.36,11.6 -5.57,22.43 0.55,33.81 c 1.55,1.02 3.12,1.02 4.73,0 c 10.95,-5.07 21.01,-19.91 22.2,-31.7 c 0.63,-0.6 1.38,-0.79 2.26,-0.56 c 13.88,3.67 26.73,2.92 40.94,2.75 c 4.3,-0.62 3.81,-2.23 3.27,-5.99 c -6.65,-14.86 -17.36,-23.62 -34.14,-22.81 c -5.29,-0.29 6.14,-8.29 7.6,-8.43 c 3.81,-2.33 20.52,0.79 15.23,-7.48 c -16.08,-13.48 -36.22,-10.21 -45.91,8.66 c -1.06,3.29 -2.03,6.57 -2.91,9.85 c -18.16,-8.38 -35.67,5.63 -36.48,24.39 Z M 96.08,85.99 c 3.52,8.03 2.7,15.89 3.06,24.38 c 0.31,0.47 0.76,0.68 1.33,0.64 c 7.87,0.59 15.35,1.08 22.96,3.49 c 0.12,-0.08 0.24,-0.16 0.36,-0.24 c 1.33,-14.14 -3.34,-25.86 -10.88,-37.58 c -0.39,-0.38 -0.87,-0.59 -1.42,-0.61 c -3.65,-0.11 -7.27,-0.42 -10.85,-0.93 c -1.33,3.67 -2.85,7.29 -4.56,10.85 Z"/></g>
<g><path fill="#000000" stroke="#000000" stroke-width="0.5" d="M 44,67 c 0.81,-18.76 18.32,-32.77 36.48,-24.39 c 0.88,-3.28 1.85,-6.56 2.91,-9.85 c 9.69,-18.87 29.83,-22.14 45.91,-8.66 c 5.29,8.27 -11.42,5.15 -15.23,7.48 c -1.46,0.14 -12.89,8.14 -7.6,8.43 c 16.78,-0.81 27.49,7.95 34.14,22.81 c 0.54,3.76 1.03,5.37 -3.27,5.99 c -14.21,0.17 -27.06,0.92 -40.94,-2.75 c -0.88,-0.23 -1.63,-0.04 -2.26,0.56 c -1.19,11.79 -11.25,26.63 -22.2,31.7 c -1.61,1.02 -3.18,1.02 -4.73,0 c -6.12,-11.38 -5.91,-22.21 -0.55,-33.81 c -0.59,-0.5 -1.26,-0.62 -2.02,-0.34 c -8.59,2.33 -10.05,7.31 -16.28,11.54 c -4.56,-0.01 -4.26,-5.47 -4.36,-8.71 Z M 96.08,85.99 c 1.71,-3.56 3.23,-7.18 4.56,-10.85 c 3.58,0.51 7.2,0.82 10.85,0.93 c 0.55,0.02 1.03,0.23 1.42,0.61 c 7.54,11.72 12.21,23.44 10.88,37.58 c -0.12,0.08 -0.24,0.16 -0.36,0.24 c -7.61,-2.41 -15.09,-2.9 -22.96,-3.49 c -0.57,0.04 -1.02,-0.17 -1.33,-0.64 c -0.36,-8.49 0.46,-16.35 -3.06,-24.38 Z M 150.99,139.44 c -31.08,1.28 -65.11,0.26 -96.55,0.57 c -0.91,-0.02 -1.4,-0.46 -1.47,-1.35 c 2.14,-1.54 4.21,-3.16 6.22,-4.88 c 28.96,-21.54 65.81,-19.34 91.8,5.66 Z"/></g>
</svg>
