<?xml version="1.0" encoding="UTF-8"?>
<!DOCTYPE svg PUBLIC "-//W3C//DTD SVG 1.1//EN" "http://www.w3.org/Graphics/SVG/1.1/DTD/svg11.dtd">
<svg xmlns="http://www.w3.org/2000/svg" version="1.1" width="200px" height="200px" style="shape-rendering:geometricPrecision; text-rendering:geometricPrecision; image-rendering:optimizeQuality; fill-rule:evenodd; clip-rule:evenodd" xmlns:xlink="http://www.w3.org/1999/xlink">
<rect x="0" y="0" width="200" height="200" fill="#222222"/>
<g><path fill="#fafafa" stroke="#fafafa" stroke-width="0.5" d="M 0,0 c 4.68,0 9.35,0 14.03,0 c -0.45,1.27 -4.05,0.35 -5.2,1.26 c -3.85,2.05 -6.52,5.12 -8.01,9.2 c -0.18,0.33 -0.46,0.52 -0.82,0.56 c 0,-3.67 0,-7.35 0,-11.02 Z M 185.97,0 c 4.68,0 9.35,0 14.03,0 c 0,3.67 0,7.35 0,11.02 c -0.35,-0.08 -0.6,-0.28 -0.77,-0.61 c -1.8,-4.88 -6.99,-10.48 -12.63,-9.82 c -0.3,-0.1 -0.51,-0.3 -0.63,-0.59 Z M 9.9,172.02 c 0.12,-4.51 0.13,-9.03 0.03,-13.55 c -0.3,-2.17 3.22,-1.81 3.91,-0.82 c 0.07,2.24 0.16,4.48 0.28,6.72 c 1.41,1.3 5.31,0.68 7.07,0.3 c 0.29,-2.35 0.49,-4.72 0.59,-7.12 c 0.45,-0.45 1,-0.65 1.65,-0.6 c 1.39,-0.28 2.2,0.24 2.42,1.56 c -0.02,5.66 -0.02,11.32 0,16.98 c 0.04,0.52 -0.13,0.96 -0.53,1.29 c -7.16,2.38 -1.51,-7.42 -4.83,-7.69 c -1.68,-0.09 -3.35,-0.12 -5.03,-0.08 c -3.21,-0.17 -0.21,6.51 -2.11,7.84 c -4.83,1.15 -3.01,-1.51 -3.45,-4.83 Z M 97.17,163.93 c -0.04,-0.38 -0.01,-0.76 0.09,-1.13 c 1.98,-1.59 1.43,-1.64 2.24,-3.88 c 0.64,-0.53 2.57,-2.32 3.34,-1.28 c 0.67,2.41 -0.91,4.41 2.51,4.52 c 0.86,0.89 0.86,1.79 0,2.68 c -0.82,0.05 -1.55,0.32 -2.18,0.81 c -0.24,2.27 -0.27,4.54 -0.09,6.83 c -0.01,1.73 1.6,1.12 2.73,1.4 c 0.36,1.09 0.21,2.08 -0.47,2.95 c -9.41,1.74 -5.12,-6.04 -6.51,-11.21 c -0.68,-0.47 -1.23,-1.03 -1.66,-1.69 Z M 136.16,169 c 0.58,-5.29 3.78,-8.66 9.32,-6.37 c 1.68,-0.95 -0.23,-4.19 1.2,-5.42 c 1.24,-0.44 2.42,-0.34 3.52,0.31 c 0.31,6.31 0.33,12.61 0.04,18.93 c -1.07,1.33 -3.31,0.01 -4.75,0.2 c -5.88,1.86 -9.31,-2.07 -9.33,-7.65 Z M 153.55,159.11 c -0.17,-3.57 5.45,-2.62 4.2,0.17 c -0.79,1.19 -3.53,1 -4.2,-0.17 Z M 28.04,170 c 0.68,-12.23 16.59,-9.89 14.72,1.45 c -2.9,8.33 -14.06,7.26 -14.72,-1.45 Z M 45.03,165 c -0.43,-3.81 1.64,-3.5 4.49,-2.36 c 2.35,-0.67 4.95,-1.22 7.03,0.52 c 1.36,-0.19 2.67,-0.58 3.94,-1.15 c 7.5,-1.15 5.54,9.83 5.35,14.35 c -0.76,0.99 -3.07,1.08 -3.83,0.1 c -0.03,-2.98 -0.05,-5.97 -0.04,-8.95 c -0.4,-2.23 -1.56,-2.75 -3.47,-1.56 c -1.3,1.64 -0.3,8.09 -0.76,10.35 c -0.84,1.11 -3,0.98 -3.98,0.14 c -0.14,-3.13 -0.27,-6.26 -0.41,-9.4 c -0.4,-2.02 -1.4,-2.42 -3.01,-1.2 c -2.2,2.84 -1.01,7.27 -1.42,10.59 c -0.33,0.51 -0.79,0.73 -1.4,0.67 c -1.42,0.29 -2.25,-0.24 -2.5,-1.59 c 0.02,-3.5 0.02,-7.01 0.01,-10.51 Z M 68.03,170 c -0.9,-10.74 13.86,-11.03 13.4,0.15 c -0.79,2.12 -7.91,-0.28 -9.16,1.49 c 0.86,2.62 3.09,2.6 5.25,1.49 c 4.52,-0.38 3.72,2.28 0.81,3.5 c -5.49,1.49 -10.27,-0.38 -10.3,-6.63 Z M 83.07,166.01 c 1.05,-5.53 9.75,-5.27 12.55,-1.47 c -3.01,3.55 -5.92,-1.26 -8.23,1.32 c -0.21,0.4 -0.12,0.72 0.28,0.95 c 2.39,0.7 7.04,1.15 8.12,3.8 c 2.36,9.44 -14.69,6.84 -12.42,3.29 c 2.81,-2.4 4.63,1.16 7.74,-0.36 c 2.31,-2.12 -3.31,-2.44 -4.4,-2.95 c -2.29,-1.02 -3.99,-1.65 -3.64,-4.58 Z M 106.92,170.03 c -0.67,-12.09 14.86,-9.93 12.97,0.35 c -1.14,1.8 -9.69,-0.84 -8.74,1.92 c 1.94,3.5 4.49,-0.18 7.18,1.11 c 0.9,0.22 1.19,0.75 0.88,1.61 c -3.56,4.23 -13.24,2.14 -12.29,-4.99 Z M 121.43,173.87 c 0.14,-4.61 3.36,-4.97 7.11,-5.68 c 1.46,-0.59 1.63,-1.48 0.53,-2.67 c -1.57,-1.1 -2.6,0.38 -3.7,1.25 c -0.85,0.37 -3.76,0.65 -3.09,-1.1 c 1.96,-4.93 9.99,-5.49 11.62,-0.16 c -0.05,3.8 0.07,7.56 0.38,11.26 c -1.62,0.69 -3.11,-0.17 -4.64,-0.52 c -3.16,1.3 -6.92,1.39 -8.21,-2.38 Z M 153.55,174 c 0.72,-2.17 -1.69,-12.6 1.88,-12.07 c 3.98,-0.76 2.37,11.55 2.31,14.37 c -0.28,0.45 -0.68,0.68 -1.22,0.67 c -2.42,0.42 -3.41,-0.57 -2.97,-2.97 Z M 161.03,165 c -0.43,-3.82 1.64,-3.47 4.49,-2.36 c 10.65,-2.69 8.44,5.43 8.45,12.87 c -0.23,1.35 -1.06,1.88 -2.48,1.59 c -4.12,0.5 1.6,-11.16 -4.01,-11.95 c -1.2,0.03 -1.8,1.87 -2.28,2.73 c -0.18,2.86 -0.25,5.72 -0.19,8.59 c -0.36,0.5 -0.86,0.72 -1.48,0.64 c -1.42,0.28 -2.26,-0.25 -2.5,-1.6 c 0.01,-3.5 0.01,-7.01 0,-10.51 Z M 32.04,170 c 1.11,6.17 7.51,4.28 6.86,-1.38 c -1.1,-5.37 -7.05,-4.09 -6.86,1.38 Z M 72.23,167.74 c 1.39,0.29 2.78,0.32 4.18,0.1 c 0.76,-0.87 0.64,-1.64 -0.38,-2.29 c -2.09,-0.71 -3.36,0.02 -3.8,2.19 Z M 111.03,166.99 c 0.4,1.75 6.43,1.69 4.34,-0.92 c -1.81,-1.38 -3.25,-1.08 -4.34,0.92 Z M 140.45,169 c -0.33,4.41 3.71,7.17 5.56,2.51 c 1.68,-6.59 -4.65,-9.26 -5.56,-2.51 Z M 125.9,171.98 c -0.11,3.33 4.38,1.74 3.84,-1.23 c -0.7,-0.78 -3.5,0.23 -3.84,1.23 Z M 0,188.97 c 0.33,0.08 0.58,0.27 0.73,0.58 c 1.62,4.37 4.57,7.48 8.85,9.33 c 0.95,0.67 4.11,-0.04 4.44,1.12 c -4.67,0 -9.35,0 -14.02,0 c 0,-3.68 0,-7.35 0,-11.03 Z M 200,188.97 c 0,3.67 0,7.35 0,11.03 c -4.67,0 -9.35,0 -14.02,0 c 0.11,-0.32 0.32,-0.53 0.64,-0.64 c 6.48,0.45 10.66,-5.48 13.38,-10.39 Z"/></g>
<g><path fill="#222222" stroke="#222222" stroke-width="0.5" d="M 14.03,0 c 57.31,0 114.63,0 171.94,0 c 0.12,0.29 0.33,0.49 0.63,0.59 c 5.64,-0.66 10.83,4.94 12.63,9.82 c 0.17,0.33 0.42,0.53 0.77,0.61 c 0,59.32 0,118.63 0,177.95 c -2.72,4.91 -6.9,10.84 -13.38,10.39 c -0.32,0.11 -0.53,0.32 -0.64,0.64 c -57.32,0 -114.64,0 -171.96,0 c -0.33,-1.16 -3.49,-0.45 -4.44,-1.12 c -4.28,-1.85 -7.23,-4.96 -8.85,-9.33 c -0.15,-0.31 -0.4,-0.5 -0.73,-0.58 c 0,-59.31 0,-118.63 0,-177.95 c 0.36,-0.04 0.64,-0.23 0.82,-0.56 c 1.49,-4.08 4.16,-7.15 8.01,-9.2 c 1.15,-0.91 4.75,0.01 5.2,-1.26 Z M 10.96,88.04 c -1.86,5.58 -0.57,25.36 -0.99,32.43 c -0.1,0.79 0.22,1.3 0.95,1.53 c -1.55,2.49 -0.86,13.95 -0.79,17.37 c 0.33,0.47 0.78,0.68 1.35,0.63 c 3.36,0.01 6.71,-0.05 10.06,-0.17 c 0.42,-0.16 0.61,-0.46 0.56,-0.9 c 3.05,1.66 38.6,1.82 41.68,0.19 c 1.14,1.41 8.77,1.38 10.27,-0.18 c 0.54,0.87 1.35,1.24 2.43,1.1 c 19.82,-0.04 39.65,-0.01 59.47,0.09 c 3.38,-0.14 6.75,-0.18 10.13,-0.11 c 6.41,-0.38 27.23,0.9 31.95,-1.04 c 0.08,0.79 0.55,1.13 1.4,1.03 c 3.32,0.02 6.63,-0.03 9.94,-0.15 c 0.47,-0.31 0.68,-0.76 0.65,-1.34 c 0.02,-2.33 0,-4.65 -0.08,-6.97 c -0.2,-0.44 -0.55,-0.63 -1.03,-0.55 c 2.26,-6.32 0.59,-54.97 1.13,-65.55 c -0.01,-0.9 -0.44,-1.29 -1.31,-1.16 c 2.42,-3.27 1.21,-40.01 1.09,-46.65 c -2.63,-11.1 -16.05,-6.69 -24.32,-7.64 c -49.29,-0.06 -98.58,0 -147.86,0.18 c -3.87,1.11 -6.35,3.59 -7.46,7.46 c -0.2,22.95 -0.24,45.91 -0.12,68.86 c -0.1,0.78 0.2,1.29 0.9,1.54 Z M 9.9,172.02 c 0.44,3.32 -1.38,5.98 3.45,4.83 c 1.9,-1.33 -1.1,-8.01 2.11,-7.84 c 1.68,-0.04 3.35,-0.01 5.03,0.08 c 3.32,0.27 -2.33,10.07 4.83,7.69 c 0.4,-0.33 0.57,-0.77 0.53,-1.29 c -0.02,-5.66 -0.02,-11.32 0,-16.98 c -0.22,-1.32 -1.03,-1.84 -2.42,-1.56 c -0.65,-0.05 -1.2,0.15 -1.65,0.6 c -0.1,2.4 -0.3,4.77 -0.59,7.12 c -1.76,0.38 -5.66,1 -7.07,-0.3 c -0.12,-2.24 -0.21,-4.48 -0.28,-6.72 c -0.69,-0.99 -4.21,-1.35 -3.91,0.82 c 0.1,4.52 0.09,9.04 -0.03,13.55 Z M 97.17,163.93 c 0.43,0.66 0.98,1.22 1.66,1.69 c 1.39,5.17 -2.9,12.95 6.51,11.21 c 0.68,-0.87 0.83,-1.86 0.47,-2.95 c -1.13,-0.28 -2.74,0.33 -2.73,-1.4 c -0.18,-2.29 -0.15,-4.56 0.09,-6.83 c 0.63,-0.49 1.36,-0.76 2.18,-0.81 c 0.86,-0.89 0.86,-1.79 0,-2.68 c -3.42,-0.11 -1.84,-2.11 -2.51,-4.52 c -0.77,-1.04 -2.7,0.75 -3.34,1.28 c -0.81,2.24 -0.26,2.29 -2.24,3.88 c -0.1,0.37 -0.13,0.75 -0.09,1.13 Z M 136.16,169 c 0.02,5.58 3.45,9.51 9.33,7.65 c 1.44,-0.19 3.68,1.13 4.75,-0.2 c 0.29,-6.32 0.27,-12.62 -0.04,-18.93 c -1.1,-0.65 -2.28,-0.75 -3.52,-0.31 c -1.43,1.23 0.48,4.47 -1.2,5.42 c -5.54,-2.29 -8.74,1.08 -9.32,6.37 Z M 153.55,159.11 c 0.67,1.17 3.41,1.36 4.2,0.17 c 1.25,-2.79 -4.37,-3.74 -4.2,-0.17 Z M 28.04,170 c 0.66,8.71 11.82,9.78 14.72,1.45 c 1.87,-11.34 -14.04,-13.68 -14.72,-1.45 Z M 45.03,165 c 0.01,3.5 0.01,7.01 -0.01,10.51 c 0.25,1.35 1.08,1.88 2.5,1.59 c 0.61,0.06 1.07,-0.16 1.4,-0.67 c 0.41,-3.32 -0.78,-7.75 1.42,-10.59 c 1.61,-1.22 2.61,-0.82 3.01,1.2 c 0.14,3.14 0.27,6.27 0.41,9.4 c 0.98,0.84 3.14,0.97 3.98,-0.14 c 0.46,-2.26 -0.54,-8.71 0.76,-10.35 c 1.91,-1.19 3.07,-0.67 3.47,1.56 c -0.01,2.98 0.01,5.97 0.04,8.95 c 0.76,0.98 3.07,0.89 3.83,-0.1 c 0.19,-4.52 2.15,-15.5 -5.35,-14.35 c -1.27,0.57 -2.58,0.96 -3.94,1.15 c -2.08,-1.74 -4.68,-1.19 -7.03,-0.52 c -2.85,-1.14 -4.92,-1.45 -4.49,2.36 Z M 68.03,170 c 0.03,6.25 4.81,8.12 10.3,6.63 c 2.91,-1.22 3.71,-3.88 -0.81,-3.5 c -2.16,1.11 -4.39,1.13 -5.25,-1.49 c 1.25,-1.77 8.37,0.63 9.16,-1.49 c 0.46,-11.18 -14.3,-10.89 -13.4,-0.15 Z M 83.07,166.01 c -0.35,2.93 1.35,3.56 3.64,4.58 c 1.09,0.51 6.71,0.83 4.4,2.95 c -3.11,1.52 -4.93,-2.04 -7.74,0.36 c -2.27,3.55 14.78,6.15 12.42,-3.29 c -1.08,-2.65 -5.73,-3.1 -8.12,-3.8 c -0.4,-0.23 -0.49,-0.55 -0.28,-0.95 c 2.31,-2.58 5.22,2.23 8.23,-1.32 c -2.8,-3.8 -11.5,-4.06 -12.55,1.47 Z M 106.92,170.03 c -0.95,7.13 8.73,9.22 12.29,4.99 c 0.31,-0.86 0.02,-1.39 -0.88,-1.61 c -2.69,-1.29 -5.24,2.39 -7.18,-1.11 c -0.95,-2.76 7.6,-0.12 8.74,-1.92 c 1.89,-10.28 -13.64,-12.44 -12.97,-0.35 Z M 121.43,173.87 c 1.29,3.77 5.05,3.68 8.21,2.38 c 1.53,0.35 3.02,1.21 4.64,0.52 c -0.31,-3.7 -0.43,-7.46 -0.38,-11.26 c -1.63,-5.33 -9.66,-4.77 -11.62,0.16 c -0.67,1.75 2.24,1.47 3.09,1.1 c 1.1,-0.87 2.13,-2.35 3.7,-1.25 c 1.1,1.19 0.93,2.08 -0.53,2.67 c -3.75,0.71 -6.97,1.07 -7.11,5.68 Z M 153.55,174 c -0.44,2.4 0.55,3.39 2.97,2.97 c 0.54,0.01 0.94,-0.22 1.22,-0.67 c 0.06,-2.82 1.67,-15.13 -2.31,-14.37 c -3.57,-0.53 -1.16,9.9 -1.88,12.07 Z M 161.03,165 c 0.01,3.5 0.01,7.01 0,10.51 c 0.24,1.35 1.08,1.88 2.5,1.6 c 0.62,0.08 1.12,-0.14 1.48,-0.64 c -0.06,-2.87 0.01,-5.73 0.19,-8.59 c 0.48,-0.86 1.08,-2.7 2.28,-2.73 c 5.61,0.79 -0.11,12.45 4.01,11.95 c 1.42,0.29 2.25,-0.24 2.48,-1.59 c -0.01,-7.44 2.2,-15.56 -8.45,-12.87 c -2.85,-1.11 -4.92,-1.46 -4.49,2.36 Z M 176.15,169 c 0.16,5.66 3.27,9.98 9.38,7.31 c 1.41,1.29 -0.64,2.67 -1.96,2.66 c -1.96,-0.43 -3.94,-0.7 -5.95,-0.8 c -0.77,0.88 -0.68,1.71 0.26,2.5 c 4.9,3.07 12.81,2.01 12.56,-5.17 c 0.1,-4.34 0.02,-8.67 -0.23,-12.98 c -1.12,-1.2 -3.42,-0.23 -4.71,0.17 c -5.56,-2.36 -8.72,1.02 -9.35,6.31 Z M 32.04,170 c -0.19,-5.47 5.76,-6.75 6.86,-1.38 c 0.65,5.66 -5.75,7.55 -6.86,1.38 Z M 72.23,167.74 c 0.44,-2.17 1.71,-2.9 3.8,-2.19 c 1.02,0.65 1.14,1.42 0.38,2.29 c -1.4,0.22 -2.79,0.19 -4.18,-0.1 Z M 111.03,166.99 c 1.09,-2 2.53,-2.3 4.34,-0.92 c 2.09,2.61 -3.94,2.67 -4.34,0.92 Z M 140.45,169 c 0.91,-6.75 7.24,-4.08 5.56,2.51 c -1.85,4.66 -5.89,1.9 -5.56,-2.51 Z M 180.46,169 c 0.17,-3.25 2.98,-5.51 5.23,-2.35 c 1.08,2.87 0.68,8.43 -3.74,6.78 c -1.07,-1.27 -1.56,-2.75 -1.49,-4.43 Z M 125.9,171.98 c 0.34,-1 3.14,-2.01 3.84,-1.23 c 0.54,2.97 -3.95,4.56 -3.84,1.23 Z"/></g>
<g><path fill="#f8f8f8" stroke="#f8f8f8" stroke-width="0.5" d="M 176.15,169 c 0.63,-5.29 3.79,-8.67 9.35,-6.31 c 1.29,-0.4 3.59,-1.37 4.71,-0.17 c 0.25,4.31 0.33,8.64 0.23,12.98 c 0.25,7.18 -7.66,8.24 -12.56,5.17 c -0.94,-0.79 -1.03,-1.62 -0.26,-2.5 c 2.01,0.1 3.99,0.37 5.95,0.8 c 1.32,0.01 3.37,-1.37 1.96,-2.66 c -6.11,2.67 -9.22,-1.65 -9.38,-7.31 Z M 180.46,169 c -0.07,1.68 0.42,3.16 1.49,4.43 c 4.42,1.65 4.82,-3.91 3.74,-6.78 c -2.25,-3.16 -5.06,-0.9 -5.23,2.35 Z"/></g>
<g><path fill="#000000" stroke="#000000" stroke-width="0.5" d="M 135.95,140.13 c -19.82,-0.1 -39.65,-0.13 -59.47,-0.09 c -1.08,0.14 -1.89,-0.23 -2.43,-1.1 c -0.32,-1.5 0.81,-1.88 1.73,-2.71 c 1.49,-3.14 2.39,-4.83 5.07,-6.92 c 0.17,-3.81 3.18,-5.03 5.62,-7.33 c 1.26,-4.23 2.43,-4.75 5.62,-7.28 c 3.94,-1.14 2.15,-1.51 3.69,-4.41 c 2.48,-2.96 4.55,-3.31 5.82,-7.18 c 5.52,-3.48 8.35,-8.6 13.7,-12.29 c 6.3,-6.03 17.27,-15.55 24.6,-19.47 c 1.4,-2.56 4.67,-2.79 6.28,-5.58 c 0.83,-0.54 4.2,-1.1 3.17,-2.63 c -10.61,-0.29 -14.33,-0.41 -21.07,7.7 c -4.59,0.97 -6.04,5 -9.89,7.14 c -1.01,3.29 -2.08,1.06 -4.43,2.62 c -2.26,2.64 -5.61,7.06 -8.84,8.08 c -1.46,2.45 -4.44,3.82 -5.79,6.09 c -0.07,1.12 -0.38,2.14 -0.94,3.07 c -1.98,1.45 -4.07,2.73 -6.27,3.82 c -1.91,1.27 -1.56,2.59 -2.71,4.23 c -2.67,1.88 -3.36,4.01 -6.84,5.19 c -0.47,1.23 -0.92,2.47 -1.34,3.73 c -2.73,2.24 -3.81,3.68 -4.82,7.13 c -1.63,1.37 -3.23,2.75 -4.83,4.14 c -0.51,1.21 -0.92,2.47 -1.23,3.77 c -1.71,1.64 -3.46,3.24 -5.24,4.8 c -0.45,1.49 -0.89,2.98 -1.33,4.47 c -3.08,1.63 -38.63,1.47 -41.68,-0.19 c -2.5,0.29 -2.39,-0.08 -3.72,-1.82 c -3.66,-0.23 -2.35,0 -4.42,-2.55 c -0.76,-0.88 -1.65,-1.6 -2.65,-2.16 c 2.4,-1.13 3.72,-3.02 3.96,-5.68 c 0.87,-0.4 1.76,-0.78 2.65,-1.17 c 3.21,-2.52 4.39,-3.15 6.22,-6.89 c 2.97,-2.27 7.64,-3.6 8.57,-7.54 c 2.3,-2.17 4.93,-3.84 7.88,-5.01 c 0.4,-0.99 0.77,-1.98 1.11,-2.99 c 4.87,-3.32 9.21,-3.94 12.99,-8.92 c 1.27,-0.74 2.51,-1.52 3.73,-2.35 c 0.85,-0.81 1.6,-1.71 2.25,-2.69 c 2.76,-0.1 3.48,-0.73 5,-2.94 c 2.37,-1.05 4.8,-1.98 7.28,-2.78 c 0.58,-0.78 1.16,-1.54 1.74,-2.3 c 2.04,-0.35 3.73,-1.3 5.07,-2.86 c 3.67,-2.23 9.02,-1.8 11.45,-5.57 c 2.51,-0.81 5.06,-1.13 6.5,-3.56 c 1.88,-0.49 3.77,-0.93 5.67,-1.31 c 1.23,-0.65 0.41,-1.98 -0.85,-1.88 c -3.88,0.12 -7.14,-0.2 -10.88,0.85 c -1.29,-0.61 -2.63,-0.86 -4.03,-0.73 c -0.53,0.49 -1.02,1.01 -1.47,1.58 c -11.12,4.9 -22.68,12.35 -33.41,18.59 c -1.81,1.96 -2.18,2.59 -5.05,2.9 c -4.71,4.67 -11.32,10.67 -17.63,13.42 c -0.7,1.03 -1.28,2.14 -1.73,3.32 c -2.61,1.68 -5.19,3.41 -7.75,5.19 c -1.56,4.67 -5.38,5.28 -9.01,7.99 c -0.55,0.89 -0.76,1.87 -0.65,2.93 c -0.73,-0.23 -1.05,-0.74 -0.95,-1.53 c 0.42,-7.07 -0.87,-26.85 0.99,-32.43 c -0.37,-1.74 0.24,-3 1.82,-3.76 c 1.73,-2.49 1.16,-3.93 4.59,-4.36 c 2.58,-3.87 6.74,-4.08 11,-5.03 c 0.59,-0.77 1.3,-1.38 2.14,-1.83 c 5.3,-0.68 10.58,-1.42 15.86,-2.2 c 0.46,-0.52 0.91,-1.06 1.35,-1.61 c 4.44,-0.2 10.13,-1.28 14.67,-1.37 c 0.48,-0.52 0.93,-1.07 1.34,-1.64 c 7.44,-0.45 16.19,-1.67 23.78,-2.23 c 0.57,0.02 1.03,-0.19 1.36,-0.64 c 0.55,-5.62 -0.43,-10.42 -1,-15.74 c -0.17,-0.16 -0.34,-0.32 -0.51,-0.47 c -1.66,-0.01 -3.27,-0.29 -4.83,-0.86 c -1.57,1.31 0.76,8.59 -2.19,11.41 c -2.91,0.12 -5.82,0.26 -8.73,0.42 c -0.56,0.72 -1.26,1.27 -2.08,1.66 c -4.68,0.49 -9.36,0.88 -14.06,1.17 c -1.5,-0.02 -1.27,0.96 -2.22,1.75 c -6.87,0.32 -13.86,2.38 -20.73,2.49 c -2.8,0.21 -4.78,-4.66 -7.89,-5.35 c -1.25,-1.22 -2,-7.61 -2.18,-9.51 c 1.08,-7.29 -0.5,-8.39 5.89,-12.44 c 5.41,-11.42 31.94,-9.24 41.88,-5.54 c 7.87,2.31 5.6,4.62 10.6,9.35 c 0.02,0.81 0.29,1.5 0.81,2.07 c 1.25,-0.02 4.65,-3.99 5.82,-4.84 c 2.12,-2.2 4.17,-4.41 6.17,-6.65 c 19.62,-1.95 39.15,-3.24 58.85,-4.03 c 13.42,-2.48 16.53,1.26 26.4,8.35 c 1.31,1.25 1.38,2.56 0.22,3.92 c -1.25,0.79 -4.11,-0.12 -4.81,1.18 c -0.49,5.16 1.08,10.38 1,15.58 c 0.79,1.37 5.02,0.42 6.32,0.04 c 0.18,0.64 0.18,1.29 0.03,1.95 c -1.57,3.52 -4.93,4.82 -6.73,8.11 c -0.96,0.37 -1.91,0.78 -2.82,1.24 c -0.29,0.98 -0.72,1.9 -1.29,2.74 c -3.39,2.5 -3.53,4.03 -4.94,7.93 c -0.81,0.51 -1.58,1.09 -2.29,1.73 c -0.68,3.66 -2.34,2.53 -4.48,4.61 c -2.04,5 -4.42,8.5 -6.26,13.71 c -0.91,0.4 -1.82,0.81 -2.73,1.22 c -1.19,3.57 -5.9,17.06 -7.97,19.04 c -0.92,4.18 -1.72,8.39 -2.4,12.61 c -0.68,0.29 -1.38,0.52 -2.12,0.69 c -1.19,1.3 -0.4,5.27 -1.65,7.22 Z M 131.96,33.99 c 3.91,4.08 29.21,3.81 35.59,3.14 c 1.36,-0.22 1.55,-0.77 0.57,-1.67 c -10.76,-6.57 -24.35,-0.22 -36.16,-1.47 Z M 93.09,40.95 c 6.49,0.38 26.22,-0.01 30.45,-4.87 c 1.68,-0.56 3.37,-1.11 5.05,-1.65 c -2.64,-0.57 -4.59,0.2 -7.13,0.72 c -7.91,0.04 -15.78,0.44 -23.62,1.2 c -1.19,0.24 -3.86,3.55 -4.75,4.6 Z M 116.81,48 c 0.01,1.94 0.3,3.84 0.85,5.7 c 0.22,5.01 -1.04,7.66 5.58,6.03 c 0.95,-0.94 0,-7.65 -0.16,-9.23 c 1.46,-9.91 19.24,-7.69 17.83,6.06 c -0.07,2.25 5.37,2.17 5.54,0.04 c -0.54,-4.37 -0.94,-8.77 -1.21,-13.19 c -0.24,-0.84 -0.81,-1.33 -1.68,-1.47 c -3.74,-0.46 -7.46,-1.09 -11.16,-1.87 c -5.18,-0.73 -9.86,2.82 -14.66,4.16 c -1.24,0.62 -0.76,2.64 -0.93,3.77 Z M 151.16,49 c 0.81,2.7 1.18,5.47 1.11,8.3 c 0.14,0.17 0.29,0.35 0.44,0.52 c 1.35,0.12 2.67,-0.08 3.95,-0.6 c 3.62,-0.11 7.25,-0.17 10.87,-0.17 c 3.62,0.37 1.37,-6.05 0.94,-7.74 c -0.3,-1.52 0.88,-6.71 -1.02,-7.23 c -5.19,0.23 -10.8,-0.73 -15.75,1.15 c -1.03,0.72 -0.3,4.52 -0.54,5.77 Z M 93.98,49 c 0.03,1.92 0.31,3.81 0.85,5.65 c 0.35,1.28 -0.43,5.59 0.79,6.24 c 3.57,0.1 7.15,0.09 10.74,-0.03 c 1.46,-0.53 4.56,-0.42 5.54,-1.47 c 0.28,-3.06 0.06,-6.08 -0.68,-9.06 c -0.35,-1.22 0.45,-4.57 -0.85,-5.22 c -1.38,-0.02 -2.71,0.22 -4.02,0.72 c -3.91,0.06 -7.82,0.16 -11.72,0.31 c -1.06,0.75 -0.52,1.76 -0.65,2.86 Z M 128.46,50.49 c 2.05,5.13 -2.18,9.96 5.9,8.37 c 2.37,-2.1 -0.77,-14.1 -5.9,-8.37 Z M 188.73,64.29 c 0.87,-0.13 1.3,0.26 1.31,1.16 c -0.54,10.58 1.13,59.23 -1.13,65.55 c 0.4,2.11 -1.93,2.19 -2.88,3.58 c -2.01,2.62 -0.84,2.28 -4.41,2.53 c -1.3,1.67 -1.17,2.09 -3.59,1.87 c -4.72,1.94 -25.54,0.66 -31.95,1.04 c -0.04,-1.78 0,-3.56 0.11,-5.34 c 0.57,-0.43 1.12,-0.87 1.66,-1.32 c 0.69,-3.59 1.46,-7.17 2.29,-10.72 c 0.91,-0.41 1.82,-0.83 2.72,-1.27 c 0.08,-3.86 1.87,-6.97 2.3,-10.71 c 3.12,-2.24 2.39,-5.71 4.2,-8.84 c 3.17,-2.98 3.84,-3.78 4.88,-8.13 c 2.89,-1.87 2.98,-3.83 3.91,-6.99 c 2.04,-1.44 2.95,-2.75 3.97,-5.08 c 0.94,-0.38 1.87,-0.79 2.78,-1.23 c 0.43,-2.56 3.14,-4.57 4.99,-6.04 c 1.33,-2.97 1.42,-5.3 5.03,-5.99 c 1.46,-1.05 1.64,-4.6 3.81,-4.07 Z"/></g>
<g><path fill="#22b14c" stroke="#22b14c" stroke-width="0.5" d="M 188.73,64.29 c -2.17,-0.53 -2.35,3.02 -3.81,4.07 c -3.61,0.69 -3.7,3.02 -5.03,5.99 c -1.85,1.47 -4.56,3.48 -4.99,6.04 c -0.91,0.44 -1.84,0.85 -2.78,1.23 c -1.02,2.33 -1.93,3.64 -3.97,5.08 c -0.93,3.16 -1.02,5.12 -3.91,6.99 c -1.04,4.35 -1.71,5.15 -4.88,8.13 c -1.81,3.13 -1.08,6.6 -4.2,8.84 c -0.43,3.74 -2.22,6.85 -2.3,10.71 c -0.9,0.44 -1.81,0.86 -2.72,1.27 c -0.83,3.55 -1.6,7.13 -2.29,10.72 c -0.54,0.45 -1.09,0.89 -1.66,1.32 c -0.11,1.78 -0.15,3.56 -0.11,5.34 c -3.38,-0.07 -6.75,-0.03 -10.13,0.11 c 1.25,-1.95 0.46,-5.92 1.65,-7.22 c 0.74,-0.17 1.44,-0.4 2.12,-0.69 c 0.68,-4.22 1.48,-8.43 2.4,-12.61 c 2.07,-1.98 6.78,-15.47 7.97,-19.04 c 0.91,-0.41 1.82,-0.82 2.73,-1.22 c 1.84,-5.21 4.22,-8.71 6.26,-13.71 c 2.14,-2.08 3.8,-0.95 4.48,-4.61 c 0.71,-0.64 1.48,-1.22 2.29,-1.73 c 1.41,-3.9 1.55,-5.43 4.94,-7.93 c 0.57,-0.84 1,-1.76 1.29,-2.74 c 0.91,-0.46 1.86,-0.87 2.82,-1.24 c 1.8,-3.29 5.16,-4.59 6.73,-8.11 c 0.15,-0.66 0.15,-1.31 -0.03,-1.95 c -1.3,0.38 -5.53,1.33 -6.32,-0.04 c 0.08,-5.2 -1.49,-10.42 -1,-15.58 c 0.7,-1.3 3.56,-0.39 4.81,-1.18 c 1.16,-1.36 1.09,-2.67 -0.22,-3.92 c -9.87,-7.09 -12.98,-10.83 -26.4,-8.35 c -19.7,0.79 -39.23,2.08 -58.85,4.03 c -2,2.24 -4.05,4.45 -6.17,6.65 c -1.17,0.85 -4.57,4.82 -5.82,4.84 c -0.52,-0.57 -0.79,-1.26 -0.81,-2.07 c -5,-4.73 -2.73,-7.04 -10.6,-9.35 c -9.94,-3.7 -36.47,-5.88 -41.88,5.54 c -6.39,4.05 -4.81,5.15 -5.89,12.44 c 0.18,1.9 0.93,8.29 2.18,9.51 c 3.11,0.69 5.09,5.56 7.89,5.35 c 6.87,-0.11 13.86,-2.17 20.73,-2.49 c 0.95,-0.79 0.72,-1.77 2.22,-1.75 c 4.7,-0.29 9.38,-0.68 14.06,-1.17 c 0.82,-0.39 1.52,-0.94 2.08,-1.66 c 2.91,-0.16 5.82,-0.3 8.73,-0.42 c 2.95,-2.82 0.62,-10.1 2.19,-11.41 c 1.56,0.57 3.17,0.85 4.83,0.86 c 0.17,0.15 0.34,0.31 0.51,0.47 c 0.57,5.32 1.55,10.12 1,15.74 c -0.33,0.45 -0.79,0.66 -1.36,0.64 c -7.59,0.56 -16.34,1.78 -23.78,2.23 c -0.41,0.57 -0.86,1.12 -1.34,1.64 c -4.54,0.09 -10.23,1.17 -14.67,1.37 c -0.44,0.55 -0.89,1.09 -1.35,1.61 c -5.28,0.78 -10.56,1.52 -15.86,2.2 c -0.84,0.45 -1.55,1.06 -2.14,1.83 c -4.26,0.95 -8.42,1.16 -11,5.03 c -3.43,0.43 -2.86,1.87 -4.59,4.36 c -1.58,0.76 -2.19,2.02 -1.82,3.76 c -0.7,-0.25 -1,-0.76 -0.9,-1.54 c -0.12,-22.95 -0.08,-45.91 0.12,-68.86 c 1.11,-3.87 3.59,-6.35 7.46,-7.46 c 49.28,-0.18 98.57,-0.24 147.86,-0.18 c 8.27,0.95 21.69,-3.46 24.32,7.64 c 0.12,6.64 1.33,43.38 -1.09,46.65 Z M 131.96,33.99 c 11.81,1.25 25.4,-5.1 36.16,1.47 c 0.98,0.9 0.79,1.45 -0.57,1.67 c -6.38,0.67 -31.68,0.94 -35.59,-3.14 Z M 93.09,40.95 c 0.89,-1.05 3.56,-4.36 4.75,-4.6 c 7.84,-0.76 15.71,-1.16 23.62,-1.2 c 2.54,-0.52 4.49,-1.29 7.13,-0.72 c -1.68,0.54 -3.37,1.09 -5.05,1.65 c -4.23,4.86 -23.96,5.25 -30.45,4.87 Z M 116.81,48 c 0.17,-1.13 -0.31,-3.15 0.93,-3.77 c 4.8,-1.34 9.48,-4.89 14.66,-4.16 c 3.7,0.78 7.42,1.41 11.16,1.87 c 0.87,0.14 1.44,0.63 1.68,1.47 c 0.27,4.42 0.67,8.82 1.21,13.19 c -0.17,2.13 -5.61,2.21 -5.54,-0.04 c 1.41,-13.75 -16.37,-15.97 -17.83,-6.06 c 0.16,1.58 1.11,8.29 0.16,9.23 c -6.62,1.63 -5.36,-1.02 -5.58,-6.03 c -0.55,-1.86 -0.84,-3.76 -0.85,-5.7 Z M 151.16,49 c 0.24,-1.25 -0.49,-5.05 0.54,-5.77 c 4.95,-1.88 10.56,-0.92 15.75,-1.15 c 1.9,0.52 0.72,5.71 1.02,7.23 c 0.43,1.69 2.68,8.11 -0.94,7.74 c -3.62,0 -7.25,0.06 -10.87,0.17 c -1.28,0.52 -2.6,0.72 -3.95,0.6 c -0.15,-0.17 -0.3,-0.35 -0.44,-0.52 c 0.07,-2.83 -0.3,-5.6 -1.11,-8.3 Z M 93.98,49 c 0.13,-1.1 -0.41,-2.11 0.65,-2.86 c 3.9,-0.15 7.81,-0.25 11.72,-0.31 c 1.31,-0.5 2.64,-0.74 4.02,-0.72 c 1.3,0.65 0.5,4 0.85,5.22 c 0.74,2.98 0.96,6 0.68,9.06 c -0.98,1.05 -4.08,0.94 -5.54,1.47 c -3.59,0.12 -7.17,0.13 -10.74,0.03 c -1.22,-0.65 -0.44,-4.96 -0.79,-6.24 c -0.54,-1.84 -0.82,-3.73 -0.85,-5.65 Z M 128.46,50.49 c 5.13,-5.73 8.27,6.27 5.9,8.37 c -8.08,1.59 -3.85,-3.24 -5.9,-8.37 Z M 74.05,138.94 c -1.5,1.56 -9.13,1.59 -10.27,0.18 c 0.44,-1.49 0.88,-2.98 1.33,-4.47 c 1.78,-1.56 3.53,-3.16 5.24,-4.8 c 0.31,-1.3 0.72,-2.56 1.23,-3.77 c 1.6,-1.39 3.2,-2.77 4.83,-4.14 c 1.01,-3.45 2.09,-4.89 4.82,-7.13 c 0.42,-1.26 0.87,-2.5 1.34,-3.73 c 3.48,-1.18 4.17,-3.31 6.84,-5.19 c 1.15,-1.64 0.8,-2.96 2.71,-4.23 c 2.2,-1.09 4.29,-2.37 6.27,-3.82 c 0.56,-0.93 0.87,-1.95 0.94,-3.07 c 1.35,-2.27 4.33,-3.64 5.79,-6.09 c 3.23,-1.02 6.58,-5.44 8.84,-8.08 c 2.35,-1.56 3.42,0.67 4.43,-2.62 c 3.85,-2.14 5.3,-6.17 9.89,-7.14 c 6.74,-8.11 10.46,-7.99 21.07,-7.7 c 1.03,1.53 -2.34,2.09 -3.17,2.63 c -1.61,2.79 -4.88,3.02 -6.28,5.58 c -7.33,3.92 -18.3,13.44 -24.6,19.47 c -5.35,3.69 -8.18,8.81 -13.7,12.29 c -1.27,3.87 -3.34,4.22 -5.82,7.18 c -1.54,2.9 0.25,3.27 -3.69,4.41 c -3.19,2.53 -4.36,3.05 -5.62,7.28 c -2.44,2.3 -5.45,3.52 -5.62,7.33 c -2.68,2.09 -3.58,3.78 -5.07,6.92 c -0.92,0.83 -2.05,1.21 -1.73,2.71 Z M 22.1,138.93 c 0.05,0.44 -0.14,0.74 -0.56,0.9 c -3.35,0.12 -6.7,0.18 -10.06,0.17 c -0.57,0.05 -1.02,-0.16 -1.35,-0.63 c -0.07,-3.42 -0.76,-14.88 0.79,-17.37 c -0.11,-1.06 0.1,-2.04 0.65,-2.93 c 3.63,-2.71 7.45,-3.32 9.01,-7.99 c 2.56,-1.78 5.14,-3.51 7.75,-5.19 c 0.45,-1.18 1.03,-2.29 1.73,-3.32 c 6.31,-2.75 12.92,-8.75 17.63,-13.42 c 2.87,-0.31 3.24,-0.94 5.05,-2.9 c 10.73,-6.24 22.29,-13.69 33.41,-18.59 c 0.45,-0.57 0.94,-1.09 1.47,-1.58 c 1.4,-0.13 2.74,0.12 4.03,0.73 c 3.74,-1.05 7,-0.73 10.88,-0.85 c 1.26,-0.1 2.08,1.23 0.85,1.88 c -1.9,0.38 -3.79,0.82 -5.67,1.31 c -1.44,2.43 -3.99,2.75 -6.5,3.56 c -2.43,3.77 -7.78,3.34 -11.45,5.57 c -1.34,1.56 -3.03,2.51 -5.07,2.86 c -0.58,0.76 -1.16,1.52 -1.74,2.3 c -2.48,0.8 -4.91,1.73 -7.28,2.78 c -1.52,2.21 -2.24,2.84 -5,2.94 c -0.65,0.98 -1.4,1.88 -2.25,2.69 c -1.22,0.83 -2.46,1.61 -3.73,2.35 c -3.78,4.98 -8.12,5.6 -12.99,8.92 c -0.34,1.01 -0.71,2 -1.11,2.99 c -2.95,1.17 -5.58,2.84 -7.88,5.01 c -0.93,3.94 -5.6,5.27 -8.57,7.54 c -1.83,3.74 -3.01,4.37 -6.22,6.89 c -0.89,0.39 -1.78,0.77 -2.65,1.17 c -0.24,2.66 -1.56,4.55 -3.96,5.68 c 1,0.56 1.89,1.28 2.65,2.16 c 2.07,2.55 0.76,2.32 4.42,2.55 c 1.33,1.74 1.22,2.11 3.72,1.82 Z M 188.91,131 c 0.48,-0.08 0.83,0.11 1.03,0.55 c 0.08,2.32 0.1,4.64 0.08,6.97 c 0.03,0.58 -0.18,1.03 -0.65,1.34 c -3.31,0.12 -6.62,0.17 -9.94,0.15 c -0.85,0.1 -1.32,-0.24 -1.4,-1.03 c 2.42,0.22 2.29,-0.2 3.59,-1.87 c 3.57,-0.25 2.4,0.09 4.41,-2.53 c 0.95,-1.39 3.28,-1.47 2.88,-3.58 Z"/></g>
</svg>
