<?xml version="1.0" encoding="UTF-8"?>
<!DOCTYPE svg PUBLIC "-//W3C//DTD SVG 1.1//EN" "http://www.w3.org/Graphics/SVG/1.1/DTD/svg11.dtd">
<svg xmlns="http://www.w3.org/2000/svg" version="1.1" width="200px" height="200px" style="shape-rendering:geometricPrecision; text-rendering:geometricPrecision; image-rendering:optimizeQuality; fill-rule:evenodd; clip-rule:evenodd" xmlns:xlink="http://www.w3.org/1999/xlink">
<rect x="0" y="0" width="200" height="200" fill="#7f7f7f"/>
<g><path fill="#222222" stroke="#222222" stroke-width="0.5" d="M 11.03,0 c 59.31,0 118.63,0 177.94,0 c 0.88,0.68 1.85,1.22 2.94,1.62 c 3.99,2.36 5.82,5.75 8.09,9.42 c 0,59.3 0,118.61 0,177.92 c -0.33,0.12 -0.57,0.34 -0.72,0.67 c -1.95,5.03 -5.52,8.28 -10.7,9.75 c -0.29,0.13 -0.5,0.33 -0.62,0.62 c -58.64,0 -117.29,0 -175.93,0 c -0.11,-0.33 -0.32,-0.57 -0.66,-0.7 c -7.24,-2.06 -8,-5.06 -11.37,-10.34 c 0,-59.31 0,-118.62 0,-177.93 c 1.29,-2.45 2.88,-4.73 4.76,-6.83 c 1.91,-1.73 4,-3.13 6.27,-4.2 Z M 10,137 c 0.05,1.16 -0.38,3.19 1.49,2.98 c 59.3,0.05 118.59,0.01 177.88,-0.13 c 0.46,-0.32 0.66,-0.77 0.61,-1.34 c 0.07,-40.29 0.01,-80.58 -0.18,-120.86 c -0.79,-3.82 -4.39,-7.44 -8.41,-7.5 c -54.58,-0.2 -109.16,-0.19 -163.74,0.05 c -3.82,0.79 -7.44,4.39 -7.5,8.41 c -0.14,39.46 -0.19,78.93 -0.15,118.39 Z M 58.55,160 c -0.33,1.9 0.51,4.23 2.72,2.44 c 0.14,-2.58 0.23,-5.16 0.25,-7.76 c 0.03,-0.41 0.21,-0.74 0.54,-0.98 c 2.7,-0.28 5.41,-0.36 8.13,-0.24 c 0.46,0.2 0.71,0.55 0.76,1.06 c 0.05,2.62 0.12,5.23 0.22,7.84 c 0.89,0.89 1.77,0.89 2.66,0 c 0.12,-5.95 0.17,-11.91 0.14,-17.87 c -0.18,-1.39 -0.95,-1.84 -2.31,-1.36 c -1.88,1.63 1.04,8.16 -2.13,7.85 c -2.59,0.04 -5.17,-0.07 -7.73,-0.31 c -0.29,-2.35 -0.48,-4.72 -0.56,-7.12 c -0.81,-0.59 -1.62,-0.58 -2.42,0.03 c -0.26,5.46 -0.35,10.93 -0.27,16.42 Z M 77.16,151 c 0.37,3.95 -1.46,10.25 3.44,11.9 c 1.74,0.28 3.42,0.08 5.03,-0.61 c 1.18,0.33 3.4,1.56 3.34,-0.78 c 0.03,-4.29 -0.02,-8.58 -0.14,-12.87 c -0.87,-0.86 -1.73,-0.84 -2.56,0.06 c -0.52,2.07 0.7,9.91 -1.07,11.06 c -2.25,1.75 -3.94,1.33 -5.08,-1.27 c -0.12,-3.28 -0.22,-6.57 -0.29,-9.85 c -2.02,-1.95 -3.06,0.4 -2.67,2.36 Z M 92.03,151 c 0.02,3.5 0.02,7.01 0,10.51 c -0.16,1.69 1.89,2.05 2.8,0.85 c 0.12,-2.96 0.17,-5.91 0.16,-8.88 c 0.13,-3.16 4.89,-5.22 5.13,-1.01 c 0.05,3 0.07,6.01 0.04,9.01 c -0.21,1.61 1.83,2.16 2.76,0.95 c 0.19,-2.25 -1.09,-15.66 4.85,-11.65 c 2.26,2.59 0.72,8.49 1.29,11.74 c 0.71,0.69 1.42,0.68 2.15,-0.02 c 0.26,-3.33 0.31,-6.66 0.15,-10.01 c -0.28,-3.67 -2.23,-5.13 -5.85,-4.39 c -0.99,0.45 -1.98,0.85 -2.98,1.2 c -2.19,-1.51 -4.53,-1.75 -7.03,-0.73 c -2.6,-0.85 -3.88,-0.87 -3.47,2.43 Z M 113.51,159 c 0.81,5.03 5.35,4.63 9.11,3.12 c 1.31,0.09 2.24,1.34 3.63,0.69 c -0.24,-3.72 -0.35,-7.49 -0.34,-11.3 c -1.18,-5.27 -10.36,-4.68 -11.67,0.14 c 0.14,1.21 0.82,1.6 2.04,1.15 c 0.6,-0.69 1.19,-1.4 1.76,-2.13 c 3.44,-1.94 7.38,1.92 3.64,3.54 c -3.41,1 -7.35,0.31 -8.17,4.79 Z M 129.16,151 c 0.01,3.49 0.01,6.99 0,10.48 c -0.21,1.62 1.86,2.15 2.81,1.01 c -0.09,-3.3 0.03,-6.58 0.38,-9.84 c 1,-2.96 5.27,-3.68 5.75,-0.18 c 0.04,3.28 0.09,6.55 0.16,9.83 c 0.87,0.92 1.78,0.98 2.75,0.18 c -0.38,-3.07 1.12,-11.46 -1.46,-13.48 c -2.08,-1.29 -4.25,-1.41 -6.49,-0.36 c -1.09,-0.38 -2.2,-0.53 -3.35,-0.46 c -0.55,0.85 -0.74,1.79 -0.55,2.82 Z M 116.6,159 c 0.32,-0.98 0.97,-1.61 1.96,-1.89 c 1.55,-0.21 5.99,-1.22 4.06,2.04 c -1.67,1.96 -4.86,2.84 -6.02,-0.15 Z M 11.91,192.99 c 4.23,-0.01 8.46,0.01 12.7,0.06 c 2.4,0.05 2.26,-2.26 -0.02,-2.5 c -1.96,-0.23 -7.91,0.47 -9.35,-0.33 c -0.47,-1.54 -0.57,-3.11 -0.3,-4.71 c 0.38,-2.72 8.81,0.52 10.3,-2.04 c 1.29,-3.53 -10.48,0.57 -10.41,-2.92 c 0.17,-1.38 -0.8,-5.56 1.75,-5.13 c 2.66,0.04 5.33,0.03 7.99,-0.05 c 1.18,-0.1 1.99,-1.5 0.81,-2.2 c -3.98,-0.16 -7.96,-0.23 -11.94,-0.2 c -0.59,-0.12 -1.05,0.06 -1.39,0.54 c 0.04,6.49 -0.01,12.99 -0.14,19.48 Z M 84.11,179 c 0.51,0.6 1.07,1.14 1.71,1.64 c 1.24,3.43 -2.36,14.21 4.69,12.24 c 1.82,-1.11 -0.66,-2.01 -1.36,-2.56 c -0.54,-1.67 -0.57,-8 -0.09,-9.7 c 2.65,-1.4 2.82,-1.82 0,-3.24 c -0.2,-1.2 -0.34,-2.41 -0.4,-3.62 c -2.32,-1.33 -2.71,2.09 -2.85,3.6 c -0.63,0.5 -1.19,1.05 -1.7,1.64 Z M 92.97,175.01 c -0.13,1.28 1.57,1.17 2.32,0.8 c 0.78,-0.87 0.78,-1.74 0,-2.62 c -1.72,-0.61 -2.49,0 -2.32,1.82 Z M 143.96,193.02 c 0.36,0 0.72,0 1.08,0 c 0.37,-0.08 0.63,-0.3 0.78,-0.65 c 0.17,-5.63 0.23,-11.25 0.19,-16.89 c 0.19,-1.07 -0.13,-1.9 -0.97,-2.49 c -0.36,0 -0.72,0 -1.08,-0.01 c -0.65,0.27 -0.97,0.77 -0.96,1.5 c -0.06,5.97 0,11.93 0.18,17.89 c 0.15,0.35 0.41,0.57 0.78,0.65 Z M 149.17,174.07 c -0.08,1.59 0.67,2.24 2.26,1.94 c 2.3,-2.37 -1.06,-4.62 -2.26,-1.94 Z M 28.16,192.82 c 4.35,1.31 4.01,-4.72 6.29,-4.45 c 1.19,1.37 2.28,2.84 3.27,4.39 c 0.53,0.28 3.77,0.57 2.6,-0.81 c -1.5,-2.12 -2.86,-4.32 -4.1,-6.59 c -0.41,-2.06 5.04,-6.15 3.19,-7.27 c -0.86,-0.18 -1.66,-0.03 -2.38,0.47 c -0.84,0.76 -2.31,4.91 -3.81,2.72 c -1.14,-1.86 -1.76,-4.12 -4.5,-3.09 c -1.16,0.91 3.78,5.22 3.33,7.28 c -1.36,2.41 -2.66,4.86 -3.89,7.35 Z M 41.97,186 c -0.36,7.61 9.23,9.91 11.88,3.32 c 0.55,-1.91 -0.09,-2.55 -1.93,-1.93 c -0.48,0.87 -0.98,1.73 -1.5,2.59 c -7.16,4.58 -8.02,-12.33 -0.4,-9.41 c 0.6,0.71 1.19,1.43 1.76,2.16 c 1.69,0.51 2.34,-0.09 1.93,-1.79 c -3.69,-6.16 -12.51,-2.9 -11.74,5.06 Z M 55.03,188.02 c 1.66,5.43 8.61,6.91 12.36,2.94 c 0.64,-1.7 0.06,-2.27 -1.74,-1.73 c -3.05,2.8 -7.33,1.85 -7.53,-2.59 c 1.39,-1.8 7.99,0.43 10.03,-1.16 c 1.27,-9.3 -14.04,-12.12 -13.12,2.54 Z M 70.55,181 c -0.05,5.49 0.01,10.96 0.19,16.43 c 0.83,0.6 1.65,0.6 2.48,0 c 0.2,-1.67 0.32,-3.33 0.36,-4.98 c 12.82,5.02 12.33,-19.24 0.49,-13.76 c -2.51,-0.83 -3.85,-1.1 -3.52,2.31 Z M 92.96,191.09 c -0.64,2.43 2.76,2.87 2.88,0.39 c -0.73,-1.63 1.96,-17.03 -2.77,-13 c -0.07,4.2 -0.11,8.41 -0.11,12.61 Z M 98.03,186 c -0.24,9.31 13.29,10.07 13.41,-0.5 c 0.67,-9.37 -13.68,-11.31 -13.41,0.5 Z M 113.55,185 c 0.01,2.2 0.01,4.39 -0.01,6.59 c 0.46,1.56 1.35,1.84 2.69,0.85 c 0.94,-3.03 -1.86,-14.38 4.87,-11.97 c 0.79,0.54 1.24,1.29 1.37,2.23 c 0.01,3.27 0.12,6.53 0.31,9.77 c 0.81,0.66 1.63,0.65 2.44,0 c 0.28,-3.3 0.3,-6.6 0.06,-9.92 c -0.14,-4.53 -4.47,-5.61 -8,-3.82 c -0.94,-0.18 -1.89,-0.41 -2.83,-0.67 c -0.21,0.14 -0.43,0.29 -0.64,0.43 c -0.26,2.15 -0.34,4.32 -0.26,6.51 Z M 128.02,188.93 c -0.12,5.54 6.12,4.12 9.33,3.23 c 1.21,0.43 2.3,1.61 3.35,0.19 c -0.89,-3.68 1.01,-11.76 -2.6,-13.86 c -3.32,-1.1 -7.67,-1.04 -9.37,2.56 c -0.58,1.52 -0.05,2.12 1.59,1.79 c 0.8,-0.92 1.66,-1.77 2.61,-2.55 c 2.61,-0.65 4.14,0.33 4.6,2.94 c -1.53,2.48 -9.25,0.06 -9.51,5.7 Z M 149.16,181 c 0.32,2.05 -0.62,10.68 0.55,11.81 c 3.74,1.8 2.28,-11.82 2.26,-14.31 c -2.07,-1.81 -3.25,0.5 -2.81,2.5 Z M 154.28,189.01 c 2.03,6.84 14.41,4.86 11.09,-2.97 c -2.65,-1.34 -5.33,-2.6 -8.03,-3.76 c -0.12,-0.45 -0.03,-0.85 0.26,-1.21 c 1.9,-1.44 3.67,-1.29 5.32,0.46 c 1.26,0.79 2,0.48 2.22,-0.94 c -1.81,-4.97 -13.98,-3.08 -9.43,4.27 c 2.34,1.02 4.68,2 7.04,2.94 c 1.36,2.78 -2.53,4 -4.47,2.54 c -1.11,-1.02 -1.62,-3.02 -3.56,-2.09 c -0.32,0.16 -0.47,0.41 -0.44,0.76 Z M 168.55,190 c -0.3,1.85 0.43,4.22 2.68,2.47 c 0.08,-3.38 0.28,-6.76 0.6,-10.12 c 0.98,-2.95 4.41,-3.15 5.05,0.11 c 0.19,3.34 0.22,6.68 0.1,10.02 c 1.06,1.13 2.89,0.76 2.86,-1 c 0.53,-2.88 -1.52,-9.99 2.11,-11.2 c 5.87,-1.24 1.67,10.13 3.76,12.53 c 1.34,0.53 2.1,0.09 2.26,-1.3 c -0.51,-3.67 1.37,-10.42 -1.91,-12.97 c -2.33,-0.97 -4.53,-0.72 -6.6,0.75 c -0.97,-0.42 -1.96,-0.83 -2.97,-1.24 c -1.8,-0.55 -3.2,0.47 -4.86,0.7 c -1.04,-0.58 -3.03,-1.36 -3.08,0.65 c 0.01,3.53 0.01,7.07 0,10.6 Z M 58.13,182.99 c 1.19,-3.39 5.58,-4.1 6.92,-0.42 c 0.24,2.28 -6.89,1.83 -6.92,0.42 Z M 72.98,184.94 c 0.62,-3.77 3.32,-6.87 6.57,-3.05 c 1.5,3.18 0.66,10.94 -4.49,8.4 c -1.61,-1.41 -2.31,-3.19 -2.08,-5.35 Z M 100.87,186 c -0.31,-2.22 0.39,-4 2.13,-5.34 c 5.27,-2.6 6.64,5.07 4.7,8.55 c -3.19,3.54 -6.83,0.96 -6.83,-3.21 Z M 130.83,189 c 0.46,-2.57 6.4,-2.73 6.78,-1.52 c -0.8,3.17 -5.43,5.22 -6.78,1.52 Z"/></g>
<g><path fill="#f8f8f8" d="M 0,0 c 3.68,0 7.35,0 11.03,0 c -2.27,1.07 -4.36,2.47 -6.27,4.2 c -1.88,2.1 -3.47,4.38 -4.76,6.83 c 0,-3.67 0,-7.35 0,-11.03 Z M 188.97,0 c 3.68,0 7.35,0 11.03,0 c 0,3.68 0,7.36 0,11.04 c -2.27,-3.67 -4.1,-7.06 -8.09,-9.42 c -1.09,-0.4 -2.06,-0.94 -2.94,-1.62 Z M 58.55,160 c -0.08,-5.49 0.01,-10.96 0.27,-16.42 c 0.8,-0.61 1.61,-0.62 2.42,-0.03 c 0.08,2.4 0.27,4.77 0.56,7.12 c 2.56,0.24 5.14,0.35 7.73,0.31 c 3.17,0.31 0.25,-6.22 2.13,-7.85 c 1.36,-0.48 2.13,-0.03 2.31,1.36 c 0.03,5.96 -0.02,11.92 -0.14,17.87 c -0.89,0.89 -1.77,0.89 -2.66,0 c -0.1,-2.61 -0.17,-5.22 -0.22,-7.84 c -0.05,-0.51 -0.3,-0.86 -0.76,-1.06 c -2.72,-0.12 -5.43,-0.04 -8.13,0.24 c -0.33,0.24 -0.51,0.57 -0.54,0.98 c -0.02,2.6 -0.11,5.18 -0.25,7.76 c -2.21,1.79 -3.05,-0.54 -2.72,-2.44 Z M 77.16,151 c -0.39,-1.96 0.65,-4.31 2.67,-2.36 c 0.07,3.28 0.17,6.57 0.29,9.85 c 1.14,2.6 2.83,3.02 5.08,1.27 c 1.77,-1.15 0.55,-8.99 1.07,-11.06 c 0.83,-0.9 1.69,-0.92 2.56,-0.06 c 0.12,4.29 0.17,8.58 0.14,12.87 c 0.06,2.34 -2.16,1.11 -3.34,0.78 c -1.61,0.69 -3.29,0.89 -5.03,0.61 c -4.9,-1.65 -3.07,-7.95 -3.44,-11.9 Z M 92.03,151 c -0.41,-3.3 0.87,-3.28 3.47,-2.43 c 2.5,-1.02 4.84,-0.78 7.03,0.73 c 1,-0.35 1.99,-0.75 2.98,-1.2 c 3.62,-0.74 5.57,0.72 5.85,4.39 c 0.16,3.35 0.11,6.68 -0.15,10.01 c -0.73,0.7 -1.44,0.71 -2.15,0.02 c -0.57,-3.25 0.97,-9.15 -1.29,-11.74 c -5.94,-4.01 -4.66,9.4 -4.85,11.65 c -0.93,1.21 -2.97,0.66 -2.76,-0.95 c 0.03,-3 0.01,-6.01 -0.04,-9.01 c -0.24,-4.21 -5,-2.15 -5.13,1.01 c 0.01,2.97 -0.04,5.92 -0.16,8.88 c -0.91,1.2 -2.96,0.84 -2.8,-0.85 c 0.02,-3.5 0.02,-7.01 0,-10.51 Z M 113.51,159 c 0.82,-4.48 4.76,-3.79 8.17,-4.79 c 3.74,-1.62 -0.2,-5.48 -3.64,-3.54 c -0.57,0.73 -1.16,1.44 -1.76,2.13 c -1.22,0.45 -1.9,0.06 -2.04,-1.15 c 1.31,-4.82 10.49,-5.41 11.67,-0.14 c -0.01,3.81 0.1,7.58 0.34,11.3 c -1.39,0.65 -2.32,-0.6 -3.63,-0.69 c -3.76,1.51 -8.3,1.91 -9.11,-3.12 Z M 129.16,151 c -0.19,-1.03 0,-1.97 0.55,-2.82 c 1.15,-0.07 2.26,0.08 3.35,0.46 c 2.24,-1.05 4.41,-0.93 6.49,0.36 c 2.58,2.02 1.08,10.41 1.46,13.48 c -0.97,0.8 -1.88,0.74 -2.75,-0.18 c -0.07,-3.28 -0.12,-6.55 -0.16,-9.83 c -0.48,-3.5 -4.75,-2.78 -5.75,0.18 c -0.35,3.26 -0.47,6.54 -0.38,9.84 c -0.95,1.14 -3.02,0.61 -2.81,-1.01 c 0.01,-3.49 0.01,-6.99 0,-10.48 Z M 116.6,159 c 1.16,2.99 4.35,2.11 6.02,0.15 c 1.93,-3.26 -2.51,-2.25 -4.06,-2.04 c -0.99,0.28 -1.64,0.91 -1.96,1.89 Z M 11.91,192.99 c 0.13,-6.49 0.18,-12.99 0.14,-19.48 c 0.34,-0.48 0.8,-0.66 1.39,-0.54 c 3.98,-0.03 7.96,0.04 11.94,0.2 c 1.18,0.7 0.37,2.1 -0.81,2.2 c -2.66,0.08 -5.33,0.09 -7.99,0.05 c -2.55,-0.43 -1.58,3.75 -1.75,5.13 c -0.07,3.49 11.7,-0.61 10.41,2.92 c -1.49,2.56 -9.92,-0.68 -10.3,2.04 c -0.27,1.6 -0.17,3.17 0.3,4.71 c 1.44,0.8 7.39,0.1 9.35,0.33 c 2.28,0.24 2.42,2.55 0.02,2.5 c -4.24,-0.05 -8.47,-0.07 -12.7,-0.06 Z M 84.11,179 c 0.51,-0.59 1.07,-1.14 1.7,-1.64 c 0.14,-1.51 0.53,-4.93 2.85,-3.6 c 0.06,1.21 0.2,2.42 0.4,3.62 c 2.82,1.42 2.65,1.84 0,3.24 c -0.48,1.7 -0.45,8.03 0.09,9.7 c 0.7,0.55 3.18,1.45 1.36,2.56 c -7.05,1.97 -3.45,-8.81 -4.69,-12.24 c -0.64,-0.5 -1.2,-1.04 -1.71,-1.64 Z M 92.97,175.01 c -0.17,-1.82 0.6,-2.43 2.32,-1.82 c 0.78,0.88 0.78,1.75 0,2.62 c -0.75,0.37 -2.45,0.48 -2.32,-0.8 Z M 143.96,172.98 c 0.36,0.01 0.72,0.01 1.08,0.01 c 0.18,3.49 0.3,6.99 0.35,10.5 c 0.03,3.19 -0.09,6.36 -0.35,9.53 c -0.36,0 -0.72,0 -1.08,0 c -0.13,-6.68 -0.13,-13.36 0,-20.04 Z M 149.17,174.07 c 1.2,-2.68 4.56,-0.43 2.26,1.94 c -1.59,0.3 -2.34,-0.35 -2.26,-1.94 Z M 28.16,192.82 c 1.23,-2.49 2.53,-4.94 3.89,-7.35 c 0.45,-2.06 -4.49,-6.37 -3.33,-7.28 c 2.74,-1.03 3.36,1.23 4.5,3.09 c 1.5,2.19 2.97,-1.96 3.81,-2.72 c 0.72,-0.5 1.52,-0.65 2.38,-0.47 c 1.85,1.12 -3.6,5.21 -3.19,7.27 c 1.24,2.27 2.6,4.47 4.1,6.59 c 1.17,1.38 -2.07,1.09 -2.6,0.81 c -0.99,-1.55 -2.08,-3.02 -3.27,-4.39 c -2.28,-0.27 -1.94,5.76 -6.29,4.45 Z M 41.97,186 c -0.77,-7.96 8.05,-11.22 11.74,-5.06 c 0.41,1.7 -0.24,2.3 -1.93,1.79 c -0.57,-0.73 -1.16,-1.45 -1.76,-2.16 c -7.62,-2.92 -6.76,13.99 0.4,9.41 c 0.52,-0.86 1.02,-1.72 1.5,-2.59 c 1.84,-0.62 2.48,0.02 1.93,1.93 c -2.65,6.59 -12.24,4.29 -11.88,-3.32 Z M 55.03,188.02 c -0.92,-14.66 14.39,-11.84 13.12,-2.54 c -2.04,1.59 -8.64,-0.64 -10.03,1.16 c 0.2,4.44 4.48,5.39 7.53,2.59 c 1.8,-0.54 2.38,0.03 1.74,1.73 c -3.75,3.97 -10.7,2.49 -12.36,-2.94 Z M 70.55,181 c -0.33,-3.41 1.01,-3.14 3.52,-2.31 c 11.84,-5.48 12.33,18.78 -0.49,13.76 c -0.04,1.65 -0.16,3.31 -0.36,4.98 c -0.83,0.6 -1.65,0.6 -2.48,0 c -0.18,-5.47 -0.24,-10.94 -0.19,-16.43 Z M 92.96,191.09 c 0,-4.2 0.04,-8.41 0.11,-12.61 c 4.73,-4.03 2.04,11.37 2.77,13 c -0.12,2.48 -3.52,2.04 -2.88,-0.39 Z M 98.03,186 c -0.27,-11.81 14.08,-9.87 13.41,-0.5 c -0.12,10.57 -13.65,9.81 -13.41,0.5 Z M 113.55,185 c -0.08,-2.19 0,-4.36 0.26,-6.51 c 0.21,-0.14 0.43,-0.29 0.64,-0.43 c 0.94,0.26 1.89,0.49 2.83,0.67 c 3.53,-1.79 7.86,-0.71 8,3.82 c 0.24,3.32 0.22,6.62 -0.06,9.92 c -0.81,0.65 -1.63,0.66 -2.44,0 c -0.19,-3.24 -0.3,-6.5 -0.31,-9.77 c -0.13,-0.94 -0.58,-1.69 -1.37,-2.23 c -6.73,-2.41 -3.93,8.94 -4.87,11.97 c -1.34,0.99 -2.23,0.71 -2.69,-0.85 c 0.02,-2.2 0.02,-4.39 0.01,-6.59 Z M 128.02,188.93 c 0.26,-5.64 7.98,-3.22 9.51,-5.7 c -0.46,-2.61 -1.99,-3.59 -4.6,-2.94 c -0.95,0.78 -1.81,1.63 -2.61,2.55 c -1.64,0.33 -2.17,-0.27 -1.59,-1.79 c 1.7,-3.6 6.05,-3.66 9.37,-2.56 c 3.61,2.1 1.71,10.18 2.6,13.86 c -1.05,1.42 -2.14,0.24 -3.35,-0.19 c -3.21,0.89 -9.45,2.31 -9.33,-3.23 Z M 149.16,181 c -0.44,-2 0.74,-4.31 2.81,-2.5 c 0.02,2.49 1.48,16.11 -2.26,14.31 c -1.17,-1.13 -0.23,-9.76 -0.55,-11.81 Z M 154.28,189.01 c -0.03,-0.35 0.12,-0.6 0.44,-0.76 c 1.94,-0.93 2.45,1.07 3.56,2.09 c 1.94,1.46 5.83,0.24 4.47,-2.54 c -2.36,-0.94 -4.7,-1.92 -7.04,-2.94 c -4.55,-7.35 7.62,-9.24 9.43,-4.27 c -0.22,1.42 -0.96,1.73 -2.22,0.94 c -1.65,-1.75 -3.42,-1.9 -5.32,-0.46 c -0.29,0.36 -0.38,0.76 -0.26,1.21 c 2.7,1.16 5.38,2.42 8.03,3.76 c 3.32,7.83 -9.06,9.81 -11.09,2.97 Z M 168.55,190 c 0.01,-3.53 0.01,-7.07 0,-10.6 c 0.05,-2.01 2.04,-1.23 3.08,-0.65 c 1.66,-0.23 3.06,-1.25 4.86,-0.7 c 1.01,0.41 2,0.82 2.97,1.24 c 2.07,-1.47 4.27,-1.72 6.6,-0.75 c 3.28,2.55 1.4,9.3 1.91,12.97 c -0.16,1.39 -0.92,1.83 -2.26,1.3 c -2.09,-2.4 2.11,-13.77 -3.76,-12.53 c -3.63,1.21 -1.58,8.32 -2.11,11.2 c 0.03,1.76 -1.8,2.13 -2.86,1 c 0.12,-3.34 0.09,-6.68 -0.1,-10.02 c -0.64,-3.26 -4.07,-3.06 -5.05,-0.11 c -0.32,3.36 -0.52,6.74 -0.6,10.12 c -2.25,1.75 -2.98,-0.62 -2.68,-2.47 Z M 58.13,182.99 c 0.03,1.41 7.16,1.86 6.92,-0.42 c -1.34,-3.68 -5.73,-2.97 -6.92,0.42 Z M 72.98,184.94 c -0.23,2.16 0.47,3.94 2.08,5.35 c 5.15,2.54 5.99,-5.22 4.49,-8.4 c -3.25,-3.82 -5.95,-0.72 -6.57,3.05 Z M 100.87,186 c 0,4.17 3.64,6.75 6.83,3.21 c 1.94,-3.48 0.57,-11.15 -4.7,-8.55 c -1.74,1.34 -2.44,3.12 -2.13,5.34 Z M 130.83,189 c 1.35,3.7 5.98,1.65 6.78,-1.52 c -0.38,-1.21 -6.32,-1.05 -6.78,1.52 Z M 0,188.96 c 3.37,5.28 4.13,8.28 11.37,10.34 c 0.34,0.13 0.55,0.37 0.66,0.7 c -4.01,0 -8.02,0 -12.03,0 c 0,-3.68 0,-7.36 0,-11.04 Z M 200,188.96 c 0,3.68 0,7.36 0,11.04 c -4.01,0 -8.03,0 -12.04,0 c 0.12,-0.29 0.33,-0.49 0.62,-0.62 c 5.18,-1.47 8.75,-4.72 10.7,-9.75 c 0.15,-0.33 0.39,-0.55 0.72,-0.67 Z"/></g>
<g><path fill="#bbbbbb" d="M 143.96,172.98 c -0.13,6.68 -0.13,13.36 0,20.04 c -0.37,-0.08 -0.63,-0.3 -0.78,-0.65 c -0.18,-5.96 -0.24,-11.92 -0.18,-17.89 c -0.01,-0.73 0.31,-1.23 0.96,-1.5 Z"/></g>
<g><path fill="#dfdfdf" d="M 145.04,172.99 c 0.84,0.59 1.16,1.42 0.97,2.49 c 0.04,5.64 -0.02,11.26 -0.19,16.89 c -0.15,0.35 -0.41,0.57 -0.78,0.65 c 0.26,-3.17 0.38,-6.34 0.35,-9.53 c -0.05,-3.51 -0.17,-7.01 -0.35,-10.5 Z"/></g>
<g><path fill="#7f7f7f" stroke="#7f7f7f" stroke-width="0.5" d="M 10,137 c -0.04,-39.46 0.01,-78.93 0.15,-118.39 c 0.06,-4.02 3.68,-7.62 7.5,-8.41 c 54.58,-0.24 109.16,-0.25 163.74,-0.05 c 4.02,0.06 7.62,3.68 8.41,7.5 c 0.19,40.28 0.25,80.57 0.18,120.86 c 0.05,0.57 -0.15,1.02 -0.61,1.34 c -59.29,0.14 -118.58,0.18 -177.88,0.13 c -1.87,0.21 -1.44,-1.82 -1.49,-2.98 Z M 65.12,69 c 0.55,16.74 -1.73,28.42 8.78,42.63 c 1.01,5.4 -1.78,14.88 5.76,16.17 c 9.6,0.38 19.2,0.41 28.8,0.09 c 3,-0.31 5.08,-1.84 6.23,-4.6 c 0.1,-3.83 0.34,-7.65 0.74,-11.44 c 5.99,-4.63 12.96,-10.44 17.01,-16.9 c 4.33,-6.12 1.45,-25.33 2.26,-33.28 c -0.53,-7.02 -10.94,-6.71 -11.4,0.01 c -0.07,5.57 -0.22,11.13 -0.43,16.68 c -1,1.27 -2.88,0.83 -3.13,-0.78 c -0.02,-15.3 -0.05,-30.61 -0.11,-45.91 c 0.34,-7.54 -8.83,-8.61 -11.09,-2.83 c -0.36,11.21 -0.52,22.44 -0.47,33.67 c -0.36,2.55 -3.62,1.8 -3.1,-1.04 c 0.03,-12.9 -0.07,-25.8 -0.29,-38.7 c -1.76,-5.66 -11,-5.14 -11.26,1.96 c -0.04,12.32 -0.06,24.65 -0.07,36.97 c 0.07,1.88 -0.86,4.15 -2.97,2.43 c -1.07,-1.9 -0.74,-31.43 -0.93,-36.29 c -2.5,-5.51 -10.76,-4.23 -11.11,1.85 c -0.04,11.93 -0.16,23.85 -0.37,35.76 c -0.99,1.4 -3.06,0.74 -2.89,-0.96 c 0.08,-7.58 -0.08,-15.15 -0.46,-22.72 c -2.24,-4 -7.97,-3.56 -9.17,1.05 c -0.21,8.72 -0.32,17.45 -0.33,26.18 Z"/></g>
<g><path fill="#000000" stroke="#000000" stroke-width="0.5" d="M 65.12,69 c 0.01,-8.73 0.12,-17.46 0.33,-26.18 c 1.2,-4.61 6.93,-5.05 9.17,-1.05 c 0.38,7.57 0.54,15.14 0.46,22.72 c -0.17,1.7 1.9,2.36 2.89,0.96 c 0.21,-11.91 0.33,-23.83 0.37,-35.76 c 0.35,-6.08 8.61,-7.36 11.11,-1.85 c 0.19,4.86 -0.14,34.39 0.93,36.29 c 2.11,1.72 3.04,-0.55 2.97,-2.43 c 0.01,-12.32 0.03,-24.65 0.07,-36.97 c 0.26,-7.1 9.5,-7.62 11.26,-1.96 c 0.22,12.9 0.32,25.8 0.29,38.7 c -0.52,2.84 2.74,3.59 3.1,1.04 c -0.05,-11.23 0.11,-22.46 0.47,-33.67 c 2.26,-5.78 11.43,-4.71 11.09,2.83 c 0.06,15.3 0.09,30.61 0.11,45.91 c 0.25,1.61 2.13,2.05 3.13,0.78 c 0.21,-5.55 0.36,-11.11 0.43,-16.68 c 0.46,-6.72 10.87,-7.03 11.4,-0.01 c -0.81,7.95 2.07,27.16 -2.26,33.28 c -4.05,6.46 -11.02,12.27 -17.01,16.9 c -0.4,3.79 -0.64,7.61 -0.74,11.44 c -1.15,2.76 -3.23,4.29 -6.23,4.6 c -9.6,0.32 -19.2,0.29 -28.8,-0.09 c -7.54,-1.29 -4.75,-10.77 -5.76,-16.17 c -10.51,-14.21 -8.23,-25.89 -8.78,-42.63 Z"/></g>
</svg>
