<?xml version="1.0" encoding="UTF-8"?>
<!DOCTYPE svg PUBLIC "-//W3C//DTD SVG 1.1//EN" "http://www.w3.org/Graphics/SVG/1.1/DTD/svg11.dtd">
<svg xmlns="http://www.w3.org/2000/svg" version="1.1" width="200px" height="200px" style="shape-rendering:geometricPrecision; text-rendering:geometricPrecision; image-rendering:optimizeQuality; fill-rule:evenodd; clip-rule:evenodd" xmlns:xlink="http://www.w3.org/1999/xlink">
<rect x="0" y="0" width="200" height="200" fill="#222222"/>
<g><path fill="#222222" stroke="#222222" stroke-width="0.5" d="M 14.04,0 c 57.31,0 114.62,0 171.93,0 c 0.12,0.29 0.34,0.48 0.64,0.59 c 6.14,-0.3 10.46,4.6 12.65,9.85 c 0.16,0.31 0.41,0.51 0.74,0.6 c 0,59.3 0,118.61 0,177.92 c -0.82,1.6 -1.79,3.15 -2.92,4.65 c -2.53,3.63 -5.99,5.55 -10.38,5.77 c -0.32,0.11 -0.57,0.32 -0.73,0.62 c -57.31,0 -114.62,0 -171.94,0 c -0.12,-0.3 -0.33,-0.5 -0.64,-0.61 c -4.44,-0.17 -7.93,-2.1 -10.48,-5.77 c -1.1,-1.5 -2.07,-3.06 -2.91,-4.66 c 0,-59.31 0,-118.61 0,-177.92 c 0.01,0 5.52,-7.98 8.84,-9.78 c 1.15,-0.92 4.71,0.01 5.2,-1.26 Z M 45.09,140.03 c 0.94,0 1.88,0.04 2.82,0.15 c 11.7,-0.2 23.4,-0.24 35.1,-0.11 c 1.47,0.02 2.92,-0.04 4.38,-0.19 c 1.71,-1.67 0.05,-2.62 -1.22,-3.55 c -0.1,-1.56 -0.2,-3.12 -0.31,-4.68 c -0.56,-0.45 -1.12,-0.89 -1.69,-1.32 c -0.87,-9.02 -5.98,-17.51 -0.98,-26.36 c 1.76,-1.73 1.53,-2.74 3.56,-0.29 c 2.62,0.27 2.53,-0.18 4,2.02 c 0.92,0.16 3.21,0.65 2.97,-0.97 c -1.11,-0.53 -1.95,-1.35 -2.52,-2.45 c -1.79,-0.4 -3.1,-1.4 -3.93,-3 c -1.06,-0.42 -2.16,-0.55 -3.29,-0.38 c 0.03,-2.04 -1.3,-1.77 -2.33,-3.01 c -0.65,-3.7 -2.56,-3.25 -5.53,-4.61 c -1.91,-1.74 -3.85,-3.42 -5.83,-5.03 c -0.94,0.09 -1.62,0.59 -2.04,1.5 c -1.09,0.18 -2.13,0.47 -3.13,0.89 c -1.8,3.51 -2.91,3.24 -6.7,3.18 c -2.75,0.35 -0.69,1.24 0.28,1.73 c -3.76,1.58 -3.24,6.21 -6.35,9.31 c -0.24,1.19 -0.37,2.4 -0.37,3.62 c -0.14,0.1 -0.29,0.2 -0.43,0.3 c -0.24,-0.94 -0.64,-1.78 -1.22,-2.54 c -2.01,-0.18 -1.26,3.92 -1.18,5.1 c 2.31,1.91 2.72,2.41 0.06,4.32 c -0.32,4.23 -0.44,8.46 -0.36,12.7 c -0.49,0.49 -1.02,0.94 -1.58,1.36 c 0.09,0.89 0.54,1.59 1.35,2.08 c 0.89,4.93 -1.71,4.66 -4.29,8.05 c -3.66,1.15 -3.55,-1.6 -4.55,-4.09 c -0.64,-0.92 -2.06,-0.74 -1.77,-2.12 c 2.78,-1.72 1.58,-1.19 1.18,-3.99 c 1.03,-4.03 1.14,-19.79 2.12,-24.87 c 0.22,-7.12 5.05,-12.14 5.85,-18.14 c 1.1,-0.56 2.19,-1.12 3.29,-1.7 c 0.86,-3.48 3.82,-4.87 4.82,-8.13 c 2.82,-2.87 5.62,-5.75 8.39,-8.64 c 5.96,0.11 20.74,-9.79 25.01,-14 c 14.19,-1.44 11.45,-9.53 8.58,-19.67 c 0.74,-1.54 0.45,-6.68 1.33,-7.4 c 5.53,-3.4 7.91,-4.16 13.69,-0.75 c 2.31,2 4.69,3.91 7.14,5.74 c 0.4,0.39 0.58,0.86 0.55,1.42 c 0,4.66 0.01,9.32 0.02,13.98 c -0.19,1.17 -2.47,2.91 -3.45,3.55 c -1.93,3.38 1.84,3.23 3.98,3.07 c 2.46,-0.31 2.4,-4.97 5.24,-2.31 c 10.14,3.24 9.29,3.3 14.9,12.08 c 2.66,2.53 17.36,15.77 17.24,18.54 c -3.18,9.96 -11.17,13.31 -19.05,18.93 c -0.64,0.74 -1.15,1.57 -1.51,2.48 c -1.87,0.11 -3.73,0.25 -5.59,0.43 c -1.26,0.26 -1.69,1.92 -3.06,1.49 c -3.38,-1.67 -6.31,-1.45 -9.89,-2.11 c -2.04,-0.58 -2.1,-1.22 -3.43,-2.51 c -2.3,-0.12 -4.55,-0.55 -6.73,-1.3 c -2.1,-2.01 1.13,-3.13 2.12,-4.55 c 6.93,-3.45 16.14,-1.63 23.68,-2.23 c 1.64,-0.25 3.66,-3.05 4.9,-4.15 c 2.17,-3.96 -5.96,-20.82 -9.7,-19.8 c -3.04,1.7 5.29,11.7 4.99,14.72 c 0.24,1.27 2.95,1.08 1.87,2.23 c -1.49,1.14 -2.86,2.39 -4.13,3.76 c -1.8,0.66 -1.31,-2.24 -1.64,-3.14 c -1.07,-2.36 -2.23,2.39 -2.76,2.81 c -0.22,0.12 -0.43,0.23 -0.65,0.35 c -7.23,-0.17 -28.43,-0.68 -22.19,12.6 c 1.62,0.75 3.32,1.38 5.07,1.87 c 0.47,0.54 0.95,1.06 1.45,1.56 c 3.26,0.6 6.46,1.39 9.61,2.39 c 1.09,0.57 0.7,2.1 0.5,3.03 c -1.01,1.25 -1.52,1.35 -1.91,3.04 c -1.17,0.52 -2.37,1 -3.59,1.44 c -1.14,1.21 -2.36,2.33 -3.66,3.34 c -0.35,0.95 -0.76,1.87 -1.23,2.74 c -1.28,0.54 -6.51,-0.23 -7.11,0.86 c -0.49,1.55 2.31,1.02 3.08,1.46 c 0.85,1.13 1.82,2.16 2.91,3.09 c 0.87,0.3 1.66,0.71 2.36,1.25 c -0.4,1.15 -0.83,2.28 -1.28,3.41 c -2.16,3.42 -4.02,5.07 -3.16,9.5 c 0.49,1.6 3.09,2.32 4.02,0.88 c 25.44,-0.29 50.88,-0.39 76.34,-0.28 c 0.57,0.04 1.02,-0.17 1.34,-0.64 c 0.15,-39.29 0.18,-78.58 0.12,-117.88 c -0.7,-1.55 -1.09,-3.18 -1.18,-4.88 c -4.03,-5.89 -4.62,-5.08 -11.28,-6.63 c -51.68,0.03 -103.36,0.03 -155.04,0 c -6.66,1.55 -7.25,0.74 -11.28,6.63 c -0.27,2 -0.68,3.95 -1.22,5.87 c -0.02,38.97 0.03,77.93 0.16,116.89 c 0.32,0.47 0.77,0.68 1.34,0.64 c 11.2,-0.02 22.41,-0.01 33.61,0.02 Z M 106.25,55.76 c 2.1,-0.22 1.62,1.45 3.21,2.19 c 1.98,1.04 7.79,1.01 8.62,-1.37 c 0.59,-0.41 1.18,-0.84 1.76,-1.28 c 0.09,-0.92 -0.34,-1.4 -1.29,-1.45 c -1.96,0.06 -3.9,0.2 -5.84,0.42 c -2.31,2.28 -1.14,2.13 -3.43,0.01 c -1.24,-0.03 -3.53,-0.59 -3.03,1.48 Z M 10.14,166 c -0.43,2.05 0.73,4.27 2.85,2.45 c 0.02,-5.99 0.03,-11.98 0.04,-17.97 c -0.09,-1.58 -0.87,-2.01 -2.34,-1.3 c -1.15,0.74 -0.24,14.61 -0.55,16.82 Z M 30.51,155 c 2.92,2.1 1.16,7.4 1.65,10.5 c 0.17,5.26 6.45,3.67 5.45,2.31 c -0.77,-0.57 -1.56,-1.1 -2.37,-1.6 c -0.32,-3.18 -0.36,-6.36 -0.1,-9.55 c 3.01,-1.72 3,-1.59 0,-3.32 c -0.52,-1.07 0.29,-3.33 -0.73,-3.98 c -3.29,0.29 -1.25,3.83 -3.9,5.64 Z M 104.51,155 c 2.92,2.1 1.16,7.4 1.65,10.5 c 0.17,5.27 6.48,3.65 5.49,2.31 c -0.79,-0.56 -1.59,-1.09 -2.41,-1.6 c -0.32,-3.18 -0.36,-6.36 -0.1,-9.54 c 2.94,-1.82 3.03,-1.54 0,-3.33 c -0.52,-1.07 0.29,-3.33 -0.73,-3.98 c -3.29,0.29 -1.25,3.83 -3.9,5.64 Z M 113.16,150.06 c -0.09,1.59 0.66,2.23 2.25,1.93 c 2.3,-2.26 -1.06,-4.62 -2.25,-1.93 Z M 148.96,151.04 c -0.1,1.2 1.63,1.1 2.34,0.77 c 0.79,-0.88 0.79,-1.76 -0.01,-2.63 c -1.77,-0.65 -2.55,-0.03 -2.33,1.86 Z M 17.02,157 c -0.03,3.79 0.01,7.58 0.14,11.37 c 0.89,0.89 1.79,0.89 2.68,0 c 0.08,-3.27 0.17,-6.53 0.3,-9.8 c 1.07,-2.95 5.35,-3.36 5.82,-0.08 c 0.02,3.3 0.09,6.59 0.2,9.88 c 1.03,1.19 2.79,0.96 2.82,-0.86 c -0.1,-6.23 1.79,-16.5 -8.48,-12.97 c -2.61,-0.83 -3.9,-0.85 -3.48,2.46 Z M 38.54,162 c 0.01,6.55 6.54,8.97 11.61,5.64 c 2.08,-2.12 1.68,-2.91 -1.22,-2.37 c -3.29,3.08 -6.64,1.42 -7.54,-2.67 c 0.24,-0.3 0.56,-0.45 0.97,-0.44 c 3,-0.04 6,-0.14 8.99,-0.31 c 0.56,-0.63 0.71,-1.36 0.46,-2.2 c -2.2,-9.18 -13.86,-6.82 -13.27,2.35 Z M 54.02,157 c 0.01,3.5 0.01,7.01 0,10.51 c -0.16,1.71 1.9,2.07 2.82,0.86 c 0.01,-3.59 0.17,-7.16 0.49,-10.72 c 0.74,-1.95 3.91,-1.88 5.09,-0.69 c 1.38,3.72 2.7,7.46 3.96,11.21 c 1.09,1.01 2.19,1.02 3.3,0.05 c 1.56,-4.57 3.15,-9.12 4.79,-13.66 c -0.65,-0.93 -2.47,-0.64 -3.02,0.31 c -0.91,3.01 -1.97,5.96 -3.18,8.83 c -0.44,0.11 -0.76,-0.04 -0.96,-0.45 c -0.9,-3.06 -1.93,-6.06 -3.09,-9 c -3.18,-0.27 -6.38,-0.31 -9.59,-0.12 c -0.61,0.85 -0.81,1.8 -0.61,2.87 Z M 75.54,162 c 0.11,7.85 9.68,9.57 12.77,4.05 c 0.25,-0.3 0.23,-0.58 -0.06,-0.83 c -3.03,-1.16 -3.44,2.57 -6.67,1.54 c -1.78,-0.76 -5.33,-5.05 -1.16,-4.69 c 2.65,-0.08 5.3,-0.14 7.95,-0.2 c 0.54,-0.64 0.68,-1.38 0.44,-2.22 c -2.2,-9.16 -13.86,-6.81 -13.27,2.35 Z M 91.02,157 c -0.03,3.79 0.01,7.58 0.14,11.37 c 0.89,0.89 1.79,0.89 2.68,0 c 0.08,-3.27 0.17,-6.53 0.3,-9.8 c 1.16,-2.85 4.99,-3.67 5.82,-0.08 c 0.02,3.3 0.09,6.59 0.2,9.88 c 1.03,1.19 2.79,0.96 2.82,-0.86 c -0.1,-6.23 1.79,-16.5 -8.48,-12.97 c -2.61,-0.83 -3.9,-0.85 -3.48,2.46 Z M 113.12,167 c -0.38,1.87 1.51,2.74 2.8,1.48 c 0,-1.35 1.65,-18.98 -2.58,-13.78 c -0.18,4.1 -0.25,8.2 -0.22,12.3 Z M 118.52,161 c -1,9.21 11.12,11.56 13.34,2.48 c 2.12,-10.87 -12.33,-13.82 -13.34,-2.48 Z M 134.02,157 c -0.03,3.79 0.01,7.58 0.14,11.37 c 0.89,0.89 1.79,0.89 2.68,0 c 0.08,-3.27 0.17,-6.53 0.3,-9.8 c 1.17,-2.87 4.96,-3.62 5.82,-0.08 c 0.02,3.3 0.09,6.59 0.2,9.88 c 1.03,1.19 2.79,0.96 2.82,-0.86 c -0.09,-6.22 1.78,-16.52 -8.48,-12.97 c -2.61,-0.83 -3.9,-0.85 -3.48,2.46 Z M 148.93,169.03 c 1.18,-0.05 3.12,0.3 2.93,-1.54 c -0.75,-1.69 2.01,-17.1 -2.85,-12.97 c 0.02,4.83 -0.01,9.67 -0.08,14.51 Z M 154.1,165.03 c 0.97,4.78 6.71,5.03 10.16,2.78 c 6.02,-5.51 -3.12,-7.66 -6.61,-8.94 c -2.07,-2.43 2.84,-3.92 5.04,-1.24 c 1.32,0.7 2.06,0.36 2.24,-1.05 c -2.77,-6.15 -15.56,-0.92 -8.88,4.74 c 2.25,0.75 4.44,1.6 6.57,2.56 c 1.12,2.9 -2.61,3.75 -4.6,2.39 c -0.89,-1.22 -2.71,-3.84 -3.92,-1.24 Z M 168.02,157 c 0.01,3.5 0.01,7.01 0,10.51 c -0.05,0.58 0.17,1.04 0.63,1.37 c 5.49,1.95 -1,-10.77 4.92,-12.63 c 4.96,-0.98 1.12,10.84 3.12,12.57 c 0.84,0.4 1.59,0.3 2.25,-0.3 c -0.09,-3.34 0.05,-6.66 0.41,-9.97 c 1.21,-2.8 4.45,-3.53 5.26,-0.04 c 0.38,3.32 0.54,6.66 0.49,10.01 c 0.72,0.65 1.44,0.63 2.16,-0.06 c 0.22,-3.31 0.26,-6.64 0.12,-9.97 c -0.28,-3.68 -2.24,-5.15 -5.86,-4.41 c -1.9,0.39 -2.8,2.54 -4.37,0.35 c -1.89,-0.61 -3.77,-0.57 -5.65,0.11 c -2.61,-0.82 -3.9,-0.85 -3.48,2.46 Z M 41.85,159.03 c 0.93,-4.14 6.29,-3.63 6.91,0.27 c -0.72,1.34 -6.67,0.99 -6.91,-0.27 Z M 78.85,159.03 c 0.9,-4.08 6.25,-3.67 6.89,0.22 c -0.63,1.16 -6.45,1.3 -6.89,-0.22 Z M 121.11,160.83 c 2.24,-9.13 10.71,-3.69 7.2,4.16 c -3.59,4.58 -7.36,0.2 -7.2,-4.16 Z"/></g>
<g><path fill="#f6f6f6" d="M 0,0 c 4.68,0 9.36,0 14.04,0 c -0.49,1.27 -4.05,0.34 -5.2,1.26 c -3.32,1.8 -8.83,9.78 -8.84,9.78 c 0,-3.68 0,-7.36 0,-11.04 Z M 185.97,0 c 4.67,0 9.35,0 14.03,0 c 0,3.68 0,7.36 0,11.04 c -0.33,-0.09 -0.58,-0.29 -0.74,-0.6 c -2.19,-5.25 -6.51,-10.15 -12.65,-9.85 c -0.3,-0.11 -0.52,-0.3 -0.64,-0.59 Z M 10.14,166 c 0.31,-2.21 -0.6,-16.08 0.55,-16.82 c 1.47,-0.71 2.25,-0.28 2.34,1.3 c -0.01,5.99 -0.02,11.98 -0.04,17.97 c -2.12,1.82 -3.28,-0.4 -2.85,-2.45 Z M 30.51,155 c 2.65,-1.81 0.61,-5.35 3.9,-5.64 c 1.02,0.65 0.21,2.91 0.73,3.98 c 3,1.73 3.01,1.6 0,3.32 c -0.26,3.19 -0.22,6.37 0.1,9.55 c 0.81,0.5 1.6,1.03 2.37,1.6 c 1,1.36 -5.28,2.95 -5.45,-2.31 c -0.49,-3.1 1.27,-8.4 -1.65,-10.5 Z M 104.51,155 c 2.65,-1.81 0.61,-5.35 3.9,-5.64 c 1.02,0.65 0.21,2.91 0.73,3.98 c 3.03,1.79 2.94,1.51 0,3.33 c -0.26,3.18 -0.22,6.36 0.1,9.54 c 0.82,0.51 1.62,1.04 2.41,1.6 c 0.99,1.34 -5.32,2.96 -5.49,-2.31 c -0.49,-3.1 1.27,-8.4 -1.65,-10.5 Z M 113.16,150.06 c 1.19,-2.69 4.55,-0.33 2.25,1.93 c -1.59,0.3 -2.34,-0.34 -2.25,-1.93 Z M 148.96,151.04 c -0.22,-1.89 0.56,-2.51 2.33,-1.86 c 0.8,0.87 0.8,1.75 0.01,2.63 c -0.71,0.33 -2.44,0.43 -2.34,-0.77 Z M 17.02,157 c -0.42,-3.31 0.87,-3.29 3.48,-2.46 c 10.27,-3.53 8.38,6.74 8.48,12.97 c -0.03,1.82 -1.79,2.05 -2.82,0.86 c -0.11,-3.29 -0.18,-6.58 -0.2,-9.88 c -0.47,-3.28 -4.75,-2.87 -5.82,0.08 c -0.13,3.27 -0.22,6.53 -0.3,9.8 c -0.89,0.89 -1.79,0.89 -2.68,0 c -0.13,-3.79 -0.17,-7.58 -0.14,-11.37 Z M 38.54,162 c -0.59,-9.17 11.07,-11.53 13.27,-2.35 c 0.25,0.84 0.1,1.57 -0.46,2.2 c -2.99,0.17 -5.99,0.27 -8.99,0.31 c -0.41,-0.01 -0.73,0.14 -0.97,0.44 c 0.9,4.09 4.25,5.75 7.54,2.67 c 2.9,-0.54 3.3,0.25 1.22,2.37 c -5.07,3.33 -11.6,0.91 -11.61,-5.64 Z M 54.02,157 c -0.2,-1.07 0,-2.02 0.61,-2.87 c 3.21,-0.19 6.41,-0.15 9.59,0.12 c 1.16,2.94 2.19,5.94 3.09,9 c 0.2,0.41 0.52,0.56 0.96,0.45 c 1.21,-2.87 2.27,-5.82 3.18,-8.83 c 0.55,-0.95 2.37,-1.24 3.02,-0.31 c -1.64,4.54 -3.23,9.09 -4.79,13.66 c -1.11,0.97 -2.21,0.96 -3.3,-0.05 c -1.26,-3.75 -2.58,-7.49 -3.96,-11.21 c -1.18,-1.19 -4.35,-1.26 -5.09,0.69 c -0.32,3.56 -0.48,7.13 -0.49,10.72 c -0.92,1.21 -2.98,0.85 -2.82,-0.86 c 0.01,-3.5 0.01,-7.01 0,-10.51 Z M 75.54,162 c -0.59,-9.16 11.07,-11.51 13.27,-2.35 c 0.24,0.84 0.1,1.58 -0.44,2.22 c -2.65,0.06 -5.3,0.12 -7.95,0.2 c -4.17,-0.36 -0.62,3.93 1.16,4.69 c 3.23,1.03 3.64,-2.7 6.67,-1.54 c 0.29,0.25 0.31,0.53 0.06,0.83 c -3.09,5.52 -12.66,3.8 -12.77,-4.05 Z M 91.02,157 c -0.42,-3.31 0.87,-3.29 3.48,-2.46 c 10.27,-3.53 8.38,6.74 8.48,12.97 c -0.03,1.82 -1.79,2.05 -2.82,0.86 c -0.11,-3.29 -0.18,-6.58 -0.2,-9.88 c -0.83,-3.59 -4.66,-2.77 -5.82,0.08 c -0.13,3.27 -0.22,6.53 -0.3,9.8 c -0.89,0.89 -1.79,0.89 -2.68,0 c -0.13,-3.79 -0.17,-7.58 -0.14,-11.37 Z M 113.12,167 c -0.03,-4.1 0.04,-8.2 0.22,-12.3 c 4.23,-5.2 2.58,12.43 2.58,13.78 c -1.29,1.26 -3.18,0.39 -2.8,-1.48 Z M 118.52,161 c 1.01,-11.34 15.46,-8.39 13.34,2.48 c -2.22,9.08 -14.34,6.73 -13.34,-2.48 Z M 134.02,157 c -0.42,-3.31 0.87,-3.29 3.48,-2.46 c 10.26,-3.55 8.39,6.75 8.48,12.97 c -0.03,1.82 -1.79,2.05 -2.82,0.86 c -0.11,-3.29 -0.18,-6.58 -0.2,-9.88 c -0.86,-3.54 -4.65,-2.79 -5.82,0.08 c -0.13,3.27 -0.22,6.53 -0.3,9.8 c -0.89,0.89 -1.79,0.89 -2.68,0 c -0.13,-3.79 -0.17,-7.58 -0.14,-11.37 Z M 148.93,169.03 c 0.07,-4.84 0.1,-9.68 0.08,-14.51 c 4.86,-4.13 2.1,11.28 2.85,12.97 c 0.19,1.84 -1.75,1.49 -2.93,1.54 Z M 154.1,165.03 c 1.21,-2.6 3.03,0.02 3.92,1.24 c 1.99,1.36 5.72,0.51 4.6,-2.39 c -2.13,-0.96 -4.32,-1.81 -6.57,-2.56 c -6.68,-5.66 6.11,-10.89 8.88,-4.74 c -0.18,1.41 -0.92,1.75 -2.24,1.05 c -2.2,-2.68 -7.11,-1.19 -5.04,1.24 c 3.49,1.28 12.63,3.43 6.61,8.94 c -3.45,2.25 -9.19,2 -10.16,-2.78 Z M 168.02,157 c -0.42,-3.31 0.87,-3.28 3.48,-2.46 c 1.88,-0.68 3.76,-0.72 5.65,-0.11 c 1.57,2.19 2.47,0.04 4.37,-0.35 c 3.62,-0.74 5.58,0.73 5.86,4.41 c 0.14,3.33 0.1,6.66 -0.12,9.97 c -0.72,0.69 -1.44,0.71 -2.16,0.06 c 0.05,-3.35 -0.11,-6.69 -0.49,-10.01 c -0.81,-3.49 -4.05,-2.76 -5.26,0.04 c -0.36,3.31 -0.5,6.63 -0.41,9.97 c -0.66,0.6 -1.41,0.7 -2.25,0.3 c -2,-1.73 1.84,-13.55 -3.12,-12.57 c -5.92,1.86 0.57,14.58 -4.92,12.63 c -0.46,-0.33 -0.68,-0.79 -0.63,-1.37 c 0.01,-3.5 0.01,-7.01 0,-10.51 Z M 41.85,159.03 c 0.24,1.26 6.19,1.61 6.91,0.27 c -0.62,-3.9 -5.98,-4.41 -6.91,-0.27 Z M 78.85,159.03 c 0.44,1.52 6.26,1.38 6.89,0.22 c -0.64,-3.89 -5.99,-4.3 -6.89,-0.22 Z M 121.11,160.83 c -0.16,4.36 3.61,8.74 7.2,4.16 c 3.51,-7.85 -4.96,-13.29 -7.2,-4.16 Z M 0,188.96 c 0.84,1.6 1.81,3.16 2.91,4.66 c 2.55,3.67 6.04,5.6 10.48,5.77 c 0.31,0.11 0.52,0.31 0.64,0.61 c -4.68,0 -9.35,0 -14.03,0 c 0,-3.68 0,-7.36 0,-11.04 Z M 200,188.96 c 0,3.68 0,7.36 0,11.04 c -4.68,0 -9.35,0 -14.03,0 c 0.16,-0.3 0.41,-0.51 0.73,-0.62 c 4.39,-0.22 7.85,-2.14 10.38,-5.77 c 1.13,-1.5 2.1,-3.05 2.92,-4.65 Z"/></g>
<g><path fill="#ffeb3b" stroke="#ffeb3b" stroke-width="0.5" d="M 112.18,140.29 c -1.41,-5.33 2.94,-7.21 5.56,-10.99 c 1.69,-3.22 4,-5.92 6.91,-8.1 c 2.11,-3.94 6.3,-14.07 10.05,-15.84 c 1.83,-0.4 3.68,-0.65 5.54,-0.74 c 7.08,-6.99 25.94,-15.66 20.09,-28.61 c -1.59,-2.79 -12.21,-14.3 -14.65,-15.28 c -4.31,-2.97 -5.07,-9.21 -9.39,-11.38 c -2.6,-0.73 -5.17,-1.59 -7.68,-2.55 c -1.33,-1.04 -2.76,-1.91 -4.28,-2.59 c -2.69,-5.42 -0.44,-10.71 -1.7,-16.45 c -2.18,-2.08 -4.4,-4.13 -6.66,-6.13 c -5.05,-3.62 -9.46,-2.74 -15.32,-2.36 c -9.37,3.66 -6.61,16.42 -5.05,24.02 c -0.76,5.15 -11.2,6.55 -14.93,8.95 c -4.1,3.42 -7.99,6.5 -12.69,9.09 c -5.37,1.54 -9,2.06 -11.82,7.31 c -3.48,1.1 -7.06,7.47 -8.54,10.55 c -1.1,0.84 -2.18,1.71 -3.25,2.59 c -0.87,5.74 -5.41,9.65 -6.26,15.71 c 1.13,9.86 -3.74,18.77 -2.35,28.03 c -2.32,7.82 -0.05,13.47 8.58,13.73 c 0.39,0.13 0.64,0.39 0.75,0.78 c -11.2,-0.03 -22.41,-0.04 -33.61,-0.02 c -0.57,0.04 -1.02,-0.17 -1.34,-0.64 c -0.13,-38.96 -0.18,-77.92 -0.16,-116.89 c 0.54,-1.92 0.95,-3.87 1.22,-5.87 c 4.03,-5.89 4.62,-5.08 11.28,-6.63 c 51.68,0.03 103.36,0.03 155.04,0 c 6.66,1.55 7.25,0.74 11.28,6.63 c 0.09,1.7 0.48,3.33 1.18,4.88 c 0.06,39.3 0.03,78.59 -0.12,117.88 c -0.32,0.47 -0.77,0.68 -1.34,0.64 c -25.46,-0.11 -50.9,-0.01 -76.34,0.28 Z M 83.01,140.07 c -11.7,-0.13 -23.4,-0.09 -35.1,0.11 c 0.04,-0.2 0.09,-0.39 0.13,-0.58 c 1.1,-0.52 2.08,-1.21 2.94,-2.08 c 0.45,-0.61 0.74,-1.29 0.89,-2.04 c 0.36,-8.69 1.88,-33.72 9.23,-38.72 c 3.41,-1.42 7.5,-2.09 10.32,-4.34 c 0.58,0.6 1.13,1.23 1.66,1.89 c 4.34,1.26 4.78,2.64 6.5,6.35 c -1.29,8.74 -4.91,11.39 -2.22,20.62 c 0.76,0.47 1.51,0.96 2.25,1.45 c 0.77,5.7 3.58,12.1 3.4,17.34 Z"/></g>
<g><path fill="#010101" stroke="#010101" stroke-width="0.5" d="M 112.18,140.29 c -0.93,1.44 -3.53,0.72 -4.02,-0.88 c -0.86,-4.43 1,-6.08 3.16,-9.5 c 0.45,-1.13 0.88,-2.26 1.28,-3.41 c -0.7,-0.54 -1.49,-0.95 -2.36,-1.25 c -1.09,-0.93 -2.06,-1.96 -2.91,-3.09 c -0.77,-0.44 -3.57,0.09 -3.08,-1.46 c 0.6,-1.09 5.83,-0.32 7.11,-0.86 c 0.47,-0.87 0.88,-1.79 1.23,-2.74 c 1.3,-1.01 2.52,-2.13 3.66,-3.34 c 1.22,-0.44 2.42,-0.92 3.59,-1.44 c 0.39,-1.69 0.9,-1.79 1.91,-3.04 c 0.2,-0.93 0.59,-2.46 -0.5,-3.03 c -3.15,-1 -6.35,-1.79 -9.61,-2.39 c -0.5,-0.5 -0.98,-1.02 -1.45,-1.56 c -1.75,-0.49 -3.45,-1.12 -5.07,-1.87 c -6.24,-13.28 14.96,-12.77 22.19,-12.6 c 0.22,-0.12 0.43,-0.23 0.65,-0.35 c 0.53,-0.42 1.69,-5.17 2.76,-2.81 c 0.33,0.9 -0.16,3.8 1.64,3.14 c 1.27,-1.37 2.64,-2.62 4.13,-3.76 c 1.08,-1.15 -1.63,-0.96 -1.87,-2.23 c 0.3,-3.02 -8.03,-13.02 -4.99,-14.72 c 3.74,-1.02 11.87,15.84 9.7,19.8 c -1.24,1.1 -3.26,3.9 -4.9,4.15 c -7.54,0.6 -16.75,-1.22 -23.68,2.23 c -0.99,1.42 -4.22,2.54 -2.12,4.55 c 2.18,0.75 4.43,1.18 6.73,1.3 c 1.33,1.29 1.39,1.93 3.43,2.51 c 3.58,0.66 6.51,0.44 9.89,2.11 c 1.37,0.43 1.8,-1.23 3.06,-1.49 c 1.86,-0.18 3.72,-0.32 5.59,-0.43 c 0.36,-0.91 0.87,-1.74 1.51,-2.48 c 7.88,-5.62 15.87,-8.97 19.05,-18.93 c 0.12,-2.77 -14.58,-16.01 -17.24,-18.54 c -5.61,-8.78 -4.76,-8.84 -14.9,-12.08 c -2.84,-2.66 -2.78,2 -5.24,2.31 c -2.14,0.16 -5.91,0.31 -3.98,-3.07 c 0.98,-0.64 3.26,-2.38 3.45,-3.55 c -0.01,-4.66 -0.02,-9.32 -0.02,-13.98 c 0.03,-0.56 -0.15,-1.03 -0.55,-1.42 c -2.45,-1.83 -4.83,-3.74 -7.14,-5.74 c -5.78,-3.41 -8.16,-2.65 -13.69,0.75 c -0.88,0.72 -0.59,5.86 -1.33,7.4 c 2.87,10.14 5.61,18.23 -8.58,19.67 c -4.27,4.21 -19.05,14.11 -25.01,14 c -2.77,2.89 -5.57,5.77 -8.39,8.64 c -1,3.26 -3.96,4.65 -4.82,8.13 c -1.1,0.58 -2.19,1.14 -3.29,1.7 c -0.8,6 -5.63,11.02 -5.85,18.14 c -0.98,5.08 -1.09,20.84 -2.12,24.87 c 0.4,2.8 1.6,2.27 -1.18,3.99 c -0.29,1.38 1.13,1.2 1.77,2.12 c 1,2.49 0.89,5.24 4.55,4.09 c 2.58,-3.39 5.18,-3.12 4.29,-8.05 c -0.81,-0.49 -1.26,-1.19 -1.35,-2.08 c 0.56,-0.42 1.09,-0.87 1.58,-1.36 c -0.08,-4.24 0.04,-8.47 0.36,-12.7 c 2.66,-1.91 2.25,-2.41 -0.06,-4.32 c -0.08,-1.18 -0.83,-5.28 1.18,-5.1 c 0.58,0.76 0.98,1.6 1.22,2.54 c 0.14,-0.1 0.29,-0.2 0.43,-0.3 c 0,-1.22 0.13,-2.43 0.37,-3.62 c 3.11,-3.1 2.59,-7.73 6.35,-9.31 c -0.97,-0.49 -3.03,-1.38 -0.28,-1.73 c 3.79,0.06 4.9,0.33 6.7,-3.18 c 1,-0.42 2.04,-0.71 3.13,-0.89 c 0.42,-0.91 1.1,-1.41 2.04,-1.5 c 1.98,1.61 3.92,3.29 5.83,5.03 c 2.97,1.36 4.88,0.91 5.53,4.61 c 1.03,1.24 2.36,0.97 2.33,3.01 c -1.89,0.01 -0.86,3.99 -0.79,5.07 c -5,8.85 0.11,17.34 0.98,26.36 c 0.57,0.43 1.13,0.87 1.69,1.32 c 0.11,1.56 0.21,3.12 0.31,4.68 c 1.27,0.93 2.93,1.88 1.22,3.55 c -1.46,0.15 -2.91,0.21 -4.38,0.19 c 0.18,-5.24 -2.63,-11.64 -3.4,-17.34 c -0.74,-0.49 -1.49,-0.98 -2.25,-1.45 c -2.69,-9.23 0.93,-11.88 2.22,-20.62 c -1.72,-3.71 -2.16,-5.09 -6.5,-6.35 c -0.53,-0.66 -1.08,-1.29 -1.66,-1.89 c -2.82,2.25 -6.91,2.92 -10.32,4.34 c -7.35,5 -8.87,30.03 -9.23,38.72 c -0.15,0.75 -0.44,1.43 -0.89,2.04 c -0.86,0.87 -1.84,1.56 -2.94,2.08 c -0.04,0.19 -0.09,0.38 -0.13,0.58 c -0.94,-0.11 -1.88,-0.15 -2.82,-0.15 c -0.11,-0.39 -0.36,-0.65 -0.75,-0.78 c -8.63,-0.26 -10.9,-5.91 -8.58,-13.73 c -1.39,-9.26 3.48,-18.17 2.35,-28.03 c 0.85,-6.06 5.39,-9.97 6.26,-15.71 c 1.07,-0.88 2.15,-1.75 3.25,-2.59 c 1.48,-3.08 5.06,-9.45 8.54,-10.55 c 2.82,-5.25 6.45,-5.77 11.82,-7.31 c 4.7,-2.59 8.59,-5.67 12.69,-9.09 c 3.73,-2.4 14.17,-3.8 14.93,-8.95 c -1.56,-7.6 -4.32,-20.36 5.05,-24.02 c 5.86,-0.38 10.27,-1.26 15.32,2.36 c 2.26,2 4.48,4.05 6.66,6.13 c 1.26,5.74 -0.99,11.03 1.7,16.45 c 1.52,0.68 2.95,1.55 4.28,2.59 c 2.51,0.96 5.08,1.82 7.68,2.55 c 4.32,2.17 5.08,8.41 9.39,11.38 c 2.44,0.98 13.06,12.49 14.65,15.28 c 5.85,12.95 -13.01,21.62 -20.09,28.61 c -1.86,0.09 -3.71,0.34 -5.54,0.74 c -3.75,1.77 -7.94,11.9 -10.05,15.84 c -2.91,2.18 -5.22,4.88 -6.91,8.1 c -2.62,3.78 -6.97,5.66 -5.56,10.99 Z M 106.25,55.76 c -0.5,-2.07 1.79,-1.51 3.03,-1.48 c 2.29,2.12 1.12,2.27 3.43,-0.01 c 1.94,-0.22 3.88,-0.36 5.84,-0.42 c 0.95,0.05 1.38,0.53 1.29,1.45 c -0.58,0.44 -1.17,0.87 -1.76,1.28 c -0.83,2.38 -6.64,2.41 -8.62,1.37 c -1.59,-0.74 -1.11,-2.41 -3.21,-2.19 Z"/></g>
<g><path fill="#151915" d="M 83.98,98.9 c 1.13,-0.17 2.23,-0.04 3.29,0.38 c 0.83,1.6 2.14,2.6 3.93,3 c 0.57,1.1 1.41,1.92 2.52,2.45 c 0.24,1.62 -2.05,1.13 -2.97,0.97 c -1.47,-2.2 -1.38,-1.75 -4,-2.02 c -2.03,-2.45 -1.8,-1.44 -3.56,0.29 c -0.07,-1.08 -1.1,-5.06 0.79,-5.07 Z"/></g>
</svg>
