<?xml version="1.0" encoding="UTF-8"?>
<!DOCTYPE svg PUBLIC "-//W3C//DTD SVG 1.1//EN" "http://www.w3.org/Graphics/SVG/1.1/DTD/svg11.dtd">
<svg xmlns="http://www.w3.org/2000/svg" version="1.1" width="200px" height="200px" style="shape-rendering:geometricPrecision; text-rendering:geometricPrecision; image-rendering:optimizeQuality; fill-rule:evenodd; clip-rule:evenodd" xmlns:xlink="http://www.w3.org/1999/xlink">
<rect x="0" y="0" width="200" height="200" fill="#222222"/>
<g><path fill="#222222" stroke="#222222" stroke-width="0.5" d="M 11.02,0 c 59.32,0 118.64,0 177.96,0 c 0.87,0.68 1.85,1.22 2.93,1.61 c 2.02,1.3 3.76,2.89 5.22,4.79 c 0.98,1.57 1.94,3.11 2.87,4.63 c 0,59.31 0,118.62 0,177.94 c -0.72,0.87 -1.27,1.86 -1.63,2.97 c -2.28,3.82 -5.55,6.28 -9.83,7.4 c -0.33,0.11 -0.51,0.33 -0.56,0.66 c -58.65,0 -117.3,0 -175.95,0 c -0.14,-0.29 -0.36,-0.51 -0.65,-0.66 c -5.21,-1.4 -8.74,-4.64 -10.57,-9.72 c -0.17,-0.35 -0.44,-0.57 -0.81,-0.64 c 0,-59.32 0,-118.64 0,-177.96 c 1.28,-2.44 2.86,-4.72 4.75,-6.84 c 1.92,-1.72 4.01,-3.11 6.27,-4.18 Z M 9.99,18 c 0.01,40.17 0.01,80.34 0.01,120.52 c -0.05,0.57 0.16,1.02 0.63,1.35 c 59.29,0.13 118.59,0.18 177.89,0.13 c 0.57,0.05 1.02,-0.16 1.35,-0.63 c 0.18,-40.25 0.18,-80.51 -0.01,-120.77 c 0.44,-2.9 -3.99,-8.04 -6.48,-8.41 c -54.92,-0.24 -109.85,-0.26 -164.78,-0.05 c -4.45,0.24 -7.55,3.71 -8.61,7.86 Z M 39.97,158 c 0.01,5.18 0.01,10.35 -0.01,15.53 c -0.04,0.58 0.18,1.03 0.65,1.36 c 3.11,0.13 11.52,0.99 13.79,-1.07 c 2.26,-2.35 2.54,-4.93 0.86,-7.72 c -0.67,-0.53 -1.33,-1.06 -1.98,-1.59 c 3.77,-2.66 3.06,-7.18 -0.93,-9.19 c -3.9,-0.39 -7.81,-0.46 -11.74,-0.21 c -0.64,0.84 -0.86,1.81 -0.64,2.89 Z M 116.98,157 c 0.2,1.42 3.1,1.45 3.86,0.33 c 1.26,-2.93 -4.24,-3.71 -3.86,-0.33 Z M 43.93,161 c -0.73,-3.15 7.01,-2.57 7.27,-0.41 c 0.25,3.56 -8.07,3.36 -7.27,0.41 Z M 58.06,171.97 c 1.22,3.71 5.34,3.51 8.32,2.25 c 1.07,0.5 5.04,1.9 4.51,-0.68 c -0.47,-2.99 -0.64,-6.01 -0.48,-9.05 c -0.16,-6.19 -9.72,-6.12 -11.46,-0.93 c -0.59,2.28 3.17,1.73 4.05,0.03 c 0.98,-0.7 1.9,-0.64 2.76,0.19 c 2.42,4.34 -8.78,1.13 -7.7,8.19 Z M 73.97,172 c -0.56,2.25 0.28,3.26 2.53,3.03 c 3.57,0.2 -0.78,-9.63 3.22,-11.79 c 1.42,0.13 4.24,-1.72 2.59,-3.02 c -2.27,-0.05 -4.55,-0.14 -6.84,-0.25 c -0.58,-0.06 -1.04,0.16 -1.36,0.64 c -0.13,3.79 -0.18,7.59 -0.14,11.39 Z M 83.15,167.05 c 0.78,12.22 16.95,9.82 14.76,-1.54 c -2.65,-8.6 -13.84,-7.01 -14.76,1.54 Z M 100.57,163 c -0.1,3.84 0.01,7.67 0.31,11.47 c 0.93,0.88 3.06,0.91 3.84,-0.18 c 0.46,-2.36 -0.56,-8.53 0.83,-10.3 c 1.95,-1.35 3.15,-0.86 3.58,1.47 c 0.02,2.95 0.07,5.89 0.15,8.83 c 0.9,1.13 2.77,1.05 3.84,0.18 c 0.57,-5.62 2.19,-18 -7.77,-13.87 c -2.39,-0.79 -5.47,-1.46 -4.78,2.4 Z M 116.97,172 c -0.56,2.25 0.28,3.26 2.53,3.03 c 0.57,0.02 1.01,-0.21 1.32,-0.68 c 0.08,-2.78 1.73,-15.31 -2.33,-14.4 c -2.96,-0.34 -0.88,10.11 -1.52,12.05 Z M 123.18,164.06 c 0.42,4.47 4.21,4.47 7.62,5.52 c 1.41,0.97 1.29,1.74 -0.36,2.32 c -1.39,0.09 -2.71,-0.17 -3.96,-0.78 c -0.79,-0.08 -3.11,0.15 -3.04,1.35 c 1.41,3.48 6.67,2.63 9.63,2.22 c 3.85,-1.76 4.64,-6.75 0.28,-8.36 c -2.07,-0.45 -4.03,-1.12 -5.89,-2 c 0.58,-1.21 1.56,-1.61 2.92,-1.22 c 1.49,0.96 3.01,1.03 4.56,0.21 c 2.98,-2.95 -10.27,-6.44 -11.76,0.74 Z M 138.57,172 c -0.42,2.38 0.56,3.38 2.92,3 c 0.55,-0.01 0.96,-0.25 1.23,-0.71 c 0.43,-2.35 -0.52,-8.52 0.83,-10.3 c 1.95,-1.34 3.1,-0.84 3.47,1.49 c -0.01,2.96 0.05,5.92 0.16,8.87 c 0.31,0.47 0.75,0.7 1.32,0.68 c 1.43,0.38 2.28,-0.13 2.54,-1.5 c 0.3,-2.51 -0.91,-7.96 1.26,-9.72 c 1.25,-0.99 2.16,-0.75 2.74,0.71 c 0.11,3.26 0.2,6.51 0.24,9.77 c 0.27,0.46 0.68,0.7 1.23,0.71 c 2.06,0.43 3.04,-0.39 2.94,-2.47 c -0.43,-4.67 1.98,-13.98 -5.94,-12.43 c -1.01,0.45 -2.01,0.9 -3,1.36 c -0.91,-0.65 -1.92,-1.13 -3.01,-1.44 c -1.43,-0.14 -2.81,0.05 -4.15,0.58 c -1.35,-0.29 -4.6,-1.65 -4.76,0.81 c -0.01,3.53 -0.01,7.06 -0.02,10.59 Z M 87.43,167.88 c -0.02,-7.59 8.46,-5.23 6.4,1.53 c -1.9,4.16 -6.03,2.73 -6.4,-1.53 Z M 43.93,169 c -0.58,-3.29 5.44,-1.93 7.07,-1.34 c 3.88,3.75 -7.61,5.05 -7.07,1.34 Z M 62.13,170.02 c 0.46,-0.9 2.92,-1.85 3.76,-1.31 c 1.04,3.22 -3.59,4.46 -3.76,1.31 Z"/></g>
<g><path fill="#fcfcfc" stroke="#fcfcfc" stroke-width="0.5" d="M 0,0 c 3.67,0 7.35,0 11.02,0 c -2.26,1.07 -4.35,2.46 -6.27,4.18 c -1.89,2.12 -3.47,4.4 -4.75,6.84 c 0,-3.67 0,-7.35 0,-11.02 Z M 188.98,0 c 3.67,0 7.35,0 11.02,0 c 0,3.68 0,7.35 0,11.03 c -0.93,-1.52 -1.89,-3.06 -2.87,-4.63 c -1.46,-1.9 -3.2,-3.49 -5.22,-4.79 c -1.08,-0.39 -2.06,-0.93 -2.93,-1.61 Z M 39.97,158 c -0.22,-1.08 0,-2.05 0.64,-2.89 c 3.93,-0.25 7.84,-0.18 11.74,0.21 c 3.99,2.01 4.7,6.53 0.93,9.19 c 0.65,0.53 1.31,1.06 1.98,1.59 c 1.68,2.79 1.4,5.37 -0.86,7.72 c -2.27,2.06 -10.68,1.2 -13.79,1.07 c -0.47,-0.33 -0.69,-0.78 -0.65,-1.36 c 0.02,-5.18 0.02,-10.35 0.01,-15.53 Z M 116.98,157 c -0.38,-3.38 5.12,-2.6 3.86,0.33 c -0.76,1.12 -3.66,1.09 -3.86,-0.33 Z M 43.93,161 c -0.8,2.95 7.52,3.15 7.27,-0.41 c -0.26,-2.16 -8,-2.74 -7.27,0.41 Z M 58.06,171.97 c -1.08,-7.06 10.12,-3.85 7.7,-8.19 c -0.86,-0.83 -1.78,-0.89 -2.76,-0.19 c -0.88,1.7 -4.64,2.25 -4.05,-0.03 c 1.74,-5.19 11.3,-5.26 11.46,0.93 c -0.16,3.04 0.01,6.06 0.48,9.05 c 0.53,2.58 -3.44,1.18 -4.51,0.68 c -2.98,1.26 -7.1,1.46 -8.32,-2.25 Z M 73.97,172 c -0.04,-3.8 0.01,-7.6 0.14,-11.39 c 0.32,-0.48 0.78,-0.7 1.36,-0.64 c 2.29,0.11 4.57,0.2 6.84,0.25 c 1.65,1.3 -1.17,3.15 -2.59,3.02 c -4,2.16 0.35,11.99 -3.22,11.79 c -2.25,0.23 -3.09,-0.78 -2.53,-3.03 Z M 83.15,167.05 c 0.92,-8.55 12.11,-10.14 14.76,-1.54 c 2.19,11.36 -13.98,13.76 -14.76,1.54 Z M 100.57,163 c -0.69,-3.86 2.39,-3.19 4.78,-2.4 c 9.96,-4.13 8.34,8.25 7.77,13.87 c -1.07,0.87 -2.94,0.95 -3.84,-0.18 c -0.08,-2.94 -0.13,-5.88 -0.15,-8.83 c -0.43,-2.33 -1.63,-2.82 -3.58,-1.47 c -1.39,1.77 -0.37,7.94 -0.83,10.3 c -0.78,1.09 -2.91,1.06 -3.84,0.18 c -0.3,-3.8 -0.41,-7.63 -0.31,-11.47 Z M 116.97,172 c 0.64,-1.94 -1.44,-12.39 1.52,-12.05 c 4.06,-0.91 2.41,11.62 2.33,14.4 c -0.31,0.47 -0.75,0.7 -1.32,0.68 c -2.25,0.23 -3.09,-0.78 -2.53,-3.03 Z M 123.18,164.06 c 1.49,-7.18 14.74,-3.69 11.76,-0.74 c -1.55,0.82 -3.07,0.75 -4.56,-0.21 c -1.36,-0.39 -2.34,0.01 -2.92,1.22 c 1.86,0.88 3.82,1.55 5.89,2 c 4.36,1.61 3.57,6.6 -0.28,8.36 c -2.96,0.41 -8.22,1.26 -9.63,-2.22 c -0.07,-1.2 2.25,-1.43 3.04,-1.35 c 1.25,0.61 2.57,0.87 3.96,0.78 c 1.65,-0.58 1.77,-1.35 0.36,-2.32 c -3.41,-1.05 -7.2,-1.05 -7.62,-5.52 Z M 138.57,172 c 0.01,-3.53 0.01,-7.06 0.02,-10.59 c 0.16,-2.46 3.41,-1.1 4.76,-0.81 c 1.34,-0.53 2.72,-0.72 4.15,-0.58 c 1.09,0.31 2.1,0.79 3.01,1.44 c 0.99,-0.46 1.99,-0.91 3,-1.36 c 7.92,-1.55 5.51,7.76 5.94,12.43 c 0.1,2.08 -0.88,2.9 -2.94,2.47 c -0.55,-0.01 -0.96,-0.25 -1.23,-0.71 c -0.04,-3.26 -0.13,-6.51 -0.24,-9.77 c -0.58,-1.46 -1.49,-1.7 -2.74,-0.71 c -2.17,1.76 -0.96,7.21 -1.26,9.72 c -0.26,1.37 -1.11,1.88 -2.54,1.5 c -0.57,0.02 -1.01,-0.21 -1.32,-0.68 c -0.11,-2.95 -0.17,-5.91 -0.16,-8.87 c -0.37,-2.33 -1.52,-2.83 -3.47,-1.49 c -1.35,1.78 -0.4,7.95 -0.83,10.3 c -0.27,0.46 -0.68,0.7 -1.23,0.71 c -2.36,0.38 -3.34,-0.62 -2.92,-3 Z M 87.43,167.88 c 0.37,4.26 4.5,5.69 6.4,1.53 c 2.06,-6.76 -6.42,-9.12 -6.4,-1.53 Z M 43.93,169 c -0.54,3.71 10.95,2.41 7.07,-1.34 c -1.63,-0.59 -7.65,-1.95 -7.07,1.34 Z M 62.13,170.02 c 0.17,3.15 4.8,1.91 3.76,-1.31 c -0.84,-0.54 -3.3,0.41 -3.76,1.31 Z M 0,188.98 c 0.37,0.07 0.64,0.29 0.81,0.64 c 1.83,5.08 5.36,8.32 10.57,9.72 c 0.29,0.15 0.51,0.37 0.65,0.66 c -4.01,0 -8.02,0 -12.03,0 c 0,-3.67 0,-7.35 0,-11.02 Z M 200,188.97 c 0,3.67 0,7.35 0,11.03 c -4.01,0 -8.01,0 -12.02,0 c 0.05,-0.33 0.23,-0.55 0.56,-0.66 c 4.28,-1.12 7.55,-3.58 9.83,-7.4 c 0.36,-1.11 0.91,-2.1 1.63,-2.97 Z"/></g>
<g><path fill="#880015" stroke="#880015" stroke-width="0.5" d="M 9.99,18 c 1.06,-4.15 4.16,-7.62 8.61,-7.86 c 54.93,-0.21 109.86,-0.19 164.78,0.05 c 2.49,0.37 6.92,5.51 6.48,8.41 c 0.19,40.26 0.19,80.52 0.01,120.77 c -0.33,0.47 -0.78,0.68 -1.35,0.63 c -59.3,0.05 -118.6,0 -177.89,-0.13 c -0.47,-0.33 -0.68,-0.78 -0.63,-1.35 c 0,-40.18 0,-80.35 -0.01,-120.52 Z M 18.01,86 c 0.36,1.04 -0.68,8.17 1.41,7.44 c 1.66,-0.15 2.64,-1.04 2.93,-2.66 c 0.78,-2.75 1.31,-5.53 1.61,-8.36 c 0.03,-0.5 0.22,-0.9 0.59,-1.22 c 0.44,2.74 0.8,5.52 1.09,8.33 c -2.48,15.73 -0.69,30.12 0.47,45.84 c 0.67,0.83 1.56,1.29 2.65,1.38 c 2.91,0.21 5.83,0.3 8.75,0.27 c 1.93,0.02 1.65,-1.95 1.07,-3.14 c -4.2,-7.84 -8.07,-8.63 -5.43,-18.31 c 0.45,-0.51 0.97,-0.95 1.55,-1.32 c 0.39,-1.93 0.79,-3.87 1.21,-5.8 c 0.29,-1.28 0.96,-1.56 2,-0.84 c 1.14,1.99 1.2,4.13 2.97,5.94 c 2.45,9.15 3.34,14.26 9.31,21.76 c 0.98,1.04 8.46,0.39 10.2,0.55 c 1.23,-0.6 1.55,-1.51 0.97,-2.73 c -11.03,-4.14 -9.93,-11.97 -12.95,-21.77 c -0.34,-1.33 0.47,-3.38 2.1,-3.19 c 2.82,0.43 3.36,1.22 3.96,3.93 c 1.33,1.92 1.91,-1.89 2.49,-2.46 c 3.63,-1.29 2.54,3.37 4.35,2.99 c 0.7,-1.51 1.49,-3 2.4,-4.44 c 7.81,-7.5 11.41,-5.68 21.69,-6.31 c 0.4,-0.59 0.79,-1.18 1.18,-1.77 c 3.32,-0.08 6.63,-0.14 9.95,-0.19 c 0.91,-0.14 1.69,0.09 2.36,0.69 c 1.91,3.46 3.26,4.37 3.32,8.75 c 0.55,0.41 1.08,0.83 1.61,1.26 c 0.8,6.76 0.93,19.17 4.09,24.95 c 2.52,0.3 5.06,0.42 7.62,0.36 c 2.16,0.04 2.83,-0.97 1.99,-3.02 c -6.37,-4.96 -4.93,-11.23 -5.49,-18.44 c -0.06,-1 0.4,-1.47 1.37,-1.42 c 1.18,0.7 1.81,1.75 1.87,3.18 c 2.93,3.44 4.75,14.31 5.86,19.11 c 1.86,2.09 7.68,1.77 10.28,1.59 c 2.37,-2.14 -2.16,-4.89 -3.19,-6.61 c -4.7,-7.43 -7.4,-22.22 -1.61,-29.2 c 0.68,-1.72 0.78,-3.49 2.98,-2.39 c 0.44,-1.45 1.41,-2.03 2.92,-1.74 c 5.33,1.51 10.28,4.87 15.5,6.96 c 2.65,2.19 8.29,10.11 12.04,9.18 c 3.05,-1.46 3.82,-0.48 4.89,-4.49 c 0.84,-6.31 0.2,-12.33 2.78,-18.3 c -0.02,-0.71 -0.19,-1.38 -0.51,-2.03 c -0.47,-3.2 2.63,-1.33 4.23,-1.76 c 2.62,1.15 5.72,2.56 7.17,-1.1 c -0.73,-0.46 -1.43,-0.93 -2.13,-1.42 c -11.2,-1.82 -16.46,-8.13 -18.33,-19.05 c -0.91,-0.94 -2.13,-1.63 -3.19,-0.46 c -0.5,2.15 -1.01,4.3 -1.55,6.44 c -0.49,0.86 -2.3,2.09 -3.23,1.35 c -1.23,-1.62 -2.48,-3.22 -3.77,-4.79 c 0.07,-1.24 0.49,-2.34 1.27,-3.32 c 2.69,-1.22 5.25,-2.66 7.68,-4.33 c 0.28,-0.96 0.71,-1.83 1.28,-2.6 c 2.53,-0.5 5.05,-1.05 7.57,-1.64 c 2.75,-1.47 5.57,-1.59 6.68,-4.95 c -0.41,-1.3 -0.47,-2.62 -0.18,-3.95 c -0.65,-0.67 -1.23,-1.41 -1.74,-2.2 c -5.47,-2.66 -10.23,-6.09 -15.1,-9.79 c -0.83,-0.88 -5.29,-1.92 -4.18,-3.56 c 3.6,-0.61 1.19,-0.19 2.04,-2.15 c 0.93,-1.24 1.93,-2.4 3,-3.47 c -0.32,-1.22 -0.09,-2.77 -1.31,-3.49 c -1.57,0.72 -3.18,1.4 -4.83,2.04 c 0.01,1.08 -0.33,2.09 -1.03,3.01 c -3.28,3.03 -3.04,3.99 -7.81,4.09 c -6.14,2.27 -7.98,1.13 -14.17,-0.19 c -0.83,0.38 -1.57,0.89 -2.2,1.53 c 0.74,1.2 1.34,2.47 1.8,3.82 c 0.6,0.11 1.23,0.09 1.89,-0.06 c 1.91,0.42 2.64,1.57 2.21,3.44 c -0.08,0.54 -0.36,0.95 -0.84,1.21 c -5.78,1.81 -11,4.08 -17.02,5.05 c -2.78,0.04 -3.71,-0.81 -5.04,1.84 c -24.53,1.8 -49.14,0.94 -73.72,0.42 c -6.23,1.36 -7.05,1.28 -9.94,6.85 c -1.19,2.27 0.04,4.18 -2.53,5.56 c -0.7,8.44 -1.43,16.88 -2.18,25.32 Z"/></g>
<g><path fill="#000000" stroke="#000000" stroke-width="0.5" d="M 18.01,86 c 0.75,-8.44 1.48,-16.88 2.18,-25.32 c 2.57,-1.38 1.34,-3.29 2.53,-5.56 c 2.89,-5.57 3.71,-5.49 9.94,-6.85 c 24.58,0.52 49.19,1.38 73.72,-0.42 c 1.33,-2.65 2.26,-1.8 5.04,-1.84 c 6.02,-0.97 11.24,-3.24 17.02,-5.05 c 0.48,-0.26 0.76,-0.67 0.84,-1.21 c 0.43,-1.87 -0.3,-3.02 -2.21,-3.44 c -0.66,0.15 -1.29,0.17 -1.89,0.06 c -0.46,-1.35 -1.06,-2.62 -1.8,-3.82 c 0.63,-0.64 1.37,-1.15 2.2,-1.53 c 6.19,1.32 8.03,2.46 14.17,0.19 c 4.77,-0.1 4.53,-1.06 7.81,-4.09 c 0.7,-0.92 1.04,-1.93 1.03,-3.01 c 1.65,-0.64 3.26,-1.32 4.83,-2.04 c 1.22,0.72 0.99,2.27 1.31,3.49 c -1.07,1.07 -2.07,2.23 -3,3.47 c -0.85,1.96 1.56,1.54 -2.04,2.15 c -1.11,1.64 3.35,2.68 4.18,3.56 c 4.87,3.7 9.63,7.13 15.1,9.79 c 0.51,0.79 1.09,1.53 1.74,2.2 c -0.29,1.33 -0.23,2.65 0.18,3.95 c -1.11,3.36 -3.93,3.48 -6.68,4.95 c -2.52,0.59 -5.04,1.14 -7.57,1.64 c -0.57,0.77 -1,1.64 -1.28,2.6 c -2.43,1.67 -4.99,3.11 -7.68,4.33 c -0.78,0.98 -1.2,2.08 -1.27,3.32 c 1.29,1.57 2.54,3.17 3.77,4.79 c 0.93,0.74 2.74,-0.49 3.23,-1.35 c 0.54,-2.14 1.05,-4.29 1.55,-6.44 c 1.06,-1.17 2.28,-0.48 3.19,0.46 c 1.87,10.92 7.13,17.23 18.33,19.05 c 0.7,0.49 1.4,0.96 2.13,1.42 c -1.45,3.66 -4.55,2.25 -7.17,1.1 c -1.6,0.43 -4.7,-1.44 -4.23,1.76 c 0.32,0.65 0.49,1.32 0.51,2.03 c -2.58,5.97 -1.94,11.99 -2.78,18.3 c -1.07,4.01 -1.84,3.03 -4.89,4.49 c -3.75,0.93 -9.39,-6.99 -12.04,-9.18 c -5.22,-2.09 -10.17,-5.45 -15.5,-6.96 c -1.51,-0.29 -2.48,0.29 -2.92,1.74 c -2.2,-1.1 -2.3,0.67 -2.98,2.39 c -5.79,6.98 -3.09,21.77 1.61,29.2 c 1.03,1.72 5.56,4.47 3.19,6.61 c -2.6,0.18 -8.42,0.5 -10.28,-1.59 c -1.11,-4.8 -2.93,-15.67 -5.86,-19.11 c -0.06,-1.43 -0.69,-2.48 -1.87,-3.18 c -0.97,-0.05 -1.43,0.42 -1.37,1.42 c 0.56,7.21 -0.88,13.48 5.49,18.44 c 0.84,2.05 0.17,3.06 -1.99,3.02 c -2.56,0.06 -5.1,-0.06 -7.62,-0.36 c -3.16,-5.78 -3.29,-18.19 -4.09,-24.95 c -0.53,-0.43 -1.06,-0.85 -1.61,-1.26 c -0.06,-4.38 -1.41,-5.29 -3.32,-8.75 c -0.67,-0.6 -1.45,-0.83 -2.36,-0.69 c -3.32,0.05 -6.63,0.11 -9.95,0.19 c -0.39,0.59 -0.78,1.18 -1.18,1.77 c -10.28,0.63 -13.88,-1.19 -21.69,6.31 c -0.91,1.44 -1.7,2.93 -2.4,4.44 c -1.81,0.38 -0.72,-4.28 -4.35,-2.99 c -0.58,0.57 -1.16,4.38 -2.49,2.46 c -0.6,-2.71 -1.14,-3.5 -3.96,-3.93 c -1.63,-0.19 -2.44,1.86 -2.1,3.19 c 3.02,9.8 1.92,17.63 12.95,21.77 c 0.58,1.22 0.26,2.13 -0.97,2.73 c -1.74,-0.16 -9.22,0.49 -10.2,-0.55 c -5.97,-7.5 -6.86,-12.61 -9.31,-21.76 c -1.77,-1.81 -1.83,-3.95 -2.97,-5.94 c -1.04,-0.72 -1.71,-0.44 -2,0.84 c -0.42,1.93 -0.82,3.87 -1.21,5.8 c -0.58,0.37 -1.1,0.81 -1.55,1.32 c -2.64,9.68 1.23,10.47 5.43,18.31 c 0.58,1.19 0.86,3.16 -1.07,3.14 c -2.92,0.03 -5.84,-0.06 -8.75,-0.27 c -1.09,-0.09 -1.98,-0.55 -2.65,-1.38 c -1.16,-15.72 -2.95,-30.11 -0.47,-45.84 c -0.29,-2.81 -0.65,-5.59 -1.09,-8.33 c -0.37,0.32 -0.56,0.72 -0.59,1.22 c -0.3,2.83 -0.83,5.61 -1.61,8.36 c -0.29,1.62 -1.27,2.51 -2.93,2.66 c -2.09,0.73 -1.05,-6.4 -1.41,-7.44 Z M 22.91,74.88 c 0.05,1.22 0.07,2.44 0.06,3.67 c 0.4,1.72 0.77,1.72 1.11,0.02 c -0.2,-0.91 0.56,-3.93 -1.17,-3.69 Z"/></g>
<g><path fill="#56000d" d="M 22.91,74.88 c 1.73,-0.24 0.97,2.78 1.17,3.69 c -0.34,1.7 -0.71,1.7 -1.11,-0.02 c 0.01,-1.23 -0.01,-2.45 -0.06,-3.67 Z"/></g>
</svg>
