<?xml version="1.0" encoding="UTF-8"?>
<!DOCTYPE svg PUBLIC "-//W3C//DTD SVG 1.1//EN" "http://www.w3.org/Graphics/SVG/1.1/DTD/svg11.dtd">
<svg xmlns="http://www.w3.org/2000/svg" version="1.1" width="200px" height="200px" style="shape-rendering:geometricPrecision; text-rendering:geometricPrecision; image-rendering:optimizeQuality; fill-rule:evenodd; clip-rule:evenodd" xmlns:xlink="http://www.w3.org/1999/xlink">
<rect x="0" y="0" width="200" height="200" fill="#222222"/>
<g><path fill="#222222" stroke="#222222" stroke-width="0.5" d="M 11.03,0 c 59.31,0 118.63,0 177.94,0 c 0.88,0.68 1.85,1.22 2.93,1.62 c 3.43,2.14 5.87,5.07 7.34,8.81 c 0.17,0.32 0.42,0.52 0.76,0.6 c 0,59.31 0,118.62 0,177.93 c -0.73,0.87 -1.28,1.85 -1.66,2.95 c -2.2,3.71 -10.32,7.97 -10.38,8.09 c -58.64,0 -117.28,0 -175.92,0 c -4.41,-2.21 -7.59,-3.46 -10.36,-8.06 c -0.35,-1.14 -0.91,-2.13 -1.68,-2.98 c 0,-59.31 0,-118.61 0,-177.92 c 1.3,-2.46 2.88,-4.74 4.77,-6.84 c 1.91,-1.73 3.99,-3.13 6.26,-4.2 Z M 9.99,137 c 0.02,1.18 -0.37,3.17 1.49,3.01 c 59.3,0.04 118.6,-0.01 177.89,-0.14 c 0.47,-0.33 0.68,-0.77 0.64,-1.35 c -0.01,-39.01 -0.01,-78.01 0,-117.02 c -0.29,-7.4 -4.12,-11.23 -11.51,-11.5 c -52.33,0 -104.67,0 -157,0 c -6.9,0.14 -10.73,3.64 -11.49,10.49 c -0.01,38.84 -0.02,77.67 -0.02,116.51 Z M 13.54,167 c -0.48,1.81 0.16,2.81 1.92,3.01 c 2.68,0.09 5.37,0.06 8.05,-0.1 c 9.05,-2.09 8.66,-18.35 0,-19.84 c -1.89,0.22 -8.61,-0.77 -9.76,0.49 c -0.2,5.47 -0.27,10.95 -0.21,16.44 Z M 142.52,156 c 2.92,2.09 1.17,7.4 1.65,10.49 c 0.54,5.25 6.17,3.68 5.4,2.39 c -0.73,-0.6 -1.49,-1.14 -2.29,-1.64 c -0.57,-2.55 -0.38,-6.89 -0.15,-9.58 c 2.98,-1.88 2.93,-1.42 0.01,-3.32 c -0.53,-1.07 0.28,-3.33 -0.74,-3.97 c -3.28,0.31 -1.22,3.82 -3.88,5.63 Z M 151.04,151.97 c 1.14,2.55 4.48,0.24 2.3,-1.84 c -1.62,-0.44 -2.39,0.17 -2.3,1.84 Z M 16.83,165 c 0.01,-3.51 0.01,-7.02 0.01,-10.53 c -0.48,-3.65 6.44,-1.84 8.1,-0.82 c 3.14,3.53 3.2,12.69 -2.27,13.64 c -2.21,0.15 -6.46,1.54 -5.84,-2.29 Z M 31.97,161 c -0.58,6.92 2.55,9.85 9.39,8.79 c 4.63,-1.35 4.35,-6.3 -1.21,-2.1 c -2.25,0.51 -3.91,-0.27 -4.98,-2.32 c -0.4,-0.88 -0.25,-1.62 0.44,-2.23 c 2.64,-0.2 5.29,-0.22 7.94,-0.06 c 1.45,-0.24 1.91,-1.09 1.38,-2.56 c -1.68,-7.92 -12.04,-7.41 -12.96,0.48 Z M 46.32,165.28 c 1.58,6.95 11.53,6.3 12.04,0.12 c -0.16,-4.34 -4.99,-3.8 -7.86,-5.39 c -1.56,-1.61 0.04,-3.29 1.95,-2.92 c 1.22,0.26 2.28,0.83 3.19,1.7 c 2.13,0.25 2.56,-0.5 1.27,-2.25 c -4.71,-4.73 -13.87,1.13 -8.56,5.58 c 2.15,0.92 4.34,1.76 6.57,2.5 c 0.72,1.62 0.21,2.69 -1.52,3.21 c -3.95,0.98 -3.14,-3.83 -7.08,-2.55 Z M 60.03,163 c 0.12,7.58 9.14,9.67 12.67,4.35 c 0.42,-2.88 -3.36,-0.41 -4.28,0.28 c -2.62,0.98 -4.6,-0.78 -5.32,-3.17 c -0.84,-3.05 8.71,-0.3 10.07,-2 c 0.47,-10.62 -13.9,-9.8 -13.14,0.54 Z M 74.94,161.06 c -0.01,1.77 0.13,3.53 0.42,5.28 c 1.43,3.04 3.79,4.23 7.06,3.57 c 0.78,-0.06 1.65,-1.18 2.32,-0.39 c -0.88,3.06 -2.79,3.99 -5.74,2.8 c -1.18,-1.07 -1.8,-3.71 -3.78,-1.66 c 0.27,2.09 1.4,3.5 3.38,4.23 c 5.94,1.06 8.88,-1.41 8.83,-7.42 c 0.1,-3.98 0.03,-7.95 -0.24,-11.9 c -1.05,-1.17 -2.08,0.05 -3.25,0.08 c -4.46,-2.13 -8.83,0.6 -9,5.41 Z M 90.15,158 c 0.32,2.06 -0.62,10.68 0.56,11.82 c 4.02,1.83 1.65,-6.52 2.25,-8.39 c -0.04,-1.62 0.53,-2.96 1.72,-4.03 c 0.93,-0.08 1.85,-0.22 2.76,-0.43 c 0.78,-1.14 0.47,-1.8 -0.95,-1.97 c -1.92,0.26 -3.85,0.32 -5.78,0.19 c -0.56,0.84 -0.74,1.78 -0.56,2.81 Z M 98.55,162.01 c -0.93,8.81 10.35,10.82 12.94,4.58 c -1.39,-1.52 -3.22,0.15 -4.46,1.03 c -3.23,1 -4.9,-1.18 -5.63,-4 c 2.03,-1.51 9.36,0.44 10.45,-1.28 c 0.36,-9.28 -12.32,-10.66 -13.3,-0.33 Z M 113.11,161.04 c -0.19,5.88 2.67,10.96 9.36,8.34 c 0.49,0.53 0.58,1.15 0.26,1.84 c -1.29,1.64 -2.9,2.07 -4.85,1.29 c -1.09,-1.25 -2.49,-3.65 -4.27,-1.89 c 0.68,3.18 2.65,4.66 5.91,4.43 c 9.05,-0.05 6.53,-13.27 6.32,-19.42 c -0.3,-0.49 -0.74,-0.69 -1.32,-0.58 c -6.1,1.71 -8.42,-3.27 -11.41,5.99 Z M 128.14,165.98 c 0.81,4.88 5.56,4.6 9.27,3.21 c 0.98,0.4 2,0.64 3.05,0.72 c 0.5,-0.31 0.71,-0.77 0.62,-1.37 c 0,-3.54 -0.14,-7.07 -0.43,-10.59 c -1.56,-4.49 -10.27,-4.14 -11.55,0.58 c 0.08,1.41 0.78,1.8 2.09,1.18 c 1.56,-2.36 3.48,-3.88 6.19,-1.64 c 1.05,1.45 0.77,2.48 -0.84,3.1 c -3.59,0.92 -7.37,0.29 -8.4,4.81 Z M 151.03,159 c 0.75,2.09 -1.88,12.46 2.31,10.87 c 1.3,-0.7 0.3,-11.46 0.64,-13.38 c -0.17,-1.38 -0.94,-1.84 -2.29,-1.37 c -1.08,0.89 -0.45,2.65 -0.66,3.88 Z M 156.15,163 c 0.04,9.67 14.21,9.98 13.64,-1.47 c -0.9,-9.15 -13.82,-9.16 -13.64,1.47 Z M 172.02,158 c -0.03,3.79 0.01,7.58 0.14,11.37 c 0.89,0.89 1.79,0.89 2.68,0 c 0.08,-3.27 0.17,-6.53 0.29,-9.8 c 1.2,-2.88 4.96,-3.65 5.83,-0.08 c 0.03,3.3 0.09,6.59 0.2,9.88 c 1.03,1.19 2.79,0.96 2.82,-0.86 c -0.04,-6.05 1.67,-16.72 -8.48,-12.96 c -2.61,-0.84 -3.9,-0.86 -3.48,2.45 Z M 34.99,159.98 c 1.03,-3.5 5.31,-3.89 6.91,-0.38 c 0.34,2.22 -6.61,1.95 -6.91,0.38 Z M 63.13,159.99 c 1.23,-3.37 5.38,-4.12 6.91,-0.42 c 0.23,2.25 -6.87,1.9 -6.91,0.42 Z M 77.53,162.08 c 0.29,-2.99 1.78,-6.02 5.23,-4.45 c 4.04,3.24 1.94,12.13 -2.86,9.91 c -1.78,-1.36 -2.57,-3.18 -2.37,-5.46 Z M 101.84,160.03 c 0.95,-4.13 6.28,-3.75 6.89,0.27 c -0.47,1.11 -6.57,1.25 -6.89,-0.27 Z M 115.98,162 c -0.26,-3.74 3.84,-6.81 6.5,-3.07 c 1.56,3.43 0.87,10.62 -4.51,8.42 c -1.68,-1.39 -2.35,-3.17 -1.99,-5.35 Z M 158.99,163 c -0.44,-2.59 0.51,-4.49 2.83,-5.7 c 5.13,-1.33 6.27,5.63 4.06,9.02 c -2.83,3.77 -7.17,0.35 -6.89,-3.32 Z M 131.15,165.96 c 0.55,-2.38 4.54,-1.71 6.33,-2.51 c 2.49,1.77 -3.93,7.5 -6.33,2.51 Z"/></g>
<g><path fill="#f8f8f8" d="M 0,0 c 3.68,0 7.35,0 11.03,0 c -2.27,1.07 -4.35,2.47 -6.26,4.2 c -1.89,2.1 -3.47,4.38 -4.77,6.84 c 0,-3.68 0,-7.36 0,-11.04 Z M 188.97,0 c 3.68,0 7.35,0 11.03,0 c 0,3.68 0,7.35 0,11.03 c -0.34,-0.08 -0.59,-0.28 -0.76,-0.6 c -1.47,-3.74 -3.91,-6.67 -7.34,-8.81 c -1.08,-0.4 -2.05,-0.94 -2.93,-1.62 Z M 13.54,167 c -0.06,-5.49 0.01,-10.97 0.21,-16.44 c 1.15,-1.26 7.87,-0.27 9.76,-0.49 c 8.66,1.49 9.05,17.75 0,19.84 c -2.68,0.16 -5.37,0.19 -8.05,0.1 c -1.76,-0.2 -2.4,-1.2 -1.92,-3.01 Z M 142.52,156 c 2.66,-1.81 0.6,-5.32 3.88,-5.63 c 1.02,0.64 0.21,2.9 0.74,3.97 c 2.92,1.9 2.97,1.44 -0.01,3.32 c -0.23,2.69 -0.42,7.03 0.15,9.58 c 0.8,0.5 1.56,1.04 2.29,1.64 c 0.77,1.29 -4.86,2.86 -5.4,-2.39 c -0.48,-3.09 1.27,-8.4 -1.65,-10.49 Z M 151.04,151.97 c -0.09,-1.67 0.68,-2.28 2.3,-1.84 c 2.18,2.08 -1.16,4.39 -2.3,1.84 Z M 16.83,165 c -0.62,3.83 3.63,2.44 5.84,2.29 c 5.47,-0.95 5.41,-10.11 2.27,-13.64 c -1.66,-1.02 -8.58,-2.83 -8.1,0.82 c 0,3.51 0,7.02 -0.01,10.53 Z M 31.97,161 c 0.92,-7.89 11.28,-8.4 12.96,-0.48 c 0.53,1.47 0.07,2.32 -1.38,2.56 c -2.65,-0.16 -5.3,-0.14 -7.94,0.06 c -0.69,0.61 -0.84,1.35 -0.44,2.23 c 1.07,2.05 2.73,2.83 4.98,2.32 c 5.56,-4.2 5.84,0.75 1.21,2.1 c -6.84,1.06 -9.97,-1.87 -9.39,-8.79 Z M 46.32,165.28 c 3.94,-1.28 3.13,3.53 7.08,2.55 c 1.73,-0.52 2.24,-1.59 1.52,-3.21 c -2.23,-0.74 -4.42,-1.58 -6.57,-2.5 c -5.31,-4.45 3.85,-10.31 8.56,-5.58 c 1.29,1.75 0.86,2.5 -1.27,2.25 c -0.91,-0.87 -1.97,-1.44 -3.19,-1.7 c -1.91,-0.37 -3.51,1.31 -1.95,2.92 c 2.87,1.59 7.7,1.05 7.86,5.39 c -0.51,6.18 -10.46,6.83 -12.04,-0.12 Z M 60.03,163 c -0.76,-10.34 13.61,-11.16 13.14,-0.54 c -1.36,1.7 -10.91,-1.05 -10.07,2 c 0.72,2.39 2.7,4.15 5.32,3.17 c 0.92,-0.69 4.7,-3.16 4.28,-0.28 c -3.53,5.32 -12.55,3.23 -12.67,-4.35 Z M 74.94,161.06 c 0.17,-4.81 4.54,-7.54 9,-5.41 c 1.17,-0.03 2.2,-1.25 3.25,-0.08 c 0.27,3.95 0.34,7.92 0.24,11.9 c 0.05,6.01 -2.89,8.48 -8.83,7.42 c -1.98,-0.73 -3.11,-2.14 -3.38,-4.23 c 1.98,-2.05 2.6,0.59 3.78,1.66 c 2.95,1.19 4.86,0.26 5.74,-2.8 c -0.67,-0.79 -1.54,0.33 -2.32,0.39 c -3.27,0.66 -5.63,-0.53 -7.06,-3.57 c -0.29,-1.75 -0.43,-3.51 -0.42,-5.28 Z M 90.15,158 c -0.18,-1.03 0,-1.97 0.56,-2.81 c 1.93,0.13 3.86,0.07 5.78,-0.19 c 1.42,0.17 1.73,0.83 0.95,1.97 c -0.91,0.21 -1.83,0.35 -2.76,0.43 c -1.19,1.07 -1.76,2.41 -1.72,4.03 c -0.6,1.87 1.77,10.22 -2.25,8.39 c -1.18,-1.14 -0.24,-9.76 -0.56,-11.82 Z M 98.55,162.01 c 0.98,-10.33 13.66,-8.95 13.3,0.33 c -1.09,1.72 -8.42,-0.23 -10.45,1.28 c 0.73,2.82 2.4,5 5.63,4 c 1.24,-0.88 3.07,-2.55 4.46,-1.03 c -2.59,6.24 -13.87,4.23 -12.94,-4.58 Z M 151.03,159 c 0.21,-1.23 -0.42,-2.99 0.66,-3.88 c 1.35,-0.47 2.12,-0.01 2.29,1.37 c -0.34,1.92 0.66,12.68 -0.64,13.38 c -4.19,1.59 -1.56,-8.78 -2.31,-10.87 Z M 156.15,163 c -0.18,-10.63 12.74,-10.62 13.64,-1.47 c 0.57,11.45 -13.6,11.14 -13.64,1.47 Z M 34.99,159.98 c 0.3,1.57 7.25,1.84 6.91,-0.38 c -1.6,-3.51 -5.88,-3.12 -6.91,0.38 Z M 63.13,159.99 c 0.04,1.48 7.14,1.83 6.91,-0.42 c -1.53,-3.7 -5.68,-2.95 -6.91,0.42 Z M 77.53,162.08 c -0.2,2.28 0.59,4.1 2.37,5.46 c 4.8,2.22 6.9,-6.67 2.86,-9.91 c -3.45,-1.57 -4.94,1.46 -5.23,4.45 Z M 101.84,160.03 c 0.32,1.52 6.42,1.38 6.89,0.27 c -0.61,-4.02 -5.94,-4.4 -6.89,-0.27 Z M 158.99,163 c -0.28,3.67 4.06,7.09 6.89,3.32 c 2.21,-3.39 1.07,-10.35 -4.06,-9.02 c -2.32,1.21 -3.27,3.11 -2.83,5.7 Z M 0,188.96 c 0.77,0.85 1.33,1.84 1.68,2.98 c 2.77,4.6 5.95,5.85 10.36,8.06 c -4.02,0 -8.03,0 -12.04,0 c 0,-3.68 0,-7.36 0,-11.04 Z M 200,188.96 c 0,3.68 0,7.36 0,11.04 c -4.01,0 -8.03,0 -12.04,0 c 0.06,-0.12 8.18,-4.38 10.38,-8.09 c 0.38,-1.1 0.93,-2.08 1.66,-2.95 Z"/></g>
<g><path fill="#f6f6f6" d="M 113.11,161.04 c 2.99,-9.26 5.31,-4.28 11.41,-5.99 c 0.58,-0.11 1.02,0.09 1.32,0.58 c 0.21,6.15 2.73,19.37 -6.32,19.42 c -3.26,0.23 -5.23,-1.25 -5.91,-4.43 c 1.78,-1.76 3.18,0.64 4.27,1.89 c 1.95,0.78 3.56,0.35 4.85,-1.29 c 0.32,-0.69 0.23,-1.31 -0.26,-1.84 c -6.69,2.62 -9.55,-2.46 -9.36,-8.34 Z M 128.14,165.98 c 1.03,-4.52 4.81,-3.89 8.4,-4.81 c 1.61,-0.62 1.89,-1.65 0.84,-3.1 c -2.71,-2.24 -4.63,-0.72 -6.19,1.64 c -1.31,0.62 -2.01,0.23 -2.09,-1.18 c 1.28,-4.72 9.99,-5.07 11.55,-0.58 c 0.29,3.52 0.43,7.05 0.43,10.59 c 0.09,0.6 -0.12,1.06 -0.62,1.37 c -1.05,-0.08 -2.07,-0.32 -3.05,-0.72 c -3.71,1.39 -8.46,1.67 -9.27,-3.21 Z M 172.02,158 c -0.42,-3.31 0.87,-3.29 3.48,-2.45 c 10.15,-3.76 8.44,6.91 8.48,12.96 c -0.03,1.82 -1.79,2.05 -2.82,0.86 c -0.11,-3.29 -0.17,-6.58 -0.2,-9.88 c -0.87,-3.57 -4.63,-2.8 -5.83,0.08 c -0.12,3.27 -0.21,6.53 -0.29,9.8 c -0.89,0.89 -1.79,0.89 -2.68,0 c -0.13,-3.79 -0.17,-7.58 -0.14,-11.37 Z M 115.98,162 c -0.36,2.18 0.31,3.96 1.99,5.35 c 5.38,2.2 6.07,-4.99 4.51,-8.42 c -2.66,-3.74 -6.76,-0.67 -6.5,3.07 Z M 131.15,165.96 c 2.4,4.99 8.82,-0.74 6.33,-2.51 c -1.79,0.8 -5.78,0.13 -6.33,2.51 Z"/></g>
<g><path fill="#ff9800" stroke="#ff9800" stroke-width="0.5" d="M 9.99,137 c 0,-38.84 0.01,-77.67 0.02,-116.51 c 0.76,-6.85 4.59,-10.35 11.49,-10.49 c 52.33,0 104.67,0 157,0 c 7.39,0.27 11.22,4.1 11.51,11.5 c -0.01,39.01 -0.01,78.01 0,117.02 c 0.04,0.58 -0.17,1.02 -0.64,1.35 c -59.29,0.13 -118.59,0.18 -177.89,0.14 c -1.86,0.16 -1.47,-1.83 -1.49,-3.01 Z M 147.13,43.13 c -0.39,0.54 -0.76,1.08 -1.13,1.63 c -3.27,-1.78 -7.72,0.91 -11.48,0 c -12.61,-1.05 -32.15,-8.17 -44.03,-4.79 c -5.65,1.99 -11.28,4.03 -16.89,6.13 c -2.35,1.78 4.3,4.22 1.78,5.77 c -4.41,1.03 -3.35,-5.18 -6.75,-3.71 c -3.29,1.67 -8.19,9.08 -11.76,8.47 c -0.04,-0.11 -0.08,-0.21 -0.12,-0.32 c 1.64,-0.87 2.92,-2.09 3.84,-3.67 c -1.99,-0.36 -4.02,-0.59 -6.08,-0.71 c -1.63,0 -5.85,-2.65 -6.89,-0.91 c -2.56,6.42 -4.7,11.3 -4.87,18.33 c -1.7,6.02 -3.25,12.07 -4.65,18.17 c -0.4,1.23 -0.17,2.31 0.69,3.23 c 4.64,2.92 8.72,5.29 13.15,8.47 c 0.65,0.22 1.29,0.18 1.93,-0.11 c 0.05,0.32 0.1,0.65 0.15,0.97 c -1.47,1.69 -2.68,3.54 -3.64,5.55 c -1.51,7.82 8.54,10.68 11.51,3.24 c 0.29,0.05 0.57,0.09 0.86,0.13 c -2.81,6.59 4.93,12.54 9.61,6.77 c 0.36,0.36 0.73,0.72 1.09,1.09 c -1.1,1.95 -0.71,3.59 1.16,4.91 c 3.72,2.96 7.78,3.5 12.18,1.63 c 1.38,-0.51 1.51,-1.26 0.39,-2.24 c 0.18,-0.04 0.36,-0.07 0.55,-0.11 c 1.99,0.5 3.96,1.11 5.89,1.83 c 1.51,0.82 11.63,-0.08 8.29,-3.18 c -1.92,-1.43 -3.7,-3 -5.35,-4.72 c -2.59,-0.93 -5.05,-2.14 -7.36,-3.63 c 0.72,-0.05 1.43,0 2.14,0.15 c 3.1,1.01 6.44,1.52 8.29,4.48 c 4.48,2.53 7.1,6.54 12.86,4.94 c 3.58,-0.58 5.29,-4.33 2.44,-6.95 c 0.08,-0.28 0.17,-0.56 0.25,-0.83 c 0.42,-0.14 0.84,-0.18 1.28,-0.12 c 3.68,1.68 6.99,0.87 10.56,-0.56 c 5.58,-7.12 0.25,-12.1 -5.21,-16.79 c -1.07,-0.75 -0.69,-2.06 0.47,-1.28 c 4.35,2.75 17.12,13.99 21.48,7.83 c 4.06,-6.07 1.9,-8.53 -0.6,-14.25 c 0.65,0 1.28,-0.05 1.92,-0.17 c 1.18,1.05 1.96,3.95 3.97,2.95 c 5.78,-4.88 9.89,-7.96 16.54,-11.64 c 0.49,-1.41 0.41,-2.8 -0.22,-4.19 c 0.43,-0.29 0.86,-0.58 1.28,-0.86 c 0.58,1.58 1.73,4.9 2.94,5.93 c 0.93,0.13 1.84,0.04 2.74,-0.29 c 3.45,-1.02 6.84,-2.12 10.19,-3.3 c -2.27,-6.28 -16.82,-40.47 -24.01,-39.43 c -3.52,1.08 -8.77,2.47 -11.94,4.1 c -0.83,0.87 -0.07,1.38 0.56,2.06 Z M 15.36,85.98 c 0.13,0.59 0.52,0.89 1.16,0.89 c 5.4,0.87 10.78,1.83 16.15,2.89 c 0.79,0.23 1.46,0.07 2.02,-0.49 c 0.67,-3.94 1.46,-7.85 2.36,-11.76 c 1.7,-6.12 3.58,-12.19 5.63,-18.2 c 0.17,-3.41 0.89,-6.7 2.18,-9.86 c 0.16,-0.56 0,-0.99 -0.47,-1.3 c -4.44,-1.01 -8.79,-2.29 -13.06,-3.86 c -0.48,-0.17 -0.89,-0.06 -1.22,0.34 c -6.3,13.49 -9.17,27.67 -14.75,41.35 Z"/></g>
<g><path fill="#cc7a00" d="M 56.75,56.31 c 0.04,0.11 0.08,0.21 0.12,0.32 c -0.06,0.44 -0.21,0.85 -0.46,1.22 c -2.18,1.9 -2.81,2.64 -2.34,5.69 c -0.04,2.71 6.56,2.44 8.23,2.09 c 2.56,-1.03 5.14,-2.02 7.74,-2.97 c 2.36,-0.92 4.55,-2.13 6.57,-3.63 c 1.61,-1.89 0.97,-2.25 4.02,-2.16 c 0.57,-0.07 1.01,0.12 1.34,0.55 c -1.34,0.73 -2.72,1.4 -4.17,2.01 c -3.72,3.6 -8.89,5.04 -13.48,7.26 c -2.95,0.33 -5.91,0.43 -8.9,0.31 c -2.59,-0.02 -4.21,-3.22 -3.8,-5.54 c 1.17,-2.02 2.86,-4.28 5.13,-5.15 Z"/></g>
<g><path fill="#f19000" d="M 147.13,43.13 c 2.66,1.65 5.07,3.63 7.2,5.94 c 2.36,4.01 4.77,7.97 7.25,11.9 c 1.16,2.47 2.32,4.94 3.47,7.42 c 0.61,1.87 1.14,3.76 1.6,5.67 c -0.42,0.28 -0.85,0.57 -1.28,0.86 c -5.47,-9.36 -10.27,-23.97 -19.37,-30.16 c 0.37,-0.55 0.74,-1.09 1.13,-1.63 Z M 145.08,87.8 c -0.64,0.12 -1.27,0.17 -1.92,0.17 c -3.63,-3.57 -8.46,-5.1 -12.16,-8.64 c -3.12,-2.02 -5.13,-3.23 -8.63,-4.12 c -5.93,-5.27 -15.09,-8.9 -21.79,-13.33 c -1.7,-1.6 -3.56,-2.97 -5.58,-4.13 c -2.91,-1.72 -10.13,0.2 -11.75,-1.3 c 1.72,-0.49 3.47,-0.97 5.24,-1.45 c 6.52,-1.7 18.22,7.54 23.47,11.32 c 6.65,1.41 10.13,6.35 16.01,9.23 c 4.15,0.85 14.99,8.54 17.11,12.25 Z M 87.73,121.05 c -0.19,0.04 -0.37,0.07 -0.55,0.11 c -2.18,-1.7 -4.27,-3.5 -6.27,-5.41 c -2.86,-2.05 -5.35,-1.68 -7.46,1.11 c -0.36,-0.37 -0.73,-0.73 -1.09,-1.09 c 2.27,-2.79 5.31,-8.19 1.56,-11.07 c -2.67,-1.11 -5.41,-1.29 -8.24,-0.53 c -0.83,1.69 -1.8,3.3 -2.93,4.83 c -0.29,-0.04 -0.57,-0.08 -0.86,-0.13 c 3.52,-5.64 1.11,-10.11 -5.55,-10.47 c -1.07,0.09 -1.84,0.65 -2.32,1.68 c -0.05,-0.32 -0.1,-0.65 -0.15,-0.97 c -0.02,-2.37 1.19,-3.43 3.63,-3.16 c 2.56,-0.17 4.78,0.63 6.64,2.38 c 0.67,1.44 1.18,2.9 1.55,4.38 c 3.74,-1.4 7.31,-0.25 10.8,1.3 c 1.95,1.76 -0.55,6.99 1.13,8.86 c 0.94,0.14 1.88,0.21 2.82,0.24 c 1.57,0.18 2.86,3.05 3.86,4.09 c 0.87,1.23 4.36,1.94 3.43,3.85 Z M 106.92,106 c 0.26,-0.02 0.52,-0.04 0.79,-0.06 c 0.69,0.2 1.3,0.54 1.82,1.03 c 1.5,1.86 3.2,3.52 5.1,4.98 c 0.28,0.35 0.47,0.75 0.55,1.19 c -0.08,0.27 -0.17,0.55 -0.25,0.83 c -1.32,-0.78 -2.6,-1.61 -3.84,-2.5 c -1.31,-1.91 -2.7,-3.74 -4.17,-5.47 Z"/></g>
<g><path fill="#020101" stroke="#020101" stroke-width="0.5" d="M 166.65,74.06 c -0.46,-1.91 -0.99,-3.8 -1.6,-5.67 c -1.15,-2.48 -2.31,-4.95 -3.47,-7.42 c -2.48,-3.93 -4.89,-7.89 -7.25,-11.9 c -2.13,-2.31 -4.54,-4.29 -7.2,-5.94 c -0.63,-0.68 -1.39,-1.19 -0.56,-2.06 c 3.17,-1.63 8.42,-3.02 11.94,-4.1 c 7.19,-1.04 21.74,33.15 24.01,39.43 c -3.35,1.18 -6.74,2.28 -10.19,3.3 c -0.9,0.33 -1.81,0.42 -2.74,0.29 c -1.21,-1.03 -2.36,-4.35 -2.94,-5.93 Z M 146,44.76 c 9.1,6.19 13.9,20.8 19.37,30.16 c 0.63,1.39 0.71,2.78 0.22,4.19 c -6.65,3.68 -10.76,6.76 -16.54,11.64 c -2.01,1 -2.79,-1.9 -3.97,-2.95 c -2.12,-3.71 -12.96,-11.4 -17.11,-12.25 c -5.88,-2.88 -9.36,-7.82 -16.01,-9.23 c -5.25,-3.78 -16.95,-13.02 -23.47,-11.32 c -1.77,0.48 -3.52,0.96 -5.24,1.45 c 1.62,1.5 8.84,-0.42 11.75,1.3 c 2.02,1.16 3.88,2.53 5.58,4.13 c 6.7,4.43 15.86,8.06 21.79,13.33 c 3.5,0.89 5.51,2.1 8.63,4.12 c 3.7,3.54 8.53,5.07 12.16,8.64 c 2.5,5.72 4.66,8.18 0.6,14.25 c -4.36,6.16 -17.13,-5.08 -21.48,-7.83 c -1.16,-0.78 -1.54,0.53 -0.47,1.28 c 5.46,4.69 10.79,9.67 5.21,16.79 c -3.57,1.43 -6.88,2.24 -10.56,0.56 c -0.44,-0.06 -0.86,-0.02 -1.28,0.12 c -0.08,-0.44 -0.27,-0.84 -0.55,-1.19 c -1.9,-1.46 -3.6,-3.12 -5.1,-4.98 c -0.52,-0.49 -1.13,-0.83 -1.82,-1.03 c -0.07,-1.09 -1.87,-2.45 -2.69,-1.45 c 0.19,1.04 0.82,1.54 1.9,1.51 c 1.47,1.73 2.86,3.56 4.17,5.47 c 1.24,0.89 2.52,1.72 3.84,2.5 c 2.85,2.62 1.14,6.37 -2.44,6.95 c -5.76,1.6 -8.38,-2.41 -12.86,-4.94 c -1.85,-2.96 -5.19,-3.47 -8.29,-4.48 c -0.71,-0.15 -1.42,-0.2 -2.14,-0.15 c 2.31,1.49 4.77,2.7 7.36,3.63 c 1.65,1.72 3.43,3.29 5.35,4.72 c 3.34,3.1 -6.78,4 -8.29,3.18 c -1.93,-0.72 -3.9,-1.33 -5.89,-1.83 c 0.93,-1.91 -2.56,-2.62 -3.43,-3.85 c -1,-1.04 -2.29,-3.91 -3.86,-4.09 c -0.94,-0.03 -1.88,-0.1 -2.82,-0.24 c -1.68,-1.87 0.82,-7.1 -1.13,-8.86 c -3.49,-1.55 -7.06,-2.7 -10.8,-1.3 c -0.37,-1.48 -0.88,-2.94 -1.55,-4.38 c -1.86,-1.75 -4.08,-2.55 -6.64,-2.38 c -2.44,-0.27 -3.65,0.79 -3.63,3.16 c -0.64,0.29 -1.28,0.33 -1.93,0.11 c -4.43,-3.18 -8.51,-5.55 -13.15,-8.47 c -0.86,-0.92 -1.09,-2 -0.69,-3.23 c 1.4,-6.1 2.95,-12.15 4.65,-18.17 c 0.17,-7.03 2.31,-11.91 4.87,-18.33 c 1.04,-1.74 5.26,0.91 6.89,0.91 c 2.06,0.12 4.09,0.35 6.08,0.71 c -0.92,1.58 -2.2,2.8 -3.84,3.67 c -2.27,0.87 -3.96,3.13 -5.13,5.15 c -0.41,2.32 1.21,5.52 3.8,5.54 c 2.99,0.12 5.95,0.02 8.9,-0.31 c 4.59,-2.22 9.76,-3.66 13.48,-7.26 c 1.45,-0.61 2.83,-1.28 4.17,-2.01 c -0.33,-0.43 -0.77,-0.62 -1.34,-0.55 c -3.05,-0.09 -2.41,0.27 -4.02,2.16 c -2.02,1.5 -4.21,2.71 -6.57,3.63 c -2.6,0.95 -5.18,1.94 -7.74,2.97 c -1.67,0.35 -8.27,0.62 -8.23,-2.09 c -0.47,-3.05 0.16,-3.79 2.34,-5.69 c 0.25,-0.37 0.4,-0.78 0.46,-1.22 c 3.57,0.61 8.47,-6.8 11.76,-8.47 c 3.4,-1.47 2.34,4.74 6.75,3.71 c 2.52,-1.55 -4.13,-3.99 -1.78,-5.77 c 5.61,-2.1 11.24,-4.14 16.89,-6.13 c 11.88,-3.38 31.42,3.74 44.03,4.79 c 3.76,0.91 8.21,-1.78 11.48,0 Z M 15.36,85.98 c 5.58,-13.68 8.45,-27.86 14.75,-41.35 c 0.33,-0.4 0.74,-0.51 1.22,-0.34 c 4.27,1.57 8.62,2.85 13.06,3.86 c 0.47,0.31 0.63,0.74 0.47,1.3 c -1.29,3.16 -2.01,6.45 -2.18,9.86 c -2.05,6.01 -3.93,12.08 -5.63,18.2 c -0.9,3.91 -1.69,7.82 -2.36,11.76 c -0.56,0.56 -1.23,0.72 -2.02,0.49 c -5.37,-1.06 -10.75,-2.02 -16.15,-2.89 c -0.64,0 -1.03,-0.3 -1.16,-0.89 Z M 116.02,91.2 c 0.7,1.4 1.83,2.24 3.41,2.52 c 2.25,-0.68 -2.64,-2.82 -3.41,-2.52 Z M 61.89,108.87 c -2.97,7.44 -13.02,4.58 -11.51,-3.24 c 0.96,-2.01 2.17,-3.86 3.64,-5.55 c 0.48,-1.03 1.25,-1.59 2.32,-1.68 c 6.66,0.36 9.07,4.83 5.55,10.47 Z M 72.36,115.77 c -4.68,5.77 -12.42,-0.18 -9.61,-6.77 c 1.13,-1.53 2.1,-3.14 2.93,-4.83 c 2.83,-0.76 5.57,-0.58 8.24,0.53 c 3.75,2.88 0.71,8.28 -1.56,11.07 Z M 87.18,121.16 c 1.12,0.98 0.99,1.73 -0.39,2.24 c -4.4,1.87 -8.46,1.33 -12.18,-1.63 c -1.87,-1.32 -2.26,-2.96 -1.16,-4.91 c 2.11,-2.79 4.6,-3.16 7.46,-1.11 c 2,1.91 4.09,3.71 6.27,5.41 Z"/></g>
<g><path fill="#bf7200" d="M 107.71,105.94 c -0.27,0.02 -0.53,0.04 -0.79,0.06 c -1.08,0.03 -1.71,-0.47 -1.9,-1.51 c 0.82,-1 2.62,0.36 2.69,1.45 Z"/></g>
<g><path fill="#492b00" d="M 116.02,91.2 c 0.77,-0.3 5.66,1.84 3.41,2.52 c -1.58,-0.28 -2.71,-1.12 -3.41,-2.52 Z"/></g>
</svg>
