<?xml version="1.0" encoding="UTF-8"?>
<!DOCTYPE svg PUBLIC "-//W3C//DTD SVG 1.1//EN" "http://www.w3.org/Graphics/SVG/1.1/DTD/svg11.dtd">
<svg xmlns="http://www.w3.org/2000/svg" version="1.1" width="200px" height="200px" style="shape-rendering:geometricPrecision; text-rendering:geometricPrecision; image-rendering:optimizeQuality; fill-rule:evenodd; clip-rule:evenodd" xmlns:xlink="http://www.w3.org/1999/xlink">
<rect x="0" y="0" width="200" height="200" fill="#222222"/>
<g><path fill="#222222" stroke="#222222" stroke-width="0.5" d="M 11.03,0 c 59.31,0 118.63,0 177.94,0 c 0.88,0.68 1.85,1.22 2.94,1.62 c 3.41,2.14 5.86,5.08 7.32,8.81 c 0.18,0.32 0.43,0.52 0.77,0.6 c 0,59.31 0,118.62 0,177.92 c -3.3,5.35 -4.47,8.36 -11.36,10.39 c -0.31,0.14 -0.54,0.36 -0.68,0.66 c -58.64,0 -117.28,0 -175.92,0 c -0.7,-0.37 -8.57,-3.56 -10.36,-8.07 c -0.31,-1.15 -0.87,-2.14 -1.68,-2.96 c 0,-59.31 0,-118.62 0,-177.93 c 1.29,-2.46 2.88,-4.74 4.77,-6.84 c 1.91,-1.73 3.99,-3.13 6.26,-4.2 Z M 9.99,137 c 0.06,1.17 -0.38,3.2 1.5,2.98 c 16.68,0.02 33.35,0.02 50.03,0.01 c 0.55,0.03 0.96,-0.19 1.23,-0.64 c -0.3,-1.44 -1.08,-6.79 -2.3,-7.32 c -4.7,1.24 -9.42,2.44 -14.16,3.59 c -8.98,1.84 -26.77,2.54 -25.94,-10.97 c 1.96,-12.01 10.9,-19.43 18.95,-27.66 c 0.37,-0.38 0.51,-0.83 0.41,-1.35 c -3.71,-3.87 -7.38,-7.8 -11,-11.78 c -14.71,-17.74 -10.29,-31.26 14.31,-28.35 c 5.88,1.13 11.67,2.58 17.38,4.34 c 0.48,-0.2 0.77,-0.56 0.86,-1.07 c 3.11,-11.85 6.82,-29.99 21.27,-32.49 c 11.59,1.42 17.43,22.83 19.43,32.31 c 0.04,0.52 0.28,0.92 0.72,1.2 c 5.7,-1.64 11.48,-3.04 17.33,-4.21 c 26.46,-3.69 28.96,12.36 13.72,29.68 c -3.3,3.43 -6.59,6.87 -9.87,10.3 c -0.13,0.61 0.03,1.13 0.47,1.57 c 7.28,7.18 14.79,13.88 18.18,23.86 c 6.13,21.93 -27.48,15.17 -38.18,11.11 c -0.86,-0.29 -1.58,-0.11 -2.17,0.53 c -0.38,1.63 -0.78,3.26 -1.19,4.88 c -0.56,1.54 -0.06,2.37 1.51,2.48 c 28.97,0.04 57.93,0 86.89,-0.14 c 0.46,-0.33 0.67,-0.77 0.61,-1.35 c 0.04,-36.65 0.02,-73.3 -0.06,-109.96 c 0.09,-8.18 0.68,-16.78 -9.56,-18.29 c -50.27,-0.28 -100.55,-0.34 -150.83,-0.19 c -8.77,-0.09 -18.49,-0.93 -19.34,10.56 c -0.18,38.79 -0.25,77.58 -0.2,116.37 Z M 67.81,62.05 c 4.24,2.66 9.41,4.99 14.28,6.2 c 1.84,-0.71 12.99,-4.96 13.52,-6.03 c -1.53,-8.81 -4.16,-22.79 -12.02,-28.23 c -8.85,-4.34 -15.49,22.57 -15.78,28.06 Z M 26.93,67 c 1.47,9.63 11.27,17.37 17.97,23.72 c 0.7,0.31 1.36,0.22 1.97,-0.27 c 3.66,-2.68 7.24,-5.45 10.73,-8.33 c 0.86,-4.58 1.49,-9.21 1.9,-13.86 c 0.14,-0.65 -0.02,-1.19 -0.48,-1.64 c -5.95,-2.38 -31.15,-10.06 -32.09,0.38 Z M 103.85,68 c 0.45,4.68 1.06,9.34 1.82,13.96 c 3.78,3.24 7.73,6.22 11.87,8.96 c 0.51,0.03 0.95,-0.15 1.3,-0.53 c 6.07,-5.23 17.33,-15.26 17.63,-23.73 c -1.37,-10.01 -25.62,-2.24 -31.64,-0.29 c -0.64,0.35 -0.97,0.89 -0.98,1.63 Z M 90.27,72.33 c 0.1,1.33 6.55,4.95 7.42,3.98 c -0.51,-8.08 -0.47,-7.89 -7.42,-3.98 Z M 65.87,76.03 c 0.48,1.75 7.17,-2.66 6.97,-3.39 c -5.6,-3.97 -7.27,-3.58 -6.97,3.39 Z M 64.86,95 c 0.26,2.21 -0.1,9.5 0.71,11.05 c 3,1.61 14.5,9.7 17.41,8.47 c 3.6,-1.81 13.35,-6.6 15.44,-9.54 c 0.15,-4.22 0.99,-15.07 -0.3,-18.58 c -5.01,-3.53 -10.28,-6.61 -15.81,-9.24 c -3,-0.34 -13.58,7.1 -16.74,8.79 c -0.46,2.98 -0.69,6 -0.71,9.05 Z M 73.72,96 c 0.44,-8.83 11.8,-11.25 15.45,-2.89 c 3.34,11.65 -13.6,15.51 -15.45,2.89 Z M 51.76,96 c 8.46,10.44 5.79,-3.84 5.62,-4.49 c -2,1.18 -4.29,2.52 -5.62,4.49 Z M 105.87,98.01 c -0.72,4.34 4.43,-0.62 5.45,-1.15 c 1.9,-1.07 -5.48,-6.99 -5.47,-3.43 c 0.04,1.52 0.04,3.05 0.02,4.58 Z M 26.94,125 c 1.98,9.91 25.52,2.7 31.79,0.23 c 0.7,-0.3 1,-0.82 0.91,-1.58 c -0.7,-2.45 -0.9,-13.79 -2.82,-14.94 c -3.41,-2.49 -6.81,-5 -10.2,-7.53 c -0.52,-0.39 -1.08,-0.45 -1.68,-0.2 c -7.15,6.16 -16.39,14.24 -18,24.02 Z M 103.89,124.04 c 0.57,2.32 13.52,4.97 16.1,5.43 c 16.69,2.61 21.25,-3.23 10.59,-16.69 c -1.83,-2.08 -10.81,-11.96 -13.02,-11.86 c -3.03,1.95 -5.98,4.04 -8.86,6.26 c -1.19,0.79 -2.24,1.72 -3.17,2.79 c -0.64,4.67 -1.19,9.36 -1.64,14.07 Z M 65.88,115.96 c -0.14,7.56 1.01,6.82 6.84,3.32 c 0.38,-0.76 -6.37,-5.45 -6.84,-3.32 Z M 90.55,119 c 0.87,0.82 6.58,4.81 6.58,1.54 c 1.75,-8.76 -1.74,-4.84 -6.58,-1.54 Z M 67.79,129.94 c 0.41,3.07 1,6.09 1.78,9.08 c 0.44,0.7 1.09,0.99 1.93,0.88 c 7.27,0.13 14.53,0.09 21.79,-0.13 c 1,-0.66 2.12,-8.44 2.35,-10.01 c -0.21,-0.43 -0.55,-0.71 -1.01,-0.85 c -4.27,-2 -8.61,-3.83 -13.02,-5.49 c -4.54,1.5 -9.92,3.72 -13.82,6.52 Z M 37.15,146 c 0.02,5.16 0.02,10.32 0,15.49 c -0.21,1.58 1.88,2.19 2.83,1.02 c 0.45,-2.66 -0.66,-12.45 0.48,-14.12 c 3,4.55 5.98,9.12 8.92,13.72 c 0.89,1.24 3.5,1.62 3.59,-0.6 c 0.04,-5.96 -0.01,-11.92 -0.14,-17.87 c -0.89,-0.89 -1.77,-0.89 -2.66,0 c -0.13,3.96 -0.18,7.93 -0.14,11.9 c 0.03,0.52 -0.13,0.95 -0.49,1.3 c -3.01,-4.29 -5.89,-8.68 -8.65,-13.18 c -2.72,-1.47 -3.97,-0.69 -3.74,2.34 Z M 96.48,143.46 c 1.58,6.27 3.17,12.55 4.77,18.84 c 0.72,1.08 2.84,1.04 3.5,0 c 1.2,-4.54 2.39,-9.08 3.58,-13.63 c 0.2,-0.36 0.51,-0.51 0.91,-0.44 c 1.5,4.62 2.83,9.31 4.01,14.07 c 0.87,0.8 1.85,0.94 2.95,0.4 c 1.56,-5.2 3.04,-10.44 4.46,-15.71 c 0.39,-1.25 0.56,-2.49 0.53,-3.73 c -1.09,-0.5 -2.02,-0.32 -2.8,0.55 c -0.93,3.84 -1.79,7.7 -2.6,11.57 c -0.53,0.78 -1.09,0.8 -1.65,0.04 c -0.93,-3.69 -1.92,-7.36 -3,-11 c -0.42,-1.28 -1.31,-1.78 -2.68,-1.48 c -0.58,-0.01 -1.02,0.24 -1.3,0.75 c -1.05,3.61 -2.05,7.22 -2.98,10.86 c -0.18,1.27 -1.06,2.38 -2.02,0.88 c -0.85,-3.89 -1.68,-7.78 -2.49,-11.67 c -0.97,-0.81 -2.04,-0.91 -3.19,-0.3 Z M 146.13,148 c 0.37,2.02 -0.6,14.11 0.58,14.82 c 1.34,0.52 2.1,0.09 2.26,-1.31 c -0.01,-5.67 -0.01,-11.35 0,-17.02 c 0.17,-1.68 -1.84,-2.03 -2.7,-0.79 c -0.12,1.43 -0.16,2.86 -0.14,4.3 Z M 151.16,155 c -0.11,3.38 1.58,7.58 5.38,8 c 2.25,-0.34 4.5,-0.4 6.75,-0.19 c 0.42,-0.34 0.61,-0.78 0.56,-1.32 c -0.02,-5.66 -0.02,-11.32 0,-16.98 c -0.14,-1.34 -0.87,-1.8 -2.19,-1.38 c -1.62,1.52 0.31,4.45 -1.16,5.71 c -1.26,-0.65 -2.6,-0.94 -4.02,-0.88 c -3.65,0.52 -5.04,3.69 -5.32,7.04 Z M 55.55,156 c 0.12,7.8 9.6,9.61 12.76,4.05 c 0.81,-1.06 -1.18,-1.07 -1.69,-0.97 c -2.1,0.65 -2.49,2.45 -5.07,1.66 c -1.82,-0.78 -2.87,-2.16 -3.16,-4.13 c 0.57,-0.44 1.23,-0.62 1.98,-0.57 c 2.67,0.01 5.33,-0.05 7.98,-0.19 c 0.55,-0.63 0.7,-1.36 0.45,-2.2 c -2.19,-9.14 -13.84,-6.81 -13.25,2.35 Z M 69.26,148.26 c 1.42,4.87 2.91,9.71 4.47,14.52 c 1.13,0.44 2.15,0.28 3.05,-0.46 c 0.65,-2.45 1.24,-4.91 1.78,-7.39 c 0.19,-0.31 0.46,-0.5 0.82,-0.57 c 0.91,2.48 1.63,5.05 2.18,7.72 c 0.68,0.92 1.55,1.12 2.59,0.58 c 1.63,-4.63 3.15,-9.31 4.56,-14.03 c -0.53,-0.61 -1.2,-0.76 -1.99,-0.44 c -1.05,2.88 -2.14,5.74 -3.25,8.59 c -0.58,-0.24 -0.93,-0.67 -1.05,-1.3 c -0.46,-2.29 -1.01,-4.56 -1.64,-6.8 c -0.76,-1.12 -2.7,-0.91 -3.31,0.19 c -0.41,0.32 -1.53,10.93 -3.15,7.5 c -0.65,-2.7 -1.39,-5.35 -2.23,-7.97 c -0.91,-0.39 -1.86,-0.43 -2.83,-0.14 Z M 121.97,155.08 c -0.87,11.9 16.2,10.94 12.73,-3.15 c -3.44,-6.74 -13.31,-4.76 -12.73,3.15 Z M 137.15,151 c 0.69,1.74 -1.91,15.28 2.83,11.46 c -0.02,-2.68 0,-5.35 0.05,-8.03 c -0.11,-1.61 0.42,-2.94 1.62,-3.99 c 0.95,-0.09 1.89,-0.25 2.82,-0.49 c 0.75,-1.14 0.42,-1.79 -0.97,-1.95 c -1.93,0.26 -3.86,0.32 -5.79,0.19 c -0.56,0.84 -0.74,1.78 -0.56,2.81 Z M 58.84,153.03 c 0.98,-4.15 6.25,-3.75 6.93,0.28 c -0.67,1.1 -6.5,1.17 -6.93,-0.28 Z M 124.59,156.22 c -0.05,-1.24 0.12,-2.46 0.51,-3.64 c 4.13,-6.58 9.03,0.63 6.45,6.53 c -3.29,3.6 -6.47,1.29 -6.96,-2.89 Z M 153.99,155.01 c -0.38,-3.8 3.84,-6.82 6.41,-3.05 c 1.64,3.24 0.81,10.81 -4.4,8.32 c -1.56,-1.41 -2.22,-3.17 -2.01,-5.27 Z M 64.03,176 c -0.04,5.46 0.01,10.91 0.14,16.36 c 0.89,0.89 1.77,0.89 2.66,0 c 0.01,-2.87 0.17,-5.72 0.48,-8.56 c 0.73,-0.79 5,-0.15 6.18,-0.36 c 1.03,-0.13 1.97,0.08 2.8,0.62 c 0.19,2.81 0.35,5.61 0.48,8.41 c 0.82,0.61 1.63,0.61 2.44,0 c 0.31,-6.33 0.32,-12.66 0.02,-18.98 c -0.83,-0.65 -1.64,-0.63 -2.45,0.06 c -0.23,2.19 -0.31,4.39 -0.23,6.61 c -0.53,1.52 -7.47,0.68 -8.91,0.68 c -2.13,-1.27 1.46,-9.28 -2.98,-7.72 c -0.62,0.85 -0.83,1.81 -0.63,2.88 Z M 82.02,186 c -0.23,9.3 13.29,10.12 13.43,-0.5 c 0.66,-9.38 -13.69,-11.31 -13.43,0.5 Z M 97.54,185 c -0.06,4.17 0.02,8.33 0.24,12.48 c 0.83,0.64 1.65,0.63 2.46,-0.02 c 0.18,-1.69 0.3,-3.37 0.37,-5.04 c 12.7,5.14 12.35,-19.24 0.46,-13.74 c -1.18,-0.17 -3.45,-1.56 -3.52,0.71 c 0,1.87 -0.01,3.74 -0.01,5.61 Z M 111.52,185 c -0.22,6.32 3.86,9.19 9.83,7.69 c 0.95,-0.06 3.83,-2.68 2.87,-3.43 c -1.72,-0.78 -2.9,0.46 -4.19,1.37 c -3.13,0.5 -5.01,-0.83 -5.63,-4.02 c 1.95,-1.6 9.4,0.46 10.42,-1.27 c 0.25,-9.3 -11.94,-10.61 -13.3,-0.34 Z M 126.32,188.29 c 1.26,7.8 15.07,5.76 11.19,-2.35 c -1.93,-1.87 -4.77,-1.67 -7.01,-2.93 c -1.6,-1.69 0.08,-3.29 2.04,-2.91 c 1.19,0.28 2.22,0.84 3.1,1.69 c 2.13,0.25 2.56,-0.5 1.27,-2.25 c -4.62,-4.65 -13.91,1.06 -8.56,5.57 c 2.15,0.93 4.34,1.77 6.57,2.51 c 0.72,1.62 0.21,2.69 -1.52,3.21 c -3.94,0.97 -3.15,-3.83 -7.08,-2.54 Z M 84.87,185 c -0.22,-4.04 4.03,-6.74 6.83,-3.21 c 1.93,3.5 0.56,11.13 -4.73,8.55 c -1.7,-1.36 -2.4,-3.14 -2.1,-5.34 Z M 100.05,185.91 c -0.13,-2.12 0.6,-3.88 2.19,-5.28 c 5.12,-2.29 5.76,5.32 4.26,8.46 c -2.79,3.79 -6.58,0.64 -6.45,-3.18 Z M 114.84,183.03 c 0.95,-4.18 6.33,-3.63 6.95,0.29 c -0.54,1.07 -6.68,1.16 -6.95,-0.29 Z"/></g>
<g><path fill="#f8f8f8" d="M 0,0 c 3.68,0 7.35,0 11.03,0 c -2.27,1.07 -4.35,2.47 -6.26,4.2 c -1.89,2.1 -3.48,4.38 -4.77,6.84 c 0,-3.68 0,-7.36 0,-11.04 Z M 188.97,0 c 3.68,0 7.35,0 11.03,0 c 0,3.68 0,7.35 0,11.03 c -0.34,-0.08 -0.59,-0.28 -0.77,-0.6 c -1.46,-3.73 -3.91,-6.67 -7.32,-8.81 c -1.09,-0.4 -2.06,-0.94 -2.94,-1.62 Z M 37.15,146 c -0.23,-3.03 1.02,-3.81 3.74,-2.34 c 2.76,4.5 5.64,8.89 8.65,13.18 c 0.36,-0.35 0.52,-0.78 0.49,-1.3 c -0.04,-3.97 0.01,-7.94 0.14,-11.9 c 0.89,-0.89 1.77,-0.89 2.66,0 c 0.13,5.95 0.18,11.91 0.14,17.87 c -0.09,2.22 -2.7,1.84 -3.59,0.6 c -2.94,-4.6 -5.92,-9.17 -8.92,-13.72 c -1.14,1.67 -0.03,11.46 -0.48,14.12 c -0.95,1.17 -3.04,0.56 -2.83,-1.02 c 0.02,-5.17 0.02,-10.33 0,-15.49 Z M 146.13,148 c -0.02,-1.44 0.02,-2.87 0.14,-4.3 c 0.86,-1.24 2.87,-0.89 2.7,0.79 c -0.01,5.67 -0.01,11.35 0,17.02 c -0.16,1.4 -0.92,1.83 -2.26,1.31 c -1.18,-0.71 -0.21,-12.8 -0.58,-14.82 Z M 151.16,155 c 0.28,-3.35 1.67,-6.52 5.32,-7.04 c 1.42,-0.06 2.76,0.23 4.02,0.88 c 1.47,-1.26 -0.46,-4.19 1.16,-5.71 c 1.32,-0.42 2.05,0.04 2.19,1.38 c -0.02,5.66 -0.02,11.32 0,16.98 c 0.05,0.54 -0.14,0.98 -0.56,1.32 c -2.25,-0.21 -4.5,-0.15 -6.75,0.19 c -3.8,-0.42 -5.49,-4.62 -5.38,-8 Z M 55.55,156 c -0.59,-9.16 11.06,-11.49 13.25,-2.35 c 0.25,0.84 0.1,1.57 -0.45,2.2 c -2.65,0.14 -5.31,0.2 -7.98,0.19 c -0.75,-0.05 -1.41,0.13 -1.98,0.57 c 0.29,1.97 1.34,3.35 3.16,4.13 c 2.58,0.79 2.97,-1.01 5.07,-1.66 c 0.51,-0.1 2.5,-0.09 1.69,0.97 c -3.16,5.56 -12.64,3.75 -12.76,-4.05 Z M 121.97,155.08 c -0.58,-7.91 9.29,-9.89 12.73,-3.15 c 3.47,14.09 -13.6,15.05 -12.73,3.15 Z M 137.15,151 c -0.18,-1.03 0,-1.97 0.56,-2.81 c 1.93,0.13 3.86,0.07 5.79,-0.19 c 1.39,0.16 1.72,0.81 0.97,1.95 c -0.93,0.24 -1.87,0.4 -2.82,0.49 c -1.2,1.05 -1.73,2.38 -1.62,3.99 c -0.05,2.68 -0.07,5.35 -0.05,8.03 c -4.74,3.82 -2.14,-9.72 -2.83,-11.46 Z M 58.84,153.03 c 0.43,1.45 6.26,1.38 6.93,0.28 c -0.68,-4.03 -5.95,-4.43 -6.93,-0.28 Z M 124.59,156.22 c 0.49,4.18 3.67,6.49 6.96,2.89 c 2.58,-5.9 -2.32,-13.11 -6.45,-6.53 c -0.39,1.18 -0.56,2.4 -0.51,3.64 Z M 153.99,155.01 c -0.21,2.1 0.45,3.86 2.01,5.27 c 5.21,2.49 6.04,-5.08 4.4,-8.32 c -2.57,-3.77 -6.79,-0.75 -6.41,3.05 Z M 64.03,176 c -0.2,-1.07 0.01,-2.03 0.63,-2.88 c 4.44,-1.56 0.85,6.45 2.98,7.72 c 1.44,0 8.38,0.84 8.91,-0.68 c -0.08,-2.22 0,-4.42 0.23,-6.61 c 0.81,-0.69 1.62,-0.71 2.45,-0.06 c 0.3,6.32 0.29,12.65 -0.02,18.98 c -0.81,0.61 -1.62,0.61 -2.44,0 c -0.13,-2.8 -0.29,-5.6 -0.48,-8.41 c -0.83,-0.54 -1.77,-0.75 -2.8,-0.62 c -1.18,0.21 -5.45,-0.43 -6.18,0.36 c -0.31,2.84 -0.47,5.69 -0.48,8.56 c -0.89,0.89 -1.77,0.89 -2.66,0 c -0.13,-5.45 -0.18,-10.9 -0.14,-16.36 Z M 82.02,186 c -0.26,-11.81 14.09,-9.88 13.43,-0.5 c -0.14,10.62 -13.66,9.8 -13.43,0.5 Z M 97.54,185 c 0,-1.87 0.01,-3.74 0.01,-5.61 c 0.07,-2.27 2.34,-0.88 3.52,-0.71 c 11.89,-5.5 12.24,18.88 -0.46,13.74 c -0.07,1.67 -0.19,3.35 -0.37,5.04 c -0.81,0.65 -1.63,0.66 -2.46,0.02 c -0.22,-4.15 -0.3,-8.31 -0.24,-12.48 Z M 111.52,185 c 1.36,-10.27 13.55,-8.96 13.3,0.34 c -1.02,1.73 -8.47,-0.33 -10.42,1.27 c 0.62,3.19 2.5,4.52 5.63,4.02 c 1.29,-0.91 2.47,-2.15 4.19,-1.37 c 0.96,0.75 -1.92,3.37 -2.87,3.43 c -5.97,1.5 -10.05,-1.37 -9.83,-7.69 Z M 126.32,188.29 c 3.93,-1.29 3.14,3.51 7.08,2.54 c 1.73,-0.52 2.24,-1.59 1.52,-3.21 c -2.23,-0.74 -4.42,-1.58 -6.57,-2.51 c -5.35,-4.51 3.94,-10.22 8.56,-5.57 c 1.29,1.75 0.86,2.5 -1.27,2.25 c -0.88,-0.85 -1.91,-1.41 -3.1,-1.69 c -1.96,-0.38 -3.64,1.22 -2.04,2.91 c 2.24,1.26 5.08,1.06 7.01,2.93 c 3.88,8.11 -9.93,10.15 -11.19,2.35 Z M 84.87,185 c -0.3,2.2 0.4,3.98 2.1,5.34 c 5.29,2.58 6.66,-5.05 4.73,-8.55 c -2.8,-3.53 -7.05,-0.83 -6.83,3.21 Z M 100.05,185.91 c -0.13,3.82 3.66,6.97 6.45,3.18 c 1.5,-3.14 0.86,-10.75 -4.26,-8.46 c -1.59,1.4 -2.32,3.16 -2.19,5.28 Z M 114.84,183.03 c 0.27,1.45 6.41,1.36 6.95,0.29 c -0.62,-3.92 -6,-4.47 -6.95,-0.29 Z M 0,188.97 c 0.81,0.82 1.37,1.81 1.68,2.96 c 1.79,4.51 9.66,7.7 10.36,8.07 c -4.02,0 -8.03,0 -12.04,0 c 0,-3.68 0,-7.36 0,-11.03 Z M 200,188.95 c 0,3.69 0,7.37 0,11.05 c -4.01,0 -8.02,0 -12.04,0 c 0.14,-0.3 0.37,-0.52 0.68,-0.66 c 6.89,-2.03 8.06,-5.04 11.36,-10.39 Z"/></g>
<g><path fill="#efefef" d="M 96.48,143.46 c 1.15,-0.61 2.22,-0.51 3.19,0.3 c 0.81,3.89 1.64,7.78 2.49,11.67 c 0.96,1.5 1.84,0.39 2.02,-0.88 c 0.93,-3.64 1.93,-7.25 2.98,-10.86 c 0.28,-0.51 0.72,-0.76 1.3,-0.75 c 1.37,-0.3 2.26,0.2 2.68,1.48 c 1.08,3.64 2.07,7.31 3,11 c 0.56,0.76 1.12,0.74 1.65,-0.04 c 0.81,-3.87 1.67,-7.73 2.6,-11.57 c 0.78,-0.87 1.71,-1.05 2.8,-0.55 c 0.03,1.24 -0.14,2.48 -0.53,3.73 c -1.42,5.27 -2.9,10.51 -4.46,15.71 c -1.1,0.54 -2.08,0.4 -2.95,-0.4 c -1.18,-4.76 -2.51,-9.45 -4.01,-14.07 c -0.4,-0.07 -0.71,0.08 -0.91,0.44 c -1.19,4.55 -2.38,9.09 -3.58,13.63 c -0.66,1.04 -2.78,1.08 -3.5,0 c -1.6,-6.29 -3.19,-12.57 -4.77,-18.84 Z"/></g>
<g><path fill="#f1f1f1" d="M 69.26,148.26 c 0.97,-0.29 1.92,-0.25 2.83,0.14 c 0.84,2.62 1.58,5.27 2.23,7.97 c 1.62,3.43 2.74,-7.18 3.15,-7.5 c 0.61,-1.1 2.55,-1.31 3.31,-0.19 c 0.63,2.24 1.18,4.51 1.64,6.8 c 0.12,0.63 0.47,1.06 1.05,1.3 c 1.11,-2.85 2.2,-5.71 3.25,-8.59 c 0.79,-0.32 1.46,-0.17 1.99,0.44 c -1.41,4.72 -2.93,9.4 -4.56,14.03 c -1.04,0.54 -1.91,0.34 -2.59,-0.58 c -0.55,-2.67 -1.27,-5.24 -2.18,-7.72 c -0.36,0.07 -0.63,0.26 -0.82,0.57 c -0.54,2.48 -1.13,4.94 -1.78,7.39 c -0.9,0.74 -1.92,0.9 -3.05,0.46 c -1.56,-4.81 -3.05,-9.65 -4.47,-14.52 Z"/></g>
<g><path fill="#9c27b0" stroke="#9c27b0" stroke-width="0.5" d="M 9.99,137 c -0.05,-38.79 0.02,-77.58 0.2,-116.37 c 0.85,-11.49 10.57,-10.65 19.34,-10.56 c 50.28,-0.15 100.56,-0.09 150.83,0.19 c 10.24,1.51 9.65,10.11 9.56,18.29 c 0.08,36.66 0.1,73.31 0.06,109.96 c 0.06,0.58 -0.15,1.02 -0.61,1.35 c -28.96,0.14 -57.92,0.18 -86.89,0.14 c -1.57,-0.11 -2.07,-0.94 -1.51,-2.48 c 0.41,-1.62 0.81,-3.25 1.19,-4.88 c 0.59,-0.64 1.31,-0.82 2.17,-0.53 c 10.7,4.06 44.31,10.82 38.18,-11.11 c -3.39,-9.98 -10.9,-16.68 -18.18,-23.86 c -0.44,-0.44 -0.6,-0.96 -0.47,-1.57 c 3.28,-3.43 6.57,-6.87 9.87,-10.3 c 15.24,-17.32 12.74,-33.37 -13.72,-29.68 c -5.85,1.17 -11.63,2.57 -17.33,4.21 c -0.44,-0.28 -0.68,-0.68 -0.72,-1.2 c -2,-9.48 -7.84,-30.89 -19.43,-32.31 c -14.45,2.5 -18.16,20.64 -21.27,32.49 c -0.09,0.51 -0.38,0.87 -0.86,1.07 c -5.71,-1.76 -11.5,-3.21 -17.38,-4.34 c -24.6,-2.91 -29.02,10.61 -14.31,28.35 c 3.62,3.98 7.29,7.91 11,11.78 c 0.1,0.52 -0.04,0.97 -0.41,1.35 c -8.05,8.23 -16.99,15.65 -18.95,27.66 c -0.83,13.51 16.96,12.81 25.94,10.97 c 4.74,-1.15 9.46,-2.35 14.16,-3.59 c 1.22,0.53 2,5.88 2.3,7.32 c -0.27,0.45 -0.68,0.67 -1.23,0.64 c -16.68,0.01 -33.35,0.01 -50.03,-0.01 c -1.88,0.22 -1.44,-1.81 -1.5,-2.98 Z M 67.81,62.05 c 0.29,-5.49 6.93,-32.4 15.78,-28.06 c 7.86,5.44 10.49,19.42 12.02,28.23 c -0.53,1.07 -11.68,5.32 -13.52,6.03 c -4.87,-1.21 -10.04,-3.54 -14.28,-6.2 Z M 26.93,67 c 0.94,-10.44 26.14,-2.76 32.09,-0.38 c 0.46,0.45 0.62,0.99 0.48,1.64 c -0.41,4.65 -1.04,9.28 -1.9,13.86 c -3.49,2.88 -7.07,5.65 -10.73,8.33 c -0.61,0.49 -1.27,0.58 -1.97,0.27 c -6.7,-6.35 -16.5,-14.09 -17.97,-23.72 Z M 103.85,68 c 0.01,-0.74 0.34,-1.28 0.98,-1.63 c 6.02,-1.95 30.27,-9.72 31.64,0.29 c -0.3,8.47 -11.56,18.5 -17.63,23.73 c -0.35,0.38 -0.79,0.56 -1.3,0.53 c -4.14,-2.74 -8.09,-5.72 -11.87,-8.96 c -0.76,-4.62 -1.37,-9.28 -1.82,-13.96 Z M 90.27,72.33 c 6.95,-3.91 6.91,-4.1 7.42,3.98 c -0.87,0.97 -7.32,-2.65 -7.42,-3.98 Z M 65.87,76.03 c -0.3,-6.97 1.37,-7.36 6.97,-3.39 c 0.2,0.73 -6.49,5.14 -6.97,3.39 Z M 64.86,95 c 0.02,-3.05 0.25,-6.07 0.71,-9.05 c 3.16,-1.69 13.74,-9.13 16.74,-8.79 c 5.53,2.63 10.8,5.71 15.81,9.24 c 1.29,3.51 0.45,14.36 0.3,18.58 c -2.09,2.94 -11.84,7.73 -15.44,9.54 c -2.91,1.23 -14.41,-6.86 -17.41,-8.47 c -0.81,-1.55 -0.45,-8.84 -0.71,-11.05 Z M 73.72,96 c 1.85,12.62 18.79,8.76 15.45,-2.89 c -3.65,-8.36 -15.01,-5.94 -15.45,2.89 Z M 51.76,96 c 1.33,-1.97 3.62,-3.31 5.62,-4.49 c 0.17,0.65 2.84,14.93 -5.62,4.49 Z M 105.87,98.01 c 0.02,-1.53 0.02,-3.06 -0.02,-4.58 c -0.01,-3.56 7.37,2.36 5.47,3.43 c -1.02,0.53 -6.17,5.49 -5.45,1.15 Z M 26.94,125 c 1.61,-9.78 10.85,-17.86 18,-24.02 c 0.6,-0.25 1.16,-0.19 1.68,0.2 c 3.39,2.53 6.79,5.04 10.2,7.53 c 1.92,1.15 2.12,12.49 2.82,14.94 c 0.09,0.76 -0.21,1.28 -0.91,1.58 c -6.27,2.47 -29.81,9.68 -31.79,-0.23 Z M 103.89,124.04 c 0.45,-4.71 1,-9.4 1.64,-14.07 c 0.93,-1.07 1.98,-2 3.17,-2.79 c 2.88,-2.22 5.83,-4.31 8.86,-6.26 c 2.21,-0.1 11.19,9.78 13.02,11.86 c 10.66,13.46 6.1,19.3 -10.59,16.69 c -2.58,-0.46 -15.53,-3.11 -16.1,-5.43 Z M 65.88,115.96 c 0.47,-2.13 7.22,2.56 6.84,3.32 c -5.83,3.5 -6.98,4.24 -6.84,-3.32 Z M 90.55,119 c 4.84,-3.3 8.33,-7.22 6.58,1.54 c 0,3.27 -5.71,-0.72 -6.58,-1.54 Z M 67.79,129.94 c 3.9,-2.8 9.28,-5.02 13.82,-6.52 c 4.41,1.66 8.75,3.49 13.02,5.49 c 0.46,0.14 0.8,0.42 1.01,0.85 c -0.23,1.57 -1.35,9.35 -2.35,10.01 c -7.26,0.22 -14.52,0.26 -21.79,0.13 c -0.84,0.11 -1.49,-0.18 -1.93,-0.88 c -0.78,-2.99 -1.37,-6.01 -1.78,-9.08 Z"/></g>
</svg>
