<?xml version="1.0" encoding="UTF-8"?>
<!DOCTYPE svg PUBLIC "-//W3C//DTD SVG 1.1//EN" "http://www.w3.org/Graphics/SVG/1.1/DTD/svg11.dtd">
<svg xmlns="http://www.w3.org/2000/svg" version="1.1" width="200px" height="200px" style="shape-rendering:geometricPrecision; text-rendering:geometricPrecision; image-rendering:optimizeQuality; fill-rule:evenodd; clip-rule:evenodd" xmlns:xlink="http://www.w3.org/1999/xlink">
<rect x="0" y="0" width="200" height="200" fill="#222222"/>
<g><path fill="#222222" stroke="#222222" stroke-width="0.5" d="M 10.03,0 c 59.98,0 119.96,0 179.94,0 c 1.96,1.52 3.89,3.12 5.78,4.81 c 1.64,1.96 3.05,4.04 4.25,6.22 c 0,59.31 0,118.63 0,177.94 c -1.13,0.06 -0.97,2.22 -1.64,2.94 c -3.11,5.07 -5.88,5.43 -10.4,8.09 c -58.64,0 -117.28,0 -175.92,0 c -4.75,-2.68 -9.64,-4.26 -11.34,-10.44 c -0.14,-0.32 -0.37,-0.52 -0.7,-0.59 c 0,-59.31 0,-118.63 0,-177.94 c 1.17,-2.18 2.58,-4.27 4.21,-6.25 c 0.64,-1.37 5.87,-3.88 5.82,-4.78 Z M 10,137 c 0.05,1.16 -0.39,3.2 1.49,2.98 c 5.66,-0.02 11.32,-0.04 16.98,-0.08 c 0.85,0.12 1.54,-0.13 2.09,-0.74 c 0.23,-31.45 0.24,-62.89 0.01,-94.34 c -0.78,-3.09 -5.43,-9.66 -7.13,-12.8 c -0.91,-1.52 -0.53,-2.37 1.15,-2.56 c 38.66,1.15 77.02,1 115.67,-0.04 c 0.52,0.42 0.61,0.95 0.29,1.59 c -1.55,3.45 -7.41,11.21 -7.54,14.57 c -0.31,31.27 -0.28,62.53 0.1,93.79 c 0.35,0.45 0.82,0.65 1.39,0.59 c 18.3,0.08 36.58,0.04 54.87,-0.1 c 0.46,-0.33 0.67,-0.77 0.61,-1.35 c 0.03,-36.32 0.02,-72.65 -0.04,-108.97 c -0.06,-8.47 1.17,-17.59 -9.58,-19.27 c -49.98,-0.54 -100.77,-0.19 -150.83,-0.21 c -8.77,-0.08 -18.49,-0.91 -19.34,10.57 c -0.18,38.79 -0.25,77.58 -0.19,116.37 Z M 37,46 c -0.12,30.74 0.01,61.47 0.4,92.2 c 0.24,0.45 0.62,0.68 1.14,0.69 c 4.65,0.44 9.31,0.79 13.97,1.05 c 0.44,0 0.78,-0.17 1.02,-0.51 c -1.59,-4.55 -2.68,-9.21 -3.25,-13.99 c -1.1,-18.37 18.09,-20.09 24.35,-31.22 c 3.73,-13.59 -27.35,-16.56 -24.34,-37.6 c 0.43,-4.37 1.21,-8.67 2.35,-12.91 c -0.28,-0.38 -0.67,-0.56 -1.15,-0.52 c -4.6,-0.02 -9.19,0.01 -13.78,0.09 c -1.05,0.65 -0.54,1.69 -0.71,2.72 Z M 88.27,92 c 2.81,12.4 26.57,13.66 24.99,33.83 c -0.7,4.68 -1.97,9.21 -3.81,13.57 c 0.26,0.33 0.61,0.49 1.04,0.49 c 4.67,-0.28 9.34,-0.6 14.01,-0.95 c 0.57,0.03 1.04,-0.16 1.43,-0.57 c 0.35,-24.95 0.46,-49.9 0.35,-74.87 c -0.01,-6.01 -0.01,-12.02 -0.01,-18.03 c 0.21,-1.46 -0.4,-2.23 -1.82,-2.29 c -3.62,0.04 -7.25,0.07 -10.87,0.09 c -1.78,-0.34 -2.64,0.36 -2.59,2.09 c 10.44,34.74 -17.95,28.74 -22.72,46.64 Z M 55.42,59.11 c 0.68,16.14 29.26,12.8 39.75,11.49 c 15.07,-2.12 14.42,-13.62 9.84,-25.11 c -0.09,-0.52 -0.34,-0.93 -0.75,-1.24 c -11.24,-0.39 -22.49,-0.51 -33.75,-0.36 c -1.99,0.03 -10.37,-0.21 -11.57,0.59 c -2.03,4.66 -3.21,9.54 -3.52,14.63 Z M 85.39,104.1 c 1.19,13.97 5.53,22.2 20.2,23.81 c 1.8,0.24 2.64,-0.55 2.53,-2.38 c 1.63,-10.7 -13.64,-17.14 -20.59,-22.47 c -1.41,-0.99 -2.12,-0.65 -2.14,1.04 Z M 55.77,124 c -0.07,1.1 0.21,2.07 0.84,2.92 c 14.62,0.95 22.05,-9.71 21.51,-23.48 c -0.67,-0.55 -1.38,-0.58 -2.15,-0.11 c -6.83,4.38 -20.11,11.4 -20.2,20.67 Z M 42.04,155 c 0.2,12.46 16.47,14.15 18.89,1.5 c 1.68,-14.54 -18.75,-15.89 -18.89,-1.5 Z M 63.15,148 c 0.31,2.2 -0.61,16.1 0.56,16.82 c 1.34,0.52 2.1,0.09 2.27,-1.31 c -0.02,-5.67 -0.02,-11.35 0,-17.02 c -0.17,-1.4 -0.93,-1.83 -2.27,-1.31 c -0.56,0.85 -0.74,1.78 -0.56,2.82 Z M 68.15,157 c -0.13,3.34 1.6,7.52 5.31,8 c 2.28,-0.33 4.55,-0.39 6.83,-0.19 c 0.43,-0.34 0.61,-0.78 0.56,-1.32 c -0.01,-5.66 -0.01,-11.32 0,-16.98 c -0.13,-1.34 -0.86,-1.8 -2.19,-1.38 c -1.25,0.98 -0.35,3.06 -0.62,4.42 c 0,2.21 -1.43,0.91 -2.57,0.57 c -4.72,-0.95 -7,2.68 -7.32,6.88 Z M 90.1,146.03 c 1.49,5.91 3.01,11.82 4.54,17.72 c 0.22,1.75 2.41,1.68 3.44,0.7 c 1.38,-5.15 2.85,-10.26 4.42,-15.32 c 1.55,4.81 2.91,9.69 4.08,14.64 c 0.54,1.26 1.46,1.62 2.76,1.09 c 0.67,-1.04 1.16,-2.18 1.47,-3.42 c 1.43,-5.25 2.76,-10.51 4.01,-15.79 c -0.91,-0.92 -1.81,-0.9 -2.71,0.04 c -1.2,4.71 -2.41,9.4 -3.62,14.06 c -1.48,-4.56 -2.79,-9.2 -3.91,-13.91 c -0.85,-1.22 -3.23,-1.18 -4,0.1 c -1.22,4.95 -2.58,9.84 -4.06,14.7 c -1.15,-4.99 -2.36,-9.97 -3.62,-14.96 c -0.58,-1.06 -2.64,-1.06 -2.8,0.35 Z M 139.95,153 c 0.06,3.82 0.09,7.64 0.09,11.46 c 1.25,0.99 2.06,0.7 2.43,-0.86 c -0.03,-5.73 -0.03,-11.46 0,-17.19 c -0.39,-1.52 -1.2,-1.79 -2.43,-0.81 c 0.03,2.46 0,4.93 -0.09,7.4 Z M 145.02,158 c 0.06,5.03 3.92,8.43 8.95,6.56 c 1.18,0.11 3.5,1.17 3.5,-0.97 c -0.02,-5.73 -0.03,-11.46 -0.02,-17.19 c -0.41,-1.44 -1.22,-1.73 -2.42,-0.87 c 0.12,2.1 -0.03,4.17 -0.44,6.2 c -4.71,-4.93 -10.36,0.73 -9.57,6.27 Z M 45,154.96 c 0.23,-12.87 17.63,-8.46 11.99,4.51 c -4.08,6.78 -12.26,2.71 -11.99,-4.51 Z M 115.14,158 c 0.06,9.72 14.22,9.97 13.65,-1.47 c -0.9,-9.16 -13.81,-9.17 -13.65,1.47 Z M 131.03,153 c 0.33,1.8 -0.67,11.17 0.63,11.88 c 4.82,1.77 0.42,-10.14 3.35,-12.22 c 1.15,-0.23 2.29,-0.47 3.43,-0.73 c 0.73,-1.11 0.42,-1.75 -0.93,-1.92 c -1.96,0.12 -3.92,0.16 -5.87,0.13 c -0.61,0.84 -0.81,1.8 -0.61,2.86 Z M 70.99,157 c -0.18,-3.83 3.76,-6.9 6.41,-3.03 c 1.65,3.19 0.75,10.87 -4.39,8.32 c -1.56,-1.42 -2.23,-3.18 -2.02,-5.29 Z M 117.99,157 c -0.21,-3.78 4.04,-6.96 6.9,-3.32 c 2.25,3.33 0.97,10.31 -4.05,9.1 c -2.3,-1.27 -3.25,-3.19 -2.85,-5.78 Z M 147.9,157 c 0.21,-7.92 8.72,-5.25 6.97,2.46 c -1.5,5.82 -7.76,3.4 -6.97,-2.46 Z M 68.54,178 c -0.07,5.5 0.01,10.99 0.25,16.47 c 0.46,0.45 1.02,0.65 1.67,0.59 c 5.53,-0.23 15.74,1.08 12.49,-8.51 c -0.7,-0.92 -1.29,-1.89 -1.78,-2.92 c 0.68,-1.26 1.15,-2.59 1.43,-3.99 c -0.95,-6.23 -7.68,-4.42 -12.17,-4.65 c -2.11,-0.23 -1.96,1.52 -1.89,3.01 Z M 86.03,178 c 0.34,2.24 -0.68,16.17 0.63,16.87 c 1.33,0.42 2.06,-0.04 2.19,-1.38 c -0.01,-5.66 -0.01,-11.32 0,-16.98 c -0.13,-1.34 -0.86,-1.8 -2.19,-1.38 c -0.63,0.84 -0.84,1.8 -0.63,2.87 Z M 71.44,180.01 c -0.57,-3.99 4.84,-2.57 7.02,-1.93 c 4.86,4.64 -8.13,8.01 -7.02,1.93 Z M 91.97,183 c 0.16,7.26 -1.83,14.24 8.39,11.2 c 2.05,1.29 3.08,0.73 3.08,-1.67 c 0.08,-4.02 -0.04,-8.02 -0.35,-12.01 c -0.69,-0.65 -1.35,-0.62 -1.96,0.09 c -0.09,2.92 -0.2,5.84 -0.31,8.76 c -0.73,4.29 -5.89,5.4 -6.33,-0.37 c 0.02,-2.85 -0.11,-5.67 -0.4,-8.48 c -2.04,-1.83 -2.28,1.17 -2.12,2.48 Z M 106.03,188 c 0.1,7.61 9.2,9.6 12.67,4.35 c 0.43,-2.87 -3.38,-0.44 -4.28,0.3 c -2.52,0.96 -4.67,-0.83 -5.32,-3.19 c -0.28,-4.12 12.13,1.6 9.99,-3.92 c -1.82,-9.16 -13.85,-6.61 -13.06,2.46 Z M 120.96,191 c 0.34,2.05 1.52,3.35 3.53,3.9 c 6.25,1.73 11.99,-4.92 5.24,-8.24 c -1.36,-0.65 -8.35,-1.45 -4.83,-4.21 c 3.4,-1.62 3.43,1.86 6.43,1.38 c 3.15,-3.93 -11.61,-7.02 -10.07,1.53 c 0.26,0.65 0.66,1.19 1.19,1.64 c 2.38,0.99 4.74,1.98 7.08,2.97 c 0.93,2.7 -2.71,3.56 -4.59,2.45 c -0.96,-1.11 -2.65,-4.01 -3.98,-1.42 Z M 109.14,184.98 c 1.13,-3.35 5.64,-4.02 6.89,-0.4 c 0.3,2.23 -6.86,1.95 -6.89,0.4 Z M 71.43,189 c -0.52,-5.52 4.26,-3.57 7.82,-2.75 c 5.44,6.16 -8.67,10.01 -7.82,2.75 Z"/></g>
<g><path fill="#f7f7f7" d="M 0,0 c 3.34,0 6.69,0 10.03,0 c 0.05,0.9 -5.18,3.41 -5.82,4.78 c -1.63,1.98 -3.04,4.07 -4.21,6.25 c 0,-3.67 0,-7.35 0,-11.03 Z M 189.97,0 c 3.34,0 6.69,0 10.03,0 c 0,3.68 0,7.35 0,11.03 c -1.2,-2.18 -2.61,-4.26 -4.25,-6.22 c -1.89,-1.69 -3.82,-3.29 -5.78,-4.81 Z M 42.04,155 c 0.14,-14.39 20.57,-13.04 18.89,1.5 c -2.42,12.65 -18.69,10.96 -18.89,-1.5 Z M 63.15,148 c -0.18,-1.04 0,-1.97 0.56,-2.82 c 1.34,-0.52 2.1,-0.09 2.27,1.31 c -0.02,5.67 -0.02,11.35 0,17.02 c -0.17,1.4 -0.93,1.83 -2.27,1.31 c -1.17,-0.72 -0.25,-14.62 -0.56,-16.82 Z M 68.15,157 c 0.32,-4.2 2.6,-7.83 7.32,-6.88 c 1.14,0.34 2.57,1.64 2.57,-0.57 c 0.27,-1.36 -0.63,-3.44 0.62,-4.42 c 1.33,-0.42 2.06,0.04 2.19,1.38 c -0.01,5.66 -0.01,11.32 0,16.98 c 0.05,0.54 -0.13,0.98 -0.56,1.32 c -2.28,-0.2 -4.55,-0.14 -6.83,0.19 c -3.71,-0.48 -5.44,-4.66 -5.31,-8 Z M 90.1,146.03 c 0.16,-1.41 2.22,-1.41 2.8,-0.35 c 1.26,4.99 2.47,9.97 3.62,14.96 c 1.48,-4.86 2.84,-9.75 4.06,-14.7 c 0.77,-1.28 3.15,-1.32 4,-0.1 c 1.12,4.71 2.43,9.35 3.91,13.91 c 1.21,-4.66 2.42,-9.35 3.62,-14.06 c 0.9,-0.94 1.8,-0.96 2.71,-0.04 c -1.25,5.28 -2.58,10.54 -4.01,15.79 c -0.31,1.24 -0.8,2.38 -1.47,3.42 c -1.3,0.53 -2.22,0.17 -2.76,-1.09 c -1.17,-4.95 -2.53,-9.83 -4.08,-14.64 c -1.57,5.06 -3.04,10.17 -4.42,15.32 c -1.03,0.98 -3.22,1.05 -3.44,-0.7 c -1.53,-5.9 -3.05,-11.81 -4.54,-17.72 Z M 139.95,153 c 0.09,-2.47 0.12,-4.94 0.09,-7.4 c 1.23,-0.98 2.04,-0.71 2.43,0.81 c -0.03,5.73 -0.03,11.46 0,17.19 c -0.37,1.56 -1.18,1.85 -2.43,0.86 c 0,-3.82 -0.03,-7.64 -0.09,-11.46 Z M 145.02,158 c -0.79,-5.54 4.86,-11.2 9.57,-6.27 c 0.41,-2.03 0.56,-4.1 0.44,-6.2 c 1.2,-0.86 2.01,-0.57 2.42,0.87 c -0.01,5.73 0,11.46 0.02,17.19 c 0,2.14 -2.32,1.08 -3.5,0.97 c -5.03,1.87 -8.89,-1.53 -8.95,-6.56 Z M 45,154.96 c -0.27,7.22 7.91,11.29 11.99,4.51 c 5.64,-12.97 -11.76,-17.38 -11.99,-4.51 Z M 115.14,158 c -0.16,-10.64 12.75,-10.63 13.65,-1.47 c 0.57,11.44 -13.59,11.19 -13.65,1.47 Z M 131.03,153 c -0.2,-1.06 0,-2.02 0.61,-2.86 c 1.95,0.03 3.91,-0.01 5.87,-0.13 c 1.35,0.17 1.66,0.81 0.93,1.92 c -1.14,0.26 -2.28,0.5 -3.43,0.73 c -2.93,2.08 1.47,13.99 -3.35,12.22 c -1.3,-0.71 -0.3,-10.08 -0.63,-11.88 Z M 70.99,157 c -0.21,2.11 0.46,3.87 2.02,5.29 c 5.14,2.55 6.04,-5.13 4.39,-8.32 c -2.65,-3.87 -6.59,-0.8 -6.41,3.03 Z M 117.99,157 c -0.4,2.59 0.55,4.51 2.85,5.78 c 5.02,1.21 6.3,-5.77 4.05,-9.1 c -2.86,-3.64 -7.11,-0.46 -6.9,3.32 Z M 147.9,157 c -0.79,5.86 5.47,8.28 6.97,2.46 c 1.75,-7.71 -6.76,-10.38 -6.97,-2.46 Z M 68.54,178 c -0.07,-1.49 -0.22,-3.24 1.89,-3.01 c 4.49,0.23 11.22,-1.58 12.17,4.65 c -0.28,1.4 -0.75,2.73 -1.43,3.99 c 0.49,1.03 1.08,2 1.78,2.92 c 3.25,9.59 -6.96,8.28 -12.49,8.51 c -0.65,0.06 -1.21,-0.14 -1.67,-0.59 c -0.24,-5.48 -0.32,-10.97 -0.25,-16.47 Z M 86.03,178 c -0.21,-1.07 0,-2.03 0.63,-2.87 c 1.33,-0.42 2.06,0.04 2.19,1.38 c -0.01,5.66 -0.01,11.32 0,16.98 c -0.13,1.34 -0.86,1.8 -2.19,1.38 c -1.31,-0.7 -0.29,-14.63 -0.63,-16.87 Z M 71.44,180.01 c -1.11,6.08 11.88,2.71 7.02,-1.93 c -2.18,-0.64 -7.59,-2.06 -7.02,1.93 Z M 106.03,188 c -0.79,-9.07 11.24,-11.62 13.06,-2.46 c 2.14,5.52 -10.27,-0.2 -9.99,3.92 c 0.65,2.36 2.8,4.15 5.32,3.19 c 0.9,-0.74 4.71,-3.17 4.28,-0.3 c -3.47,5.25 -12.57,3.26 -12.67,-4.35 Z M 120.96,191 c 1.33,-2.59 3.02,0.31 3.98,1.42 c 1.88,1.11 5.52,0.25 4.59,-2.45 c -2.34,-0.99 -4.7,-1.98 -7.08,-2.97 c -0.53,-0.45 -0.93,-0.99 -1.19,-1.64 c -1.54,-8.55 13.22,-5.46 10.07,-1.53 c -3,0.48 -3.03,-3 -6.43,-1.38 c -3.52,2.76 3.47,3.56 4.83,4.21 c 6.75,3.32 1.01,9.97 -5.24,8.24 c -2.01,-0.55 -3.19,-1.85 -3.53,-3.9 Z M 109.14,184.98 c 0.03,1.55 7.19,1.83 6.89,-0.4 c -1.25,-3.62 -5.76,-2.95 -6.89,0.4 Z M 71.43,189 c -0.85,7.26 13.26,3.41 7.82,-2.75 c -3.56,-0.82 -8.34,-2.77 -7.82,2.75 Z M 0,188.97 c 0.33,0.07 0.56,0.27 0.7,0.59 c 1.7,6.18 6.59,7.76 11.34,10.44 c -4.01,0 -8.03,0 -12.04,0 c 0,-3.68 0,-7.36 0,-11.03 Z M 200,188.97 c 0,3.68 0,7.35 0,11.03 c -4.01,0 -8.03,0 -12.04,0 c 4.52,-2.66 7.29,-3.02 10.4,-8.09 c 0.67,-0.72 0.51,-2.88 1.64,-2.94 Z"/></g>
<g><path fill="#f8f8f8" d="M 91.97,183 c -0.16,-1.31 0.08,-4.31 2.12,-2.48 c 0.29,2.81 0.42,5.63 0.4,8.48 c 0.44,5.77 5.6,4.66 6.33,0.37 c 0.11,-2.92 0.22,-5.84 0.31,-8.76 c 0.61,-0.71 1.27,-0.74 1.96,-0.09 c 0.31,3.99 0.43,7.99 0.35,12.01 c 0,2.4 -1.03,2.96 -3.08,1.67 c -10.22,3.04 -8.23,-3.94 -8.39,-11.2 Z"/></g>
<g><path fill="#8bc34a" stroke="#8bc34a" stroke-width="0.5" d="M 10,137 c -0.06,-38.79 0.01,-77.58 0.19,-116.37 c 0.85,-11.48 10.57,-10.65 19.34,-10.57 c 50.06,0.02 100.85,-0.33 150.83,0.21 c 10.75,1.68 9.52,10.8 9.58,19.27 c 0.06,36.32 0.07,72.65 0.04,108.97 c 0.06,0.58 -0.15,1.02 -0.61,1.35 c -18.29,0.14 -36.57,0.18 -54.87,0.1 c -0.57,0.06 -1.04,-0.14 -1.39,-0.59 c -0.38,-31.26 -0.41,-62.52 -0.1,-93.79 c 0.13,-3.36 5.99,-11.12 7.54,-14.57 c 0.32,-0.64 0.23,-1.17 -0.29,-1.59 c -38.65,1.04 -77.01,1.19 -115.67,0.04 c -1.68,0.19 -2.06,1.04 -1.15,2.56 c 1.7,3.14 6.35,9.71 7.13,12.8 c 0.23,31.45 0.22,62.89 -0.01,94.34 c -0.55,0.61 -1.24,0.86 -2.09,0.74 c -5.66,0.04 -11.32,0.06 -16.98,0.08 c -1.88,0.22 -1.44,-1.82 -1.49,-2.98 Z M 37,46 c 0.17,-1.03 -0.34,-2.07 0.71,-2.72 c 4.59,-0.08 9.18,-0.11 13.78,-0.09 c 0.48,-0.04 0.87,0.14 1.15,0.52 c -1.14,4.24 -1.92,8.54 -2.35,12.91 c -3.01,21.04 28.07,24.01 24.34,37.6 c -6.26,11.13 -25.45,12.85 -24.35,31.22 c 0.57,4.78 1.66,9.44 3.25,13.99 c -0.24,0.34 -0.58,0.51 -1.02,0.51 c -4.66,-0.26 -9.32,-0.61 -13.97,-1.05 c -0.52,-0.01 -0.9,-0.24 -1.14,-0.69 c -0.39,-30.73 -0.52,-61.46 -0.4,-92.2 Z M 88.27,92 c 4.77,-17.9 33.16,-11.9 22.72,-46.64 c -0.05,-1.73 0.81,-2.43 2.59,-2.09 c 3.62,-0.02 7.25,-0.05 10.87,-0.09 c 1.42,0.06 2.03,0.83 1.82,2.29 c 0,6.01 0,12.02 0.01,18.03 c 0.11,24.97 0,49.92 -0.35,74.87 c -0.39,0.41 -0.86,0.6 -1.43,0.57 c -4.67,0.35 -9.34,0.67 -14.01,0.95 c -0.43,0 -0.78,-0.16 -1.04,-0.49 c 1.84,-4.36 3.11,-8.89 3.81,-13.57 c 1.58,-20.17 -22.18,-21.43 -24.99,-33.83 Z M 55.42,59.11 c 0.31,-5.09 1.49,-9.97 3.52,-14.63 c 1.2,-0.8 9.58,-0.56 11.57,-0.59 c 11.26,-0.15 22.51,-0.03 33.75,0.36 c 0.41,0.31 0.66,0.72 0.75,1.24 c 4.58,11.49 5.23,22.99 -9.84,25.11 c -10.49,1.31 -39.07,4.65 -39.75,-11.49 Z M 85.39,104.1 c 0.02,-1.69 0.73,-2.03 2.14,-1.04 c 6.95,5.33 22.22,11.77 20.59,22.47 c 0.11,1.83 -0.73,2.62 -2.53,2.38 c -14.67,-1.61 -19.01,-9.84 -20.2,-23.81 Z M 55.77,124 c 0.09,-9.27 13.37,-16.29 20.2,-20.67 c 0.77,-0.47 1.48,-0.44 2.15,0.11 c 0.54,13.77 -6.89,24.43 -21.51,23.48 c -0.63,-0.85 -0.91,-1.82 -0.84,-2.92 Z"/></g>
</svg>
